NotoSansGeorgian-Bold.ufo
<glyph name="acutecomb" format="2">
  <unicode hex="0301"/>
  <anchor x="-30" y="553" name="_top"/>
  <anchor x="-30" y="766" name="top"/>
  <outline>
    <contour>
      <point x="169" y="766" type="line"/>
      <point x="-40" y="766" type="line"/>
      <point x="-73" y="721"/>
      <point x="-135" y="657"/>
      <point x="-169" y="620" type="curve"/>
      <point x="-169" y="606" type="line"/>
      <point x="-42" y="606" type="line"/>
      <point x="12" y="640"/>
      <point x="122" y="718"/>
      <point x="169" y="756" type="curve"/>
    </contour>
  </outline>
</glyph>
<glyph name="circumflexcomb" format="2">
  <unicode hex="0302"/>
  <anchor x="1" y="553" name="_top"/>
  <anchor x="1" y="766" name="top"/>
  <outline>
    <contour>
      <point x="97" y="766" type="curve"/>
      <point x="-95" y="766" type="line"/>
      <point x="-125" y="720"/>
      <point x="-183" y="656"/>
      <point x="-221" y="620" type="curve"/>
      <point x="-221" y="606" type="line"/>
      <point x="-95" y="606" type="line"/>
      <point x="-60" y="628"/>
      <point x="-35" y="649"/>
      <point x="0" y="679" type="curve"/>
      <point x="35" y="649"/>
      <point x="63" y="626"/>
      <point x="98" y="606" type="curve"/>
      <point x="222" y="606" type="line"/>
      <point x="222" y="620" type="line"/>
      <point x="188" y="654"/>
      <point x="128" y="720"/>
    </contour>
  </outline>
</glyph>
<glyph name="macroncomb" format="2">
  <unicode hex="0304"/>
  <anchor x="-2" y="553" name="_top"/>
  <anchor x="-2" y="731" name="top"/>
  <outline>
    <contour>
      <point x="175" y="731" type="line"/>
      <point x="-180" y="731" type="line"/>
      <point x="-180" y="616" type="line"/>
      <point x="175" y="616" type="line"/>
    </contour>
  </outline>
</glyph>
<glyph name="dieresiscomb" format="2">
  <unicode hex="0308"/>
  <anchor x="0" y="553" name="_top"/>
  <anchor x="0" y="747" name="top"/>
  <outline>
    <contour>
      <point x="-201" y="670" type="curve"/>
      <point x="-201" y="618"/>
      <point x="-165" y="594"/>
      <point x="-118" y="594" type="curve" smooth="yes"/>
      <point x="-73" y="594"/>
      <point x="-34" y="618"/>
      <point x="-34" y="670" type="curve" smooth="yes"/>
      <point x="-34" y="723"/>
      <point x="-73" y="747"/>
      <point x="-118" y="747" type="curve" smooth="yes"/>
      <point x="-165" y="747"/>
      <point x="-201" y="723"/>
    </contour>
    <contour>
      <point x="33" y="670" type="curve"/>
      <point x="33" y="618"/>
      <point x="69" y="594"/>
      <point x="117" y="594" type="curve" smooth="yes"/>
      <point x="162" y="594"/>
      <point x="201" y="618"/>
      <point x="201" y="670" type="curve" smooth="yes"/>
      <point x="201" y="723"/>
      <point x="162" y="747"/>
      <point x="117" y="747" type="curve" smooth="yes"/>
      <point x="69" y="747"/>
      <point x="33" y="723"/>
    </contour>
  </outline>
</glyph>
<glyph name="An-oldgeorgian" format="2">
  <advance width="641"/>
  <unicode hex="10A0"/>
  <note>
uni10A0
</note>
  <outline>
    <contour>
      <point x="405" y="-10" type="curve" smooth="yes"/>
      <point x="469" y="-10"/>
      <point x="534" y="2"/>
      <point x="597" y="30" type="curve"/>
      <point x="597" y="193" type="line"/>
      <point x="537" y="168"/>
      <point x="479" y="148"/>
      <point x="416" y="148" type="curve" smooth="yes"/>
      <point x="322" y="148"/>
      <point x="253" y="216"/>
      <point x="253" y="331" type="curve" smooth="yes"/>
      <point x="253" y="459"/>
      <point x="326" y="556"/>
      <point x="461" y="556" type="curve" smooth="yes"/>
      <point x="597" y="556" type="line"/>
      <point x="597" y="714" type="line"/>
      <point x="69" y="714" type="line"/>
      <point x="69" y="561" type="line"/>
      <point x="172" y="561" type="line"/>
      <point x="172" y="557" type="line"/>
      <point x="98" y="505"/>
      <point x="51" y="414"/>
      <point x="51" y="306" type="curve" smooth="yes"/>
      <point x="51" y="120"/>
      <point x="195" y="-10"/>
    </contour>
  </outline>
</glyph>
<glyph name="Gan-oldgeorgian" format="2">
  <advance width="821"/>
  <unicode hex="10A2"/>
  <note>
uni10A2
</note>
  <outline>
    <contour>
      <point x="427" y="0" type="line"/>
      <point x="821" y="0" type="line"/>
      <point x="821" y="157" type="line"/>
      <point x="621" y="157" type="line"/>
      <point x="621" y="714" type="line"/>
      <point x="63" y="714" type="line"/>
      <point x="63" y="363" type="line"/>
      <point x="254" y="363" type="line"/>
      <point x="254" y="555" type="line"/>
      <point x="427" y="555" type="line"/>
    </contour>
  </outline>
</glyph>
<glyph name="Don-oldgeorgian" format="2">
  <advance width="779"/>
  <unicode hex="10A3"/>
  <note>
uni10A3
</note>
  <outline>
    <contour>
      <point x="389" y="-10" type="curve" smooth="yes"/>
      <point x="620" y="-10"/>
      <point x="727" y="97"/>
      <point x="727" y="261" type="curve" smooth="yes"/>
      <point x="727" y="402"/>
      <point x="652" y="500"/>
      <point x="486" y="525" type="curve"/>
      <point x="486" y="559" type="line"/>
      <point x="710" y="559" type="line"/>
      <point x="710" y="714" type="line"/>
      <point x="68" y="714" type="line"/>
      <point x="68" y="559" type="line"/>
      <point x="293" y="559" type="line"/>
      <point x="293" y="524" type="line"/>
      <point x="132" y="499"/>
      <point x="51" y="402"/>
      <point x="51" y="262" type="curve" smooth="yes"/>
      <point x="51" y="96"/>
      <point x="159" y="-10"/>
    </contour>
    <contour>
      <point x="389" y="147" type="curve" smooth="yes"/>
      <point x="296" y="147"/>
      <point x="254" y="192"/>
      <point x="254" y="262" type="curve" smooth="yes"/>
      <point x="254" y="332"/>
      <point x="295" y="378"/>
      <point x="390" y="378" type="curve" smooth="yes"/>
      <point x="485" y="378"/>
      <point x="524" y="332"/>
      <point x="524" y="262" type="curve" smooth="yes"/>
      <point x="524" y="192"/>
      <point x="485" y="147"/>
    </contour>
  </outline>
</glyph>
<glyph name="En-oldgeorgian" format="2">
  <advance width="698"/>
  <unicode hex="10A4"/>
  <note>
uni10A4
</note>
  <outline>
    <contour>
      <point x="427" y="0" type="line"/>
      <point x="621" y="0" type="line"/>
      <point x="621" y="714" type="line"/>
      <point x="63" y="714" type="line"/>
      <point x="63" y="363" type="line"/>
      <point x="254" y="363" type="line"/>
      <point x="254" y="555" type="line"/>
      <point x="427" y="555" type="line"/>
    </contour>
  </outline>
</glyph>
<glyph name="Vin-oldgeorgian" format="2">
  <advance width="906"/>
  <unicode hex="10A5"/>
  <note>
uni10A5
</note>
  <outline>
    <contour>
      <point x="427" y="0" type="line"/>
      <point x="621" y="0" type="line"/>
      <point x="621" y="283" type="line"/>
      <point x="704" y="283" type="line"/>
      <point x="704" y="174" type="line"/>
      <point x="871" y="174" type="line"/>
      <point x="871" y="440" type="line"/>
      <point x="621" y="440" type="line"/>
      <point x="621" y="714" type="line"/>
      <point x="63" y="714" type="line"/>
      <point x="63" y="363" type="line"/>
      <point x="254" y="363" type="line"/>
      <point x="254" y="555" type="line"/>
      <point x="427" y="555" type="line"/>
    </contour>
  </outline>
</glyph>
<glyph name="Zen-oldgeorgian" format="2">
  <advance width="804"/>
  <unicode hex="10A6"/>
  <note>
uni10A6
</note>
  <outline>
    <contour>
      <point x="459" y="-10" type="curve" smooth="yes"/>
      <point x="656" y="-10"/>
      <point x="757" y="99"/>
      <point x="757" y="277" type="curve" smooth="yes"/>
      <point x="757" y="456"/>
      <point x="666" y="562"/>
      <point x="527" y="562" type="curve" smooth="yes"/>
      <point x="455" y="562"/>
      <point x="406" y="539"/>
      <point x="366" y="498" type="curve"/>
      <point x="359" y="498" type="line"/>
      <point x="364" y="542"/>
      <point x="366" y="576"/>
      <point x="366" y="615" type="curve" smooth="yes"/>
      <point x="366" y="714" type="line"/>
      <point x="-10" y="714" type="line"/>
      <point x="-10" y="560" type="line"/>
      <point x="175" y="560" type="line"/>
      <point x="175" y="279" type="line" smooth="yes"/>
      <point x="175" y="96"/>
      <point x="264" y="-10"/>
    </contour>
    <contour>
      <point x="459" y="147" type="curve" smooth="yes"/>
      <point x="398" y="147"/>
      <point x="366" y="184"/>
      <point x="366" y="277" type="curve" smooth="yes"/>
      <point x="366" y="369"/>
      <point x="400" y="405"/>
      <point x="464" y="405" type="curve" smooth="yes"/>
      <point x="526" y="405"/>
      <point x="558" y="369"/>
      <point x="558" y="277" type="curve" smooth="yes"/>
      <point x="558" y="184"/>
      <point x="520" y="147"/>
    </contour>
  </outline>
</glyph>
<glyph name="Tan-oldgeorgian" format="2">
  <advance width="942"/>
  <unicode hex="10A7"/>
  <note>
uni10A7
</note>
  <outline>
    <contour>
      <point x="657" y="440" type="line"/>
      <point x="657" y="714" type="line"/>
      <point x="426" y="714" type="line" smooth="yes"/>
      <point x="199" y="714"/>
      <point x="51" y="591"/>
      <point x="51" y="342" type="curve" smooth="yes"/>
      <point x="51" y="121"/>
      <point x="180" y="0"/>
      <point x="410" y="0" type="curve" smooth="yes"/>
      <point x="657" y="0" type="line"/>
      <point x="657" y="283" type="line"/>
      <point x="740" y="283" type="line"/>
      <point x="740" y="174" type="line"/>
      <point x="907" y="174" type="line"/>
      <point x="907" y="440" type="line"/>
    </contour>
    <contour>
      <point x="464" y="156" type="line"/>
      <point x="408" y="156" type="line" smooth="yes"/>
      <point x="303" y="156"/>
      <point x="251" y="219"/>
      <point x="251" y="349" type="curve" smooth="yes"/>
      <point x="251" y="489"/>
      <point x="304" y="556"/>
      <point x="421" y="556" type="curve" smooth="yes"/>
      <point x="464" y="556" type="line"/>
    </contour>
  </outline>
</glyph>
<glyph name="In-oldgeorgian" format="2">
  <advance width="543"/>
  <unicode hex="10A8"/>
  <note>
uni10A8
</note>
  <outline>
    <contour>
      <point x="272" y="0" type="line"/>
      <point x="466" y="0" type="line"/>
      <point x="466" y="714" type="line"/>
      <point x="-10" y="714" type="line"/>
      <point x="-10" y="558" type="line"/>
      <point x="272" y="558" type="line"/>
    </contour>
  </outline>
</glyph>
<glyph name="Kan-oldgeorgian" format="2">
  <advance width="735"/>
  <unicode hex="10A9"/>
  <note>
uni10A9
</note>
  <outline>
    <contour>
      <point x="472" y="0" type="line"/>
      <point x="666" y="0" type="line"/>
      <point x="666" y="374" type="line" smooth="yes"/>
      <point x="666" y="533"/>
      <point x="583" y="632"/>
      <point x="437" y="632" type="curve" smooth="yes"/>
      <point x="356" y="632"/>
      <point x="298" y="603"/>
      <point x="261" y="555" type="curve"/>
      <point x="256" y="555" type="line"/>
      <point x="262" y="600"/>
      <point x="263" y="648"/>
      <point x="263" y="686" type="curve" smooth="yes"/>
      <point x="263" y="714" type="line"/>
      <point x="69" y="714" type="line"/>
      <point x="69" y="356" type="line" smooth="yes"/>
      <point x="69" y="197"/>
      <point x="151" y="98"/>
      <point x="297" y="98" type="curve" smooth="yes"/>
      <point x="378" y="98"/>
      <point x="436" y="127"/>
      <point x="473" y="176" type="curve"/>
      <point x="478" y="176" type="line"/>
      <point x="472" y="120"/>
      <point x="472" y="71"/>
      <point x="472" y="28" type="curve" smooth="yes"/>
    </contour>
    <contour>
      <point x="364" y="255" type="curve" smooth="yes"/>
      <point x="292" y="255"/>
      <point x="263" y="295"/>
      <point x="263" y="365" type="curve" smooth="yes"/>
      <point x="263" y="434"/>
      <point x="300" y="475"/>
      <point x="370" y="475" type="curve" smooth="yes"/>
      <point x="441" y="475"/>
      <point x="472" y="434"/>
      <point x="472" y="365" type="curve" smooth="yes"/>
      <point x="472" y="295"/>
      <point x="435" y="255"/>
    </contour>
  </outline>
</glyph>
<glyph name="Las-oldgeorgian" format="2">
  <advance width="1019"/>
  <unicode hex="10AA"/>
  <note>
uni10AA
</note>
  <outline>
    <contour>
      <point x="674" y="-10" type="curve" smooth="yes"/>
      <point x="871" y="-10"/>
      <point x="972" y="99"/>
      <point x="972" y="277" type="curve" smooth="yes"/>
      <point x="972" y="456"/>
      <point x="881" y="562"/>
      <point x="742" y="562" type="curve" smooth="yes"/>
      <point x="670" y="562"/>
      <point x="621" y="539"/>
      <point x="581" y="498" type="curve"/>
      <point x="574" y="498" type="line"/>
      <point x="579" y="542"/>
      <point x="581" y="576"/>
      <point x="581" y="615" type="curve" smooth="yes"/>
      <point x="581" y="714" type="line"/>
      <point x="63" y="714" type="line"/>
      <point x="63" y="363" type="line"/>
      <point x="254" y="363" type="line"/>
      <point x="254" y="555" type="line"/>
      <point x="390" y="555" type="line"/>
      <point x="390" y="279" type="line" smooth="yes"/>
      <point x="390" y="96"/>
      <point x="479" y="-10"/>
    </contour>
    <contour>
      <point x="674" y="147" type="curve" smooth="yes"/>
      <point x="613" y="147"/>
      <point x="581" y="184"/>
      <point x="581" y="277" type="curve" smooth="yes"/>
      <point x="581" y="369"/>
      <point x="615" y="405"/>
      <point x="679" y="405" type="curve" smooth="yes"/>
      <point x="741" y="405"/>
      <point x="773" y="369"/>
      <point x="773" y="277" type="curve" smooth="yes"/>
      <point x="773" y="184"/>
      <point x="735" y="147"/>
    </contour>
  </outline>
</glyph>
<glyph name="Man-oldgeorgian" format="2">
  <advance width="822"/>
  <unicode hex="10AB"/>
  <note>
uni10AB
</note>
  <outline>
    <contour>
      <point x="335" y="-10" type="curve" smooth="yes"/>
      <point x="514" y="-10"/>
      <point x="623" y="96"/>
      <point x="623" y="243" type="curve" smooth="yes"/>
      <point x="623" y="332" type="line"/>
      <point x="787" y="332" type="line"/>
      <point x="787" y="479" type="line"/>
      <point x="623" y="479" type="line"/>
      <point x="623" y="714" type="line"/>
      <point x="83" y="714" type="line"/>
      <point x="83" y="558" type="line"/>
      <point x="432" y="558" type="line"/>
      <point x="432" y="479" type="line"/>
      <point x="337" y="479" type="line" smooth="yes"/>
      <point x="155" y="479"/>
      <point x="51" y="395"/>
      <point x="51" y="237" type="curve" smooth="yes"/>
      <point x="51" y="85"/>
      <point x="166" y="-10"/>
    </contour>
    <contour>
      <point x="337" y="147" type="curve" smooth="yes"/>
      <point x="286" y="147"/>
      <point x="250" y="181"/>
      <point x="250" y="239" type="curve" smooth="yes"/>
      <point x="250" y="298"/>
      <point x="286" y="332"/>
      <point x="337" y="332" type="curve" smooth="yes"/>
      <point x="432" y="332" type="line"/>
      <point x="432" y="252" type="line" smooth="yes"/>
      <point x="432" y="192"/>
      <point x="398" y="147"/>
    </contour>
  </outline>
</glyph>
<glyph name="Nar-oldgeorgian" format="2">
  <advance width="756"/>
  <unicode hex="10AC"/>
  <note>
uni10AC
</note>
  <outline>
    <contour>
      <point x="77" y="0" type="line"/>
      <point x="271" y="0" type="line"/>
      <point x="271" y="157" type="line" smooth="yes"/>
      <point x="271" y="270"/>
      <point x="306" y="325"/>
      <point x="388" y="325" type="curve" smooth="yes"/>
      <point x="447" y="325"/>
      <point x="490" y="286"/>
      <point x="490" y="205" type="curve" smooth="yes"/>
      <point x="490" y="0" type="line"/>
      <point x="684" y="0" type="line"/>
      <point x="684" y="224" type="line" smooth="yes"/>
      <point x="684" y="383"/>
      <point x="598" y="482"/>
      <point x="445" y="482" type="curve" smooth="yes"/>
      <point x="370" y="482"/>
      <point x="306" y="451"/>
      <point x="267" y="395" type="curve"/>
      <point x="262" y="395" type="line"/>
      <point x="269" y="454"/>
      <point x="271" y="505"/>
      <point x="271" y="551" type="curve" smooth="yes"/>
      <point x="271" y="558" type="line"/>
      <point x="657" y="558" type="line"/>
      <point x="657" y="714" type="line"/>
      <point x="77" y="714" type="line"/>
    </contour>
  </outline>
</glyph>
<glyph name="On-oldgeorgian" format="2">
  <advance width="953"/>
  <unicode hex="10AD"/>
  <note>
uni10AD
</note>
  <outline>
    <contour>
      <point x="398" y="-10" type="curve" smooth="yes"/>
      <point x="490" y="-10"/>
      <point x="562" y="11"/>
      <point x="616" y="49" type="curve"/>
      <point x="661" y="13"/>
      <point x="712" y="-10"/>
      <point x="770" y="-10" type="curve" smooth="yes"/>
      <point x="913" y="-10"/>
      <point x="951" y="65"/>
      <point x="953" y="207" type="curve"/>
      <point x="791" y="207" type="line"/>
      <point x="791" y="151"/>
      <point x="768" y="120"/>
      <point x="729" y="120" type="curve" smooth="yes"/>
      <point x="716" y="120"/>
      <point x="705" y="121"/>
      <point x="691" y="128" type="curve"/>
      <point x="728" y="189"/>
      <point x="745" y="267"/>
      <point x="745" y="358" type="curve" smooth="yes"/>
      <point x="745" y="579"/>
      <point x="643" y="724"/>
      <point x="399" y="724" type="curve" smooth="yes"/>
      <point x="158" y="724"/>
      <point x="51" y="580"/>
      <point x="51" y="359" type="curve" smooth="yes"/>
      <point x="51" y="136"/>
      <point x="158" y="-10"/>
    </contour>
    <contour>
      <point x="398" y="151" type="curve" smooth="yes"/>
      <point x="295" y="151"/>
      <point x="254" y="229"/>
      <point x="254" y="358" type="curve" smooth="yes"/>
      <point x="254" y="487"/>
      <point x="294" y="566"/>
      <point x="399" y="566" type="curve" smooth="yes"/>
      <point x="504" y="566"/>
      <point x="542" y="487"/>
      <point x="542" y="358" type="curve" smooth="yes"/>
      <point x="542" y="229"/>
      <point x="504" y="151"/>
    </contour>
  </outline>
</glyph>
<glyph name="Par-oldgeorgian" format="2">
  <advance width="858"/>
  <unicode hex="10AE"/>
  <note>
uni10AE
</note>
  <outline>
    <contour>
      <point x="478" y="-10" type="curve" smooth="yes"/>
      <point x="684" y="-10"/>
      <point x="786" y="104"/>
      <point x="786" y="284" type="curve" smooth="yes"/>
      <point x="786" y="714" type="line"/>
      <point x="593" y="714" type="line"/>
      <point x="593" y="296" type="line" smooth="yes"/>
      <point x="593" y="194"/>
      <point x="560" y="151"/>
      <point x="481" y="151" type="curve" smooth="yes"/>
      <point x="407" y="151"/>
      <point x="369" y="194"/>
      <point x="369" y="295" type="curve" smooth="yes"/>
      <point x="369" y="714" type="line"/>
      <point x="-10" y="714" type="line"/>
      <point x="-10" y="556" type="line"/>
      <point x="175" y="556" type="line"/>
      <point x="175" y="280" type="line" smooth="yes"/>
      <point x="175" y="95"/>
      <point x="281" y="-10"/>
    </contour>
  </outline>
</glyph>
<glyph name="Zhar-oldgeorgian" format="2">
  <advance width="788"/>
  <unicode hex="10AF"/>
  <note>
uni10AF
</note>
  <outline>
    <contour>
      <point x="517" y="0" type="line"/>
      <point x="711" y="0" type="line"/>
      <point x="711" y="714" type="line"/>
      <point x="517" y="714" type="line"/>
      <point x="517" y="508" type="line" smooth="yes"/>
      <point x="517" y="415"/>
      <point x="469" y="360"/>
      <point x="392" y="360" type="curve" smooth="yes"/>
      <point x="324" y="360"/>
      <point x="283" y="396"/>
      <point x="283" y="467" type="curve" smooth="yes"/>
      <point x="283" y="525"/>
      <point x="308" y="564"/>
      <point x="360" y="578" type="curve"/>
      <point x="360" y="714" type="line"/>
      <point x="-5" y="714" type="line"/>
      <point x="-5" y="556" type="line"/>
      <point x="135" y="556" type="line"/>
      <point x="135" y="552" type="line"/>
      <point x="110" y="524"/>
      <point x="89" y="482"/>
      <point x="89" y="421" type="curve" smooth="yes"/>
      <point x="89" y="300"/>
      <point x="182" y="203"/>
      <point x="333" y="203" type="curve" smooth="yes"/>
      <point x="419" y="203"/>
      <point x="483" y="238"/>
      <point x="521" y="290" type="curve"/>
      <point x="526" y="290" type="line"/>
      <point x="519" y="231"/>
      <point x="517" y="179"/>
      <point x="517" y="133" type="curve" smooth="yes"/>
    </contour>
  </outline>
</glyph>
<glyph name="Rae-oldgeorgian" format="2">
  <advance width="1017"/>
  <unicode hex="10B0"/>
  <note>
uni10B0
</note>
  <outline>
    <contour>
      <point x="352" y="-10" type="curve" smooth="yes"/>
      <point x="543" y="-10"/>
      <point x="644" y="94"/>
      <point x="644" y="260" type="curve" smooth="yes"/>
      <point x="644" y="313" type="line" smooth="yes"/>
      <point x="644" y="374"/>
      <point x="669" y="405"/>
      <point x="714" y="405" type="curve" smooth="yes"/>
      <point x="762" y="405"/>
      <point x="784" y="366"/>
      <point x="784" y="321" type="curve" smooth="yes"/>
      <point x="784" y="294"/>
      <point x="776" y="266"/>
      <point x="762" y="242" type="curve"/>
      <point x="932" y="189" type="line"/>
      <point x="963" y="232"/>
      <point x="982" y="290"/>
      <point x="982" y="348" type="curve" smooth="yes"/>
      <point x="982" y="456"/>
      <point x="917" y="562"/>
      <point x="795" y="562" type="curve" smooth="yes"/>
      <point x="715" y="562"/>
      <point x="679" y="537"/>
      <point x="640" y="485" type="curve"/>
      <point x="635" y="485" type="line"/>
      <point x="642" y="544"/>
      <point x="644" y="585"/>
      <point x="644" y="631" type="curve" smooth="yes"/>
      <point x="644" y="714" type="line"/>
      <point x="450" y="714" type="line"/>
      <point x="450" y="293" type="line" smooth="yes"/>
      <point x="450" y="194"/>
      <point x="413" y="151"/>
      <point x="347" y="151" type="curve" smooth="yes"/>
      <point x="286" y="151"/>
      <point x="247" y="194"/>
      <point x="247" y="268" type="curve" smooth="yes"/>
      <point x="247" y="312"/>
      <point x="260" y="349"/>
      <point x="283" y="385" type="curve"/>
      <point x="120" y="454" type="line"/>
      <point x="69" y="391"/>
      <point x="46" y="323"/>
      <point x="46" y="258" type="curve" smooth="yes"/>
      <point x="46" y="115"/>
      <point x="160" y="-10"/>
    </contour>
  </outline>
</glyph>
<glyph name="San-oldgeorgian" format="2">
  <advance width="717"/>
  <unicode hex="10B1"/>
  <note>
uni10B1
</note>
  <outline>
    <contour>
      <point x="364" y="-10" type="curve" smooth="yes"/>
      <point x="556" y="-10"/>
      <point x="670" y="115"/>
      <point x="670" y="258" type="curve" smooth="yes"/>
      <point x="670" y="323"/>
      <point x="647" y="391"/>
      <point x="596" y="454" type="curve"/>
      <point x="433" y="385" type="line"/>
      <point x="456" y="349"/>
      <point x="469" y="312"/>
      <point x="469" y="268" type="curve" smooth="yes"/>
      <point x="469" y="194"/>
      <point x="430" y="151"/>
      <point x="369" y="151" type="curve" smooth="yes"/>
      <point x="303" y="151"/>
      <point x="266" y="194"/>
      <point x="266" y="293" type="curve" smooth="yes"/>
      <point x="266" y="714" type="line"/>
      <point x="72" y="714" type="line"/>
      <point x="72" y="270" type="line" smooth="yes"/>
      <point x="72" y="104"/>
      <point x="173" y="-10"/>
    </contour>
  </outline>
</glyph>
<glyph name="Tar-oldgeorgian" format="2">
  <advance width="647"/>
  <unicode hex="10B2"/>
  <note>
uni10B2
</note>
  <outline>
    <contour>
      <point x="77" y="0" type="line"/>
      <point x="561" y="0" type="line"/>
      <point x="561" y="156" type="line"/>
      <point x="270" y="156" type="line"/>
      <point x="270" y="237" type="line"/>
      <point x="324" y="237" type="line" smooth="yes"/>
      <point x="527" y="237"/>
      <point x="595" y="357"/>
      <point x="595" y="487" type="curve" smooth="yes"/>
      <point x="595" y="632"/>
      <point x="505" y="714"/>
      <point x="324" y="714" type="curve" smooth="yes"/>
      <point x="77" y="714" type="line"/>
    </contour>
    <contour>
      <point x="270" y="394" type="line"/>
      <point x="270" y="558" type="line"/>
      <point x="320" y="558" type="line" smooth="yes"/>
      <point x="376" y="558"/>
      <point x="402" y="527"/>
      <point x="402" y="482" type="curve" smooth="yes"/>
      <point x="402" y="417"/>
      <point x="358" y="394"/>
      <point x="308" y="394" type="curve" smooth="yes"/>
    </contour>
  </outline>
</glyph>
<glyph name="Un-oldgeorgian" format="2">
  <advance width="797"/>
  <unicode hex="10B3"/>
  <note>
uni10B3
</note>
  <outline>
    <contour>
      <point x="609" y="-195" type="curve" smooth="yes"/>
      <point x="718" y="-195"/>
      <point x="787" y="-145"/>
      <point x="787" y="-40" type="curve" smooth="yes"/>
      <point x="787" y="41"/>
      <point x="728" y="98"/>
      <point x="673" y="125" type="curve"/>
      <point x="728" y="190"/>
      <point x="745" y="269"/>
      <point x="745" y="358" type="curve" smooth="yes"/>
      <point x="745" y="579"/>
      <point x="643" y="724"/>
      <point x="399" y="724" type="curve" smooth="yes"/>
      <point x="158" y="724"/>
      <point x="51" y="580"/>
      <point x="51" y="359" type="curve" smooth="yes"/>
      <point x="51" y="136"/>
      <point x="158" y="-10"/>
      <point x="398" y="-10" type="curve" smooth="yes"/>
      <point x="485" y="-10"/>
      <point x="539" y="5"/>
      <point x="587" y="39" type="curve"/>
      <point x="606" y="16"/>
      <point x="616" y="0"/>
      <point x="616" y="-21" type="curve" smooth="yes"/>
      <point x="616" y="-43"/>
      <point x="598" y="-59"/>
      <point x="565" y="-59" type="curve" smooth="yes"/>
      <point x="550" y="-59"/>
      <point x="536" y="-57"/>
      <point x="524" y="-53" type="curve"/>
      <point x="524" y="-184" type="line"/>
      <point x="547" y="-192"/>
      <point x="577" y="-195"/>
    </contour>
    <contour>
      <point x="398" y="151" type="curve" smooth="yes"/>
      <point x="295" y="151"/>
      <point x="254" y="229"/>
      <point x="254" y="358" type="curve" smooth="yes"/>
      <point x="254" y="486"/>
      <point x="294" y="566"/>
      <point x="399" y="566" type="curve" smooth="yes"/>
      <point x="504" y="566"/>
      <point x="542" y="486"/>
      <point x="542" y="358" type="curve" smooth="yes"/>
      <point x="542" y="229"/>
      <point x="504" y="151"/>
    </contour>
  </outline>
</glyph>
<glyph name="Phar-oldgeorgian" format="2">
  <advance width="923"/>
  <unicode hex="10B4"/>
  <note>
uni10B4
</note>
  <outline>
    <contour>
      <point x="368" y="0" type="line"/>
      <point x="554" y="0" type="line"/>
      <point x="554" y="152" type="line"/>
      <point x="739" y="157"/>
      <point x="871" y="264"/>
      <point x="871" y="438" type="curve" smooth="yes"/>
      <point x="871" y="620"/>
      <point x="729" y="724"/>
      <point x="458" y="724" type="curve" smooth="yes"/>
      <point x="237" y="724"/>
      <point x="51" y="649"/>
      <point x="51" y="438" type="curve" smooth="yes"/>
      <point x="51" y="266"/>
      <point x="181" y="157"/>
      <point x="368" y="152" type="curve"/>
    </contour>
    <contour>
      <point x="368" y="299" type="line"/>
      <point x="290" y="304"/>
      <point x="239" y="357"/>
      <point x="239" y="439" type="curve" smooth="yes"/>
      <point x="239" y="519"/>
      <point x="290" y="564"/>
      <point x="368" y="569" type="curve"/>
    </contour>
    <contour>
      <point x="554" y="299" type="curve"/>
      <point x="554" y="569" type="line"/>
      <point x="632" y="564"/>
      <point x="683" y="516"/>
      <point x="683" y="439" type="curve" smooth="yes"/>
      <point x="683" y="358"/>
      <point x="632" y="304"/>
    </contour>
  </outline>
</glyph>
<glyph name="Khar-oldgeorgian" format="2">
  <advance width="702"/>
  <unicode hex="10B5"/>
  <note>
uni10B5
</note>
  <outline>
    <contour>
      <point x="249" y="0" type="line"/>
      <point x="442" y="0" type="line"/>
      <point x="442" y="322" type="line"/>
      <point x="650" y="322" type="line"/>
      <point x="650" y="479" type="line"/>
      <point x="442" y="479" type="line"/>
      <point x="442" y="714" type="line"/>
      <point x="249" y="714" type="line"/>
      <point x="249" y="479" type="line"/>
      <point x="41" y="479" type="line"/>
      <point x="41" y="322" type="line"/>
      <point x="249" y="322" type="line"/>
    </contour>
  </outline>
</glyph>
<glyph name="Ghan-oldgeorgian" format="2">
  <advance width="755"/>
  <unicode hex="10B6"/>
  <note>
uni10B6
</note>
  <outline>
    <contour>
      <point x="72" y="0" type="line"/>
      <point x="265" y="0" type="line"/>
      <point x="265" y="418" type="line" smooth="yes"/>
      <point x="265" y="520"/>
      <point x="298" y="563"/>
      <point x="377" y="563" type="curve" smooth="yes"/>
      <point x="451" y="563"/>
      <point x="489" y="520"/>
      <point x="489" y="419" type="curve" smooth="yes"/>
      <point x="489" y="0" type="line"/>
      <point x="683" y="0" type="line"/>
      <point x="683" y="434" type="line" smooth="yes"/>
      <point x="683" y="619"/>
      <point x="577" y="724"/>
      <point x="380" y="724" type="curve" smooth="yes"/>
      <point x="174" y="724"/>
      <point x="72" y="610"/>
      <point x="72" y="430" type="curve" smooth="yes"/>
    </contour>
  </outline>
</glyph>
<glyph name="Qar-oldgeorgian" format="2">
  <advance width="750"/>
  <unicode hex="10B7"/>
  <note>
uni10B7
</note>
  <outline>
    <contour>
      <point x="479" y="0" type="line"/>
      <point x="673" y="0" type="line"/>
      <point x="673" y="714" type="line"/>
      <point x="479" y="714" type="line"/>
      <point x="479" y="528" type="line" smooth="yes"/>
      <point x="479" y="415"/>
      <point x="431" y="360"/>
      <point x="354" y="360" type="curve" smooth="yes"/>
      <point x="285" y="360"/>
      <point x="240" y="396"/>
      <point x="240" y="473" type="curve" smooth="yes"/>
      <point x="240" y="555"/>
      <point x="264" y="640"/>
      <point x="307" y="714" type="curve"/>
      <point x="104" y="714" type="line"/>
      <point x="66" y="640"/>
      <point x="46" y="556"/>
      <point x="46" y="461" type="curve" smooth="yes"/>
      <point x="46" y="300"/>
      <point x="145" y="203"/>
      <point x="295" y="203" type="curve" smooth="yes"/>
      <point x="381" y="203"/>
      <point x="445" y="238"/>
      <point x="483" y="290" type="curve"/>
      <point x="488" y="290" type="line"/>
      <point x="481" y="231"/>
      <point x="479" y="179"/>
      <point x="479" y="133" type="curve" smooth="yes"/>
    </contour>
  </outline>
</glyph>
<glyph name="Shin-oldgeorgian" format="2">
  <advance width="746"/>
  <unicode hex="10B8"/>
  <note>
uni10B8
</note>
  <outline>
    <contour>
      <point x="373" y="-10" type="curve" smooth="yes"/>
      <point x="554" y="-10"/>
      <point x="669" y="82"/>
      <point x="669" y="269" type="curve" smooth="yes"/>
      <point x="669" y="714" type="line"/>
      <point x="475" y="714" type="line"/>
      <point x="475" y="648" type="line" smooth="yes"/>
      <point x="475" y="535"/>
      <point x="440" y="480"/>
      <point x="368" y="480" type="curve" smooth="yes"/>
      <point x="309" y="480"/>
      <point x="266" y="519"/>
      <point x="266" y="600" type="curve" smooth="yes"/>
      <point x="266" y="714" type="line"/>
      <point x="72" y="714" type="line"/>
      <point x="72" y="581" type="line" smooth="yes"/>
      <point x="72" y="422"/>
      <point x="158" y="323"/>
      <point x="311" y="323" type="curve" smooth="yes"/>
      <point x="386" y="323"/>
      <point x="440" y="354"/>
      <point x="479" y="410" type="curve"/>
      <point x="484" y="410" type="line"/>
      <point x="477" y="359"/>
      <point x="475" y="333"/>
      <point x="475" y="301" type="curve" smooth="yes"/>
      <point x="475" y="263" type="line" smooth="yes"/>
      <point x="475" y="186"/>
      <point x="429" y="146"/>
      <point x="373" y="146" type="curve" smooth="yes"/>
      <point x="316" y="146"/>
      <point x="275" y="173"/>
      <point x="275" y="220" type="curve" smooth="yes"/>
      <point x="275" y="229"/>
      <point x="276" y="239"/>
      <point x="279" y="249" type="curve"/>
      <point x="106" y="306" type="line"/>
      <point x="88" y="272"/>
      <point x="79" y="236"/>
      <point x="79" y="198" type="curve" smooth="yes"/>
      <point x="79" y="69"/>
      <point x="212" y="-10"/>
    </contour>
  </outline>
</glyph>
<glyph name="Chin-oldgeorgian" format="2">
  <advance width="731"/>
  <unicode hex="10B9"/>
  <note>
uni10B9
</note>
  <outline>
    <contour>
      <point x="77" y="0" type="line"/>
      <point x="271" y="0" type="line"/>
      <point x="271" y="315" type="line"/>
      <point x="470" y="315" type="line"/>
      <point x="470" y="0" type="line"/>
      <point x="664" y="0" type="line"/>
      <point x="664" y="472" type="line"/>
      <point x="271" y="472" type="line"/>
      <point x="271" y="714" type="line"/>
      <point x="77" y="714" type="line"/>
    </contour>
  </outline>
</glyph>
<glyph name="Can-oldgeorgian" format="2">
  <advance width="740"/>
  <unicode hex="10BA"/>
  <note>
uni10BA
</note>
  <outline>
    <contour>
      <point x="381" y="-8" type="curve" smooth="yes"/>
      <point x="423" y="-8"/>
      <point x="464" y="2"/>
      <point x="491" y="18" type="curve"/>
      <point x="491" y="0" type="line"/>
      <point x="672" y="0" type="line"/>
      <point x="672" y="307" type="line"/>
      <point x="491" y="307" type="line"/>
      <point x="491" y="167" type="line"/>
      <point x="470" y="156"/>
      <point x="436" y="149"/>
      <point x="406" y="149" type="curve" smooth="yes"/>
      <point x="310" y="149"/>
      <point x="250" y="219"/>
      <point x="250" y="354" type="curve" smooth="yes"/>
      <point x="250" y="482"/>
      <point x="308" y="566"/>
      <point x="427" y="566" type="curve" smooth="yes"/>
      <point x="490" y="566"/>
      <point x="550" y="550"/>
      <point x="597" y="528" type="curve"/>
      <point x="657" y="679" type="line"/>
      <point x="599" y="706"/>
      <point x="515" y="724"/>
      <point x="427" y="724" type="curve" smooth="yes"/>
      <point x="191" y="724"/>
      <point x="51" y="592"/>
      <point x="51" y="356" type="curve" smooth="yes"/>
      <point x="51" y="120"/>
      <point x="176" y="-8"/>
    </contour>
  </outline>
</glyph>
<glyph name="Jil-oldgeorgian" format="2">
  <advance width="960"/>
  <unicode hex="10BB"/>
  <outline>
    <contour>
      <point x="335" y="-10" type="curve" smooth="yes"/>
      <point x="506" y="-10"/>
      <point x="615" y="86"/>
      <point x="615" y="243" type="curve" smooth="yes"/>
      <point x="615" y="330" type="line"/>
      <point x="726" y="330" type="line"/>
      <point x="726" y="0" type="line"/>
      <point x="893" y="0" type="line"/>
      <point x="893" y="487" type="line"/>
      <point x="615" y="487" type="line"/>
      <point x="615" y="714" type="line"/>
      <point x="424" y="714" type="line"/>
      <point x="424" y="487" type="line"/>
      <point x="327" y="487" type="line" smooth="yes"/>
      <point x="155" y="487"/>
      <point x="51" y="392"/>
      <point x="51" y="241" type="curve" smooth="yes"/>
      <point x="51" y="86"/>
      <point x="166" y="-10"/>
    </contour>
    <contour>
      <point x="337" y="147" type="curve" smooth="yes"/>
      <point x="286" y="147"/>
      <point x="250" y="182"/>
      <point x="250" y="243" type="curve" smooth="yes"/>
      <point x="250" y="295"/>
      <point x="286" y="330"/>
      <point x="337" y="330" type="curve" smooth="yes"/>
      <point x="424" y="330" type="line"/>
      <point x="424" y="242" type="line" smooth="yes"/>
      <point x="424" y="182"/>
      <point x="390" y="147"/>
    </contour>
  </outline>
</glyph>
<glyph name="Cil-oldgeorgian" format="2">
  <advance width="632"/>
  <unicode hex="10BC"/>
  <note>
uni10BC
</note>
  <outline>
    <contour>
      <point x="77" y="0" type="line"/>
      <point x="270" y="0" type="line"/>
      <point x="270" y="91" type="line"/>
      <point x="361" y="91" type="line"/>
      <point x="361" y="34" type="line"/>
      <point x="528" y="34" type="line"/>
      <point x="528" y="248" type="line"/>
      <point x="270" y="248" type="line"/>
      <point x="270" y="284" type="line"/>
      <point x="324" y="284" type="line" smooth="yes"/>
      <point x="527" y="284"/>
      <point x="595" y="392"/>
      <point x="595" y="509" type="curve" smooth="yes"/>
      <point x="595" y="640"/>
      <point x="505" y="714"/>
      <point x="324" y="714" type="curve" smooth="yes"/>
      <point x="77" y="714" type="line"/>
    </contour>
    <contour>
      <point x="270" y="440" type="line"/>
      <point x="270" y="559" type="line"/>
      <point x="320" y="559" type="line" smooth="yes"/>
      <point x="376" y="559"/>
      <point x="402" y="536"/>
      <point x="402" y="504" type="curve" smooth="yes"/>
      <point x="402" y="457"/>
      <point x="358" y="440"/>
      <point x="308" y="440" type="curve" smooth="yes"/>
    </contour>
  </outline>
</glyph>
<glyph name="Char-oldgeorgian" format="2">
  <advance width="606"/>
  <unicode hex="10BD"/>
  <note>
uni10BD
</note>
  <outline>
    <contour>
      <point x="295" y="-10" type="curve" smooth="yes"/>
      <point x="471" y="-10"/>
      <point x="561" y="67"/>
      <point x="561" y="207" type="curve" smooth="yes"/>
      <point x="561" y="338"/>
      <point x="469" y="388"/>
      <point x="363" y="432" type="curve" smooth="yes"/>
      <point x="294" y="461"/>
      <point x="238" y="477"/>
      <point x="238" y="519" type="curve" smooth="yes"/>
      <point x="238" y="549"/>
      <point x="262" y="567"/>
      <point x="298" y="567" type="curve" smooth="yes"/>
      <point x="334" y="567"/>
      <point x="361" y="549"/>
      <point x="361" y="515" type="curve" smooth="yes"/>
      <point x="361" y="509"/>
      <point x="360" y="503"/>
      <point x="359" y="498" type="curve"/>
      <point x="544" y="498" type="line"/>
      <point x="545" y="502"/>
      <point x="546" y="512"/>
      <point x="546" y="520" type="curve" smooth="yes"/>
      <point x="546" y="657"/>
      <point x="438" y="724"/>
      <point x="296" y="724" type="curve" smooth="yes"/>
      <point x="157" y="724"/>
      <point x="53" y="656"/>
      <point x="53" y="512" type="curve" smooth="yes"/>
      <point x="53" y="381"/>
      <point x="166" y="330"/>
      <point x="261" y="287" type="curve" smooth="yes"/>
      <point x="323" y="259"/>
      <point x="375" y="243"/>
      <point x="375" y="201" type="curve" smooth="yes"/>
      <point x="375" y="164"/>
      <point x="346" y="146"/>
      <point x="300" y="146" type="curve" smooth="yes"/>
      <point x="253" y="146"/>
      <point x="226" y="168"/>
      <point x="226" y="204" type="curve" smooth="yes"/>
      <point x="226" y="214"/>
      <point x="228" y="227"/>
      <point x="231" y="234" type="curve"/>
      <point x="47" y="234" type="line"/>
      <point x="43" y="222"/>
      <point x="40" y="202"/>
      <point x="40" y="185" type="curve" smooth="yes"/>
      <point x="40" y="63"/>
      <point x="126" y="-10"/>
    </contour>
  </outline>
</glyph>
<glyph name="Xan-oldgeorgian" format="2">
  <advance width="741"/>
  <unicode hex="10BE"/>
  <note>
uni10BE
</note>
  <outline>
    <contour>
      <point x="77" y="714" type="line"/>
      <point x="77" y="0" type="line"/>
      <point x="657" y="0" type="line"/>
      <point x="657" y="156" type="line"/>
      <point x="271" y="156" type="line"/>
      <point x="271" y="262" type="line"/>
      <point x="664" y="262" type="line"/>
      <point x="664" y="714" type="line"/>
      <point x="470" y="714" type="line"/>
      <point x="470" y="419" type="line"/>
      <point x="271" y="419" type="line"/>
      <point x="271" y="714" type="line"/>
    </contour>
  </outline>
</glyph>
<glyph name="Jhan-oldgeorgian" format="2">
  <advance width="716"/>
  <unicode hex="10BF"/>
  <note>
uni10BF
</note>
  <outline>
    <contour>
      <point x="6" y="0" type="line"/>
      <point x="224" y="0" type="line"/>
      <point x="362" y="228" type="line"/>
      <point x="500" y="0" type="line"/>
      <point x="716" y="0" type="line"/>
      <point x="481" y="355" type="line"/>
      <point x="654" y="595" type="line"/>
      <point x="654" y="714" type="line"/>
      <point x="20" y="714" type="line"/>
      <point x="20" y="558" type="line"/>
      <point x="120" y="558" type="line"/>
      <point x="243" y="370" type="line"/>
    </contour>
    <contour>
      <point x="365" y="473" type="line"/>
      <point x="312" y="564" type="line"/>
      <point x="419" y="564" type="line"/>
    </contour>
  </outline>
</glyph>
<glyph name="Hae-oldgeorgian" format="2">
  <advance width="1033"/>
  <unicode hex="10C0"/>
  <note>
uni10C0
</note>
  <outline>
    <contour>
      <point x="680" y="-10" type="curve" smooth="yes"/>
      <point x="872" y="-10"/>
      <point x="986" y="115"/>
      <point x="986" y="258" type="curve" smooth="yes"/>
      <point x="986" y="323"/>
      <point x="963" y="391"/>
      <point x="912" y="454" type="curve"/>
      <point x="749" y="385" type="line"/>
      <point x="772" y="349"/>
      <point x="785" y="312"/>
      <point x="785" y="268" type="curve" smooth="yes"/>
      <point x="785" y="194"/>
      <point x="746" y="151"/>
      <point x="685" y="151" type="curve" smooth="yes"/>
      <point x="619" y="151"/>
      <point x="582" y="194"/>
      <point x="582" y="293" type="curve" smooth="yes"/>
      <point x="582" y="714" type="line"/>
      <point x="63" y="714" type="line"/>
      <point x="63" y="363" type="line"/>
      <point x="254" y="363" type="line"/>
      <point x="254" y="555" type="line"/>
      <point x="388" y="555" type="line"/>
      <point x="388" y="270" type="line" smooth="yes"/>
      <point x="388" y="104"/>
      <point x="489" y="-10"/>
    </contour>
  </outline>
</glyph>
<glyph name="He-oldgeorgian" format="2">
  <advance width="783"/>
  <unicode hex="10C1"/>
  <note>
uni10C1
</note>
  <outline>
    <contour>
      <point x="77" y="0" type="line"/>
      <point x="271" y="0" type="line"/>
      <point x="271" y="243" type="line" smooth="yes"/>
      <point x="271" y="356"/>
      <point x="304" y="411"/>
      <point x="381" y="411" type="curve" smooth="yes"/>
      <point x="451" y="411"/>
      <point x="481" y="362"/>
      <point x="481" y="281" type="curve" smooth="yes"/>
      <point x="481" y="222" type="line"/>
      <point x="763" y="222" type="line"/>
      <point x="763" y="380" type="line"/>
      <point x="666" y="380" type="line"/>
      <point x="647" y="490"/>
      <point x="574" y="568"/>
      <point x="451" y="568" type="curve" smooth="yes"/>
      <point x="366" y="568"/>
      <point x="306" y="537"/>
      <point x="267" y="481" type="curve"/>
      <point x="262" y="481" type="line"/>
      <point x="269" y="540"/>
      <point x="271" y="592"/>
      <point x="271" y="638" type="curve" smooth="yes"/>
      <point x="271" y="714" type="line"/>
      <point x="77" y="714" type="line"/>
    </contour>
  </outline>
</glyph>
<glyph name="Hie-oldgeorgian" format="2">
  <advance width="698"/>
  <unicode hex="10C2"/>
  <note>
uni10C2
</note>
  <outline>
    <contour>
      <point x="253" y="-10" type="curve" smooth="yes"/>
      <point x="504" y="-10"/>
      <point x="646" y="104"/>
      <point x="646" y="320" type="curve" smooth="yes"/>
      <point x="646" y="525"/>
      <point x="509" y="630"/>
      <point x="259" y="630" type="curve" smooth="yes"/>
      <point x="248" y="630" type="line"/>
      <point x="248" y="714" type="line"/>
      <point x="65" y="714" type="line"/>
      <point x="65" y="474" type="line"/>
      <point x="245" y="474" type="line" smooth="yes"/>
      <point x="386" y="474"/>
      <point x="447" y="419"/>
      <point x="447" y="314" type="curve" smooth="yes"/>
      <point x="447" y="205"/>
      <point x="374" y="148"/>
      <point x="240" y="148" type="curve" smooth="yes"/>
      <point x="174" y="148"/>
      <point x="99" y="168"/>
      <point x="42" y="193" type="curve"/>
      <point x="42" y="30" type="line"/>
      <point x="107" y="0"/>
      <point x="175" y="-10"/>
    </contour>
  </outline>
</glyph>
<glyph name="We-oldgeorgian" format="2">
  <advance width="740"/>
  <unicode hex="10C3"/>
  <note>
uni10C3
</note>
  <outline>
    <contour>
      <point x="469" y="0" type="line"/>
      <point x="663" y="0" type="line"/>
      <point x="663" y="714" type="line"/>
      <point x="469" y="714" type="line"/>
      <point x="469" y="475" type="line" smooth="yes"/>
      <point x="469" y="365"/>
      <point x="417" y="316"/>
      <point x="340" y="316" type="curve" smooth="yes"/>
      <point x="285" y="316"/>
      <point x="247" y="352"/>
      <point x="247" y="411" type="curve" smooth="yes"/>
      <point x="247" y="455"/>
      <point x="260" y="492"/>
      <point x="283" y="528" type="curve"/>
      <point x="120" y="597" type="line"/>
      <point x="69" y="534"/>
      <point x="46" y="466"/>
      <point x="46" y="401" type="curve" smooth="yes"/>
      <point x="46" y="249"/>
      <point x="145" y="159"/>
      <point x="282" y="159" type="curve" smooth="yes"/>
      <point x="371" y="159"/>
      <point x="436" y="194"/>
      <point x="473" y="246" type="curve"/>
      <point x="478" y="246" type="line"/>
      <point x="471" y="187"/>
      <point x="469" y="135"/>
      <point x="469" y="89" type="curve" smooth="yes"/>
    </contour>
  </outline>
</glyph>
<glyph name="Har-oldgeorgian" format="2">
  <advance width="749"/>
  <unicode hex="10C4"/>
  <note>
uni10C4
</note>
  <outline>
    <contour>
      <point x="278" y="0" type="line"/>
      <point x="472" y="0" type="line"/>
      <point x="472" y="225" type="line"/>
      <point x="611" y="257"/>
      <point x="680" y="361"/>
      <point x="680" y="509" type="curve" smooth="yes"/>
      <point x="680" y="714" type="line"/>
      <point x="487" y="714" type="line"/>
      <point x="487" y="521" type="line" smooth="yes"/>
      <point x="487" y="419"/>
      <point x="454" y="376"/>
      <point x="375" y="376" type="curve" smooth="yes"/>
      <point x="301" y="376"/>
      <point x="263" y="419"/>
      <point x="263" y="520" type="curve" smooth="yes"/>
      <point x="263" y="714" type="line"/>
      <point x="69" y="714" type="line"/>
      <point x="69" y="505" type="line" smooth="yes"/>
      <point x="69" y="352"/>
      <point x="141" y="254"/>
      <point x="278" y="224" type="curve"/>
    </contour>
  </outline>
</glyph>
<glyph name="Hoe-oldgeorgian" format="2">
  <advance width="880"/>
  <unicode hex="10C5"/>
  <note>
uni10C5
</note>
  <outline>
    <contour>
      <point x="282" y="-10" type="curve" smooth="yes"/>
      <point x="453" y="-10"/>
      <point x="527" y="61"/>
      <point x="527" y="186" type="curve" smooth="yes"/>
      <point x="527" y="197" type="line"/>
      <point x="612" y="197" type="line"/>
      <point x="612" y="94" type="line"/>
      <point x="779" y="94" type="line"/>
      <point x="779" y="331" type="line"/>
      <point x="527" y="331" type="line"/>
      <point x="527" y="374" type="line"/>
      <point x="583" y="374" type="line" smooth="yes"/>
      <point x="748" y="374"/>
      <point x="838" y="427"/>
      <point x="838" y="549" type="curve" smooth="yes"/>
      <point x="838" y="658"/>
      <point x="753" y="724"/>
      <point x="582" y="724" type="curve" smooth="yes"/>
      <point x="408" y="724"/>
      <point x="336" y="646"/>
      <point x="336" y="521" type="curve" smooth="yes"/>
      <point x="336" y="331" type="line"/>
      <point x="293" y="331" type="line" smooth="yes"/>
      <point x="115" y="331"/>
      <point x="32" y="270"/>
      <point x="32" y="153" type="curve" smooth="yes"/>
      <point x="32" y="53"/>
      <point x="113" y="-10"/>
    </contour>
    <contour>
      <point x="279" y="119" type="curve" smooth="yes"/>
      <point x="242" y="119"/>
      <point x="228" y="134"/>
      <point x="228" y="155" type="curve" smooth="yes"/>
      <point x="228" y="176"/>
      <point x="240" y="197"/>
      <point x="292" y="197" type="curve" smooth="yes"/>
      <point x="336" y="197" type="line"/>
      <point x="336" y="180" type="line" smooth="yes"/>
      <point x="336" y="144"/>
      <point x="320" y="119"/>
    </contour>
    <contour>
      <point x="527" y="498" type="line"/>
      <point x="527" y="529" type="line" smooth="yes"/>
      <point x="527" y="565"/>
      <point x="543" y="590"/>
      <point x="586" y="590" type="curve" smooth="yes"/>
      <point x="628" y="590"/>
      <point x="642" y="572"/>
      <point x="642" y="547" type="curve" smooth="yes"/>
      <point x="642" y="522"/>
      <point x="628" y="498"/>
      <point x="566" y="498" type="curve" smooth="yes"/>
    </contour>
  </outline>
</glyph>
<glyph name="Yn-oldgeorgian" format="2">
  <advance width="606"/>
  <unicode hex="10C7"/>
  <anchor x="324" y="0" name="bottom"/>
  <anchor x="324" y="714" name="top"/>
  <outline>
    <contour>
      <point x="311" y="-10" type="curve" smooth="yes"/>
      <point x="480" y="-10"/>
      <point x="566" y="63"/>
      <point x="566" y="185" type="curve" smooth="yes"/>
      <point x="566" y="202"/>
      <point x="563" y="222"/>
      <point x="559" y="234" type="curve"/>
      <point x="375" y="234" type="line"/>
      <point x="378" y="227"/>
      <point x="380" y="214"/>
      <point x="380" y="204" type="curve" smooth="yes"/>
      <point x="380" y="168"/>
      <point x="353" y="146"/>
      <point x="306" y="146" type="curve" smooth="yes"/>
      <point x="260" y="146"/>
      <point x="231" y="164"/>
      <point x="231" y="201" type="curve" smooth="yes"/>
      <point x="231" y="243"/>
      <point x="283" y="259"/>
      <point x="345" y="287" type="curve" smooth="yes"/>
      <point x="440" y="330"/>
      <point x="553" y="381"/>
      <point x="553" y="512" type="curve" smooth="yes"/>
      <point x="553" y="656"/>
      <point x="449" y="724"/>
      <point x="310" y="724" type="curve" smooth="yes"/>
      <point x="168" y="724"/>
      <point x="60" y="657"/>
      <point x="60" y="520" type="curve" smooth="yes"/>
      <point x="60" y="512"/>
      <point x="61" y="502"/>
      <point x="62" y="498" type="curve"/>
      <point x="247" y="498" type="line"/>
      <point x="246" y="503"/>
      <point x="245" y="509"/>
      <point x="245" y="515" type="curve" smooth="yes"/>
      <point x="245" y="549"/>
      <point x="272" y="567"/>
      <point x="308" y="567" type="curve" smooth="yes"/>
      <point x="344" y="567"/>
      <point x="368" y="549"/>
      <point x="368" y="519" type="curve" smooth="yes"/>
      <point x="368" y="477"/>
      <point x="312" y="461"/>
      <point x="243" y="432" type="curve" smooth="yes"/>
      <point x="137" y="388"/>
      <point x="45" y="338"/>
      <point x="45" y="207" type="curve" smooth="yes"/>
      <point x="45" y="67"/>
      <point x="135" y="-10"/>
    </contour>
  </outline>
</glyph>
<glyph name="Aen-oldgeorgian" format="2">
  <advance width="611"/>
  <unicode hex="10CD"/>
  <outline>
    <contour>
      <point x="30" y="0" type="line"/>
      <point x="586" y="0" type="line"/>
      <point x="586" y="156" type="line"/>
      <point x="269" y="156" type="line"/>
      <point x="578" y="595" type="line"/>
      <point x="578" y="714" type="line"/>
      <point x="37" y="714" type="line"/>
      <point x="37" y="558" type="line"/>
      <point x="339" y="558" type="line"/>
      <point x="30" y="119" type="line"/>
    </contour>
  </outline>
</glyph>
<glyph name="an-georgian" format="2">
  <advance width="608"/>
  <unicode hex="10D0"/>
  <note>
uni10D0
</note>
  <anchor x="304" y="553" name="top"/>
  <outline>
    <contour>
      <point x="299" y="-10" type="curve" smooth="yes"/>
      <point x="465" y="-10"/>
      <point x="566" y="83"/>
      <point x="566" y="221" type="curve" smooth="yes"/>
      <point x="566" y="316"/>
      <point x="518" y="371"/>
      <point x="470" y="416" type="curve" smooth="yes"/>
      <point x="425" y="459"/>
      <point x="384" y="500"/>
      <point x="383" y="553" type="curve"/>
      <point x="192" y="553" type="line"/>
      <point x="192" y="433"/>
      <point x="254" y="379"/>
      <point x="304" y="331" type="curve" smooth="yes"/>
      <point x="340" y="297"/>
      <point x="372" y="268"/>
      <point x="372" y="218" type="curve"/>
      <point x="372" y="169"/>
      <point x="347" y="132"/>
      <point x="299" y="132" type="curve" smooth="yes"/>
      <point x="251" y="132"/>
      <point x="228" y="171"/>
      <point x="228" y="226" type="curve" smooth="yes"/>
      <point x="228" y="250"/>
      <point x="232" y="276"/>
      <point x="239" y="303" type="curve"/>
      <point x="55" y="303" type="line"/>
      <point x="43" y="271"/>
      <point x="37" y="249"/>
      <point x="37" y="206" type="curve" smooth="yes"/>
      <point x="37" y="69"/>
      <point x="146" y="-10"/>
    </contour>
  </outline>
</glyph>
<glyph name="ban-georgian" format="2">
  <advance width="636"/>
  <unicode hex="10D1"/>
  <note>
uni10D1
</note>
  <outline>
    <contour>
      <point x="414" y="550" type="curve"/>
      <point x="423" y="565"/>
      <point x="427" y="583"/>
      <point x="427" y="605" type="curve" smooth="yes"/>
      <point x="427" y="647"/>
      <point x="404" y="673"/>
      <point x="380" y="694" type="curve" smooth="yes"/>
      <point x="355" y="715"/>
      <point x="335" y="734"/>
      <point x="334" y="760" type="curve"/>
      <point x="158" y="760" type="line"/>
      <point x="158" y="692"/>
      <point x="186" y="668"/>
      <point x="210" y="647" type="curve" smooth="yes"/>
      <point x="228" y="632"/>
      <point x="244" y="617"/>
      <point x="244" y="588" type="curve" smooth="yes"/>
      <point x="244" y="576"/>
      <point x="240" y="564"/>
      <point x="235" y="554" type="curve"/>
      <point x="113" y="525"/>
      <point x="42" y="429"/>
      <point x="42" y="278" type="curve" smooth="yes"/>
      <point x="42" y="93"/>
      <point x="157" y="-10"/>
      <point x="317" y="-10" type="curve" smooth="yes"/>
      <point x="489" y="-10"/>
      <point x="594" y="93"/>
      <point x="594" y="278" type="curve" smooth="yes"/>
      <point x="594" y="422"/>
      <point x="523" y="516"/>
    </contour>
    <contour>
      <point x="319" y="132" type="curve" smooth="yes"/>
      <point x="259" y="132"/>
      <point x="236" y="183"/>
      <point x="236" y="278" type="curve" smooth="yes"/>
      <point x="236" y="372"/>
      <point x="260" y="421"/>
      <point x="318" y="421" type="curve" smooth="yes"/>
      <point x="378" y="421"/>
      <point x="400" y="372"/>
      <point x="400" y="278" type="curve" smooth="yes"/>
      <point x="400" y="183"/>
      <point x="378" y="132"/>
    </contour>
  </outline>
</glyph>
<glyph name="gan-georgian" format="2">
  <advance width="626"/>
  <unicode hex="10D2"/>
  <note>
uni10D2
</note>
  <outline>
    <contour>
      <point x="312" y="-250" type="curve" smooth="yes"/>
      <point x="484" y="-250"/>
      <point x="589" y="-147"/>
      <point x="589" y="28" type="curve" smooth="yes"/>
      <point x="589" y="140"/>
      <point x="542" y="218"/>
      <point x="447" y="259" type="curve"/>
      <point x="447" y="263" type="line"/>
      <point x="523" y="291"/>
      <point x="544" y="342"/>
      <point x="544" y="396" type="curve" smooth="yes"/>
      <point x="544" y="483"/>
      <point x="462" y="563"/>
      <point x="313" y="563" type="curve" smooth="yes"/>
      <point x="173" y="563"/>
      <point x="83" y="499"/>
      <point x="83" y="398" type="curve" smooth="yes"/>
      <point x="83" y="382"/>
      <point x="85" y="367"/>
      <point x="90" y="348" type="curve"/>
      <point x="265" y="348" type="line"/>
      <point x="263" y="358"/>
      <point x="262" y="368"/>
      <point x="262" y="377" type="curve" smooth="yes"/>
      <point x="262" y="413"/>
      <point x="281" y="437"/>
      <point x="313" y="437" type="curve" smooth="yes"/>
      <point x="346" y="437"/>
      <point x="364" y="411"/>
      <point x="364" y="378" type="curve" smooth="yes"/>
      <point x="364" y="332"/>
      <point x="338" y="311"/>
      <point x="267" y="298" type="curve" smooth="yes"/>
      <point x="134" y="274"/>
      <point x="37" y="184"/>
      <point x="37" y="28" type="curve" smooth="yes"/>
      <point x="37" y="-147"/>
      <point x="152" y="-250"/>
    </contour>
    <contour>
      <point x="314" y="-108" type="curve" smooth="yes"/>
      <point x="254" y="-108"/>
      <point x="231" y="-57"/>
      <point x="231" y="28" type="curve" smooth="yes"/>
      <point x="231" y="112"/>
      <point x="255" y="161"/>
      <point x="313" y="161" type="curve" smooth="yes"/>
      <point x="373" y="161"/>
      <point x="395" y="112"/>
      <point x="395" y="28" type="curve" smooth="yes"/>
      <point x="395" y="-57"/>
      <point x="373" y="-108"/>
    </contour>
  </outline>
</glyph>
<glyph name="don-georgian" format="2">
  <advance width="940"/>
  <unicode hex="10D3"/>
  <note>
uni10D3
</note>
  <outline>
    <contour>
      <point x="553" y="-250" type="curve"/>
      <point x="690" y="-184" type="line"/>
      <point x="648" y="-102"/>
      <point x="580" y="-55"/>
      <point x="447" y="-4" type="curve" smooth="yes"/>
      <point x="321" y="44"/>
      <point x="234" y="136"/>
      <point x="234" y="283" type="curve" smooth="yes"/>
      <point x="234" y="350"/>
      <point x="246" y="421"/>
      <point x="300" y="421" type="curve" smooth="yes"/>
      <point x="352" y="421"/>
      <point x="366" y="376"/>
      <point x="366" y="306" type="curve" smooth="yes"/>
      <point x="366" y="280" type="line" smooth="yes"/>
      <point x="366" y="113"/>
      <point x="466" y="10"/>
      <point x="633" y="10" type="curve" smooth="yes"/>
      <point x="789" y="10"/>
      <point x="898" y="113"/>
      <point x="898" y="288" type="curve" smooth="yes"/>
      <point x="898" y="461"/>
      <point x="793" y="563"/>
      <point x="639" y="563" type="curve" smooth="yes"/>
      <point x="554" y="563"/>
      <point x="487" y="526"/>
      <point x="459" y="462" type="curve"/>
      <point x="454" y="462" type="line"/>
      <point x="423" y="526"/>
      <point x="363" y="563"/>
      <point x="272" y="563" type="curve" smooth="yes"/>
      <point x="127" y="563"/>
      <point x="42" y="445"/>
      <point x="42" y="283" type="curve" smooth="yes"/>
      <point x="42" y="137"/>
      <point x="129" y="16"/>
      <point x="258" y="-39" type="curve"/>
      <point x="258" y="-43" type="line"/>
      <point x="204" y="-48"/>
      <point x="175" y="-61"/>
      <point x="151" y="-73" type="curve"/>
      <point x="206" y="-192" type="line"/>
      <point x="248" y="-167"/>
      <point x="306" y="-148"/>
      <point x="360" y="-148" type="curve" smooth="yes"/>
      <point x="421" y="-148"/>
      <point x="497" y="-173"/>
    </contour>
    <contour>
      <point x="631" y="152" type="curve" smooth="yes"/>
      <point x="577" y="152"/>
      <point x="560" y="203"/>
      <point x="560" y="288" type="curve" smooth="yes"/>
      <point x="560" y="372"/>
      <point x="577" y="421"/>
      <point x="632" y="421" type="curve" smooth="yes"/>
      <point x="685" y="421"/>
      <point x="704" y="372"/>
      <point x="704" y="288" type="curve" smooth="yes"/>
      <point x="704" y="203"/>
      <point x="687" y="152"/>
    </contour>
  </outline>
</glyph>
<glyph name="en-georgian" format="2">
  <advance width="624"/>
  <unicode hex="10D4"/>
  <note>
uni10D4
</note>
  <anchor x="312" y="553" name="top"/>
  <outline>
    <contour>
      <point x="303" y="-250" type="curve" smooth="yes"/>
      <point x="475" y="-250"/>
      <point x="569" y="-150"/>
      <point x="569" y="16" type="curve" smooth="yes"/>
      <point x="569" y="320" type="line" smooth="yes"/>
      <point x="569" y="470"/>
      <point x="471" y="563"/>
      <point x="311" y="563" type="curve" smooth="yes"/>
      <point x="167" y="563"/>
      <point x="58" y="484"/>
      <point x="58" y="347" type="curve" smooth="yes"/>
      <point x="58" y="304"/>
      <point x="64" y="282"/>
      <point x="76" y="250" type="curve"/>
      <point x="260" y="250" type="line"/>
      <point x="250" y="288"/>
      <point x="249" y="311"/>
      <point x="249" y="332" type="curve" smooth="yes"/>
      <point x="249" y="390"/>
      <point x="271" y="421"/>
      <point x="314" y="421" type="curve" smooth="yes"/>
      <point x="357" y="421"/>
      <point x="378" y="390"/>
      <point x="378" y="323" type="curve"/>
      <point x="378" y="18" type="line"/>
      <point x="378" y="-63"/>
      <point x="363" y="-108"/>
      <point x="304" y="-108" type="curve" smooth="yes"/>
      <point x="249" y="-108"/>
      <point x="228" y="-56"/>
      <point x="228" y="11" type="curve" smooth="yes"/>
      <point x="228" y="40"/>
      <point x="232" y="73"/>
      <point x="239" y="105" type="curve"/>
      <point x="60" y="105" type="line"/>
      <point x="43" y="68"/>
      <point x="37" y="37"/>
      <point x="37" y="-3" type="curve" smooth="yes"/>
      <point x="37" y="-145"/>
      <point x="135" y="-250"/>
    </contour>
  </outline>
</glyph>
<glyph name="vin-georgian" format="2">
  <advance width="623"/>
  <unicode hex="10D5"/>
  <note>
uni10D5
</note>
  <outline>
    <contour>
      <point x="311" y="-250" type="curve" smooth="yes"/>
      <point x="485" y="-250"/>
      <point x="586" y="-150"/>
      <point x="586" y="-13" type="curve" smooth="yes"/>
      <point x="586" y="98"/>
      <point x="512" y="161"/>
      <point x="425" y="177" type="curve"/>
      <point x="425" y="180" type="line"/>
      <point x="512" y="201"/>
      <point x="567" y="255"/>
      <point x="567" y="359" type="curve" smooth="yes"/>
      <point x="567" y="471"/>
      <point x="472" y="563"/>
      <point x="315" y="563" type="curve" smooth="yes"/>
      <point x="168" y="563"/>
      <point x="59" y="484"/>
      <point x="59" y="357" type="curve" smooth="yes"/>
      <point x="59" y="327"/>
      <point x="64" y="312"/>
      <point x="71" y="291" type="curve"/>
      <point x="257" y="291" type="line"/>
      <point x="252" y="309"/>
      <point x="250" y="321"/>
      <point x="250" y="342" type="curve" smooth="yes"/>
      <point x="250" y="390"/>
      <point x="272" y="421"/>
      <point x="313" y="421" type="curve" smooth="yes"/>
      <point x="354" y="421"/>
      <point x="375" y="390"/>
      <point x="375" y="335" type="curve" smooth="yes"/>
      <point x="375" y="284"/>
      <point x="359" y="244"/>
      <point x="305" y="244" type="curve" smooth="yes"/>
      <point x="267" y="244" type="line"/>
      <point x="267" y="103" type="line"/>
      <point x="305" y="103" type="line" smooth="yes"/>
      <point x="354" y="103"/>
      <point x="392" y="74"/>
      <point x="392" y="0" type="curve" smooth="yes"/>
      <point x="392" y="-58"/>
      <point x="373" y="-108"/>
      <point x="312" y="-108" type="curve" smooth="yes"/>
      <point x="251" y="-108"/>
      <point x="228" y="-56"/>
      <point x="228" y="-5" type="curve" smooth="yes"/>
      <point x="228" y="15"/>
      <point x="231" y="37"/>
      <point x="235" y="58" type="curve"/>
      <point x="51" y="58" type="line"/>
      <point x="43" y="32"/>
      <point x="37" y="5"/>
      <point x="37" y="-30" type="curve" smooth="yes"/>
      <point x="37" y="-151"/>
      <point x="134" y="-250"/>
    </contour>
  </outline>
</glyph>
<glyph name="zen-georgian" format="2">
  <advance width="672"/>
  <unicode hex="10D6"/>
  <note>
uni10D6
</note>
  <outline>
    <contour>
      <point x="363" y="-10" type="curve" smooth="yes"/>
      <point x="530" y="-10"/>
      <point x="630" y="93"/>
      <point x="630" y="263" type="curve" smooth="yes"/>
      <point x="630" y="385"/>
      <point x="560" y="479"/>
      <point x="465" y="503" type="curve" smooth="yes"/>
      <point x="457" y="505"/>
      <point x="452" y="506"/>
      <point x="444" y="507" type="curve"/>
      <point x="444" y="511" type="line"/>
      <point x="459" y="534"/>
      <point x="468" y="567"/>
      <point x="468" y="597" type="curve" smooth="yes"/>
      <point x="468" y="687"/>
      <point x="387" y="770"/>
      <point x="242" y="770" type="curve" smooth="yes"/>
      <point x="89" y="770"/>
      <point x="15" y="679"/>
      <point x="15" y="584" type="curve" smooth="yes"/>
      <point x="15" y="497"/>
      <point x="60" y="434"/>
      <point x="148" y="407" type="curve"/>
      <point x="148" y="403" type="line"/>
      <point x="116" y="367"/>
      <point x="98" y="308"/>
      <point x="98" y="253" type="curve" smooth="yes"/>
      <point x="98" y="93"/>
      <point x="208" y="-10"/>
    </contour>
    <contour>
      <point x="365" y="132" type="curve" smooth="yes"/>
      <point x="310" y="132"/>
      <point x="292" y="183"/>
      <point x="292" y="263" type="curve" smooth="yes"/>
      <point x="292" y="342"/>
      <point x="311" y="391"/>
      <point x="364" y="391" type="curve" smooth="yes"/>
      <point x="419" y="391"/>
      <point x="436" y="342"/>
      <point x="436" y="263" type="curve" smooth="yes"/>
      <point x="436" y="183"/>
      <point x="419" y="132"/>
    </contour>
    <contour>
      <point x="242" y="500" type="curve" smooth="yes"/>
      <point x="202" y="500"/>
      <point x="187" y="535"/>
      <point x="187" y="575" type="curve" smooth="yes"/>
      <point x="187" y="614"/>
      <point x="202" y="646"/>
      <point x="241" y="646" type="curve" smooth="yes"/>
      <point x="282" y="646"/>
      <point x="295" y="614"/>
      <point x="295" y="575" type="curve" smooth="yes"/>
      <point x="295" y="535"/>
      <point x="282" y="500"/>
    </contour>
  </outline>
</glyph>
<glyph name="tan-georgian" format="2">
  <advance width="935"/>
  <unicode hex="10D7"/>
  <note>
uni10D7
</note>
  <outline>
    <contour>
      <point x="307" y="-10" type="curve" smooth="yes"/>
      <point x="474" y="-10"/>
      <point x="574" y="93"/>
      <point x="574" y="270" type="curve" smooth="yes"/>
      <point x="574" y="296" type="line" smooth="yes"/>
      <point x="574" y="376"/>
      <point x="588" y="421"/>
      <point x="640" y="421" type="curve" smooth="yes"/>
      <point x="689" y="421"/>
      <point x="701" y="350"/>
      <point x="701" y="279" type="curve" smooth="yes"/>
      <point x="701" y="186"/>
      <point x="682" y="84"/>
      <point x="640" y="0" type="curve"/>
      <point x="825" y="0" type="line"/>
      <point x="871" y="86"/>
      <point x="893" y="175"/>
      <point x="893" y="284" type="curve" smooth="yes"/>
      <point x="893" y="445"/>
      <point x="808" y="563"/>
      <point x="663" y="563" type="curve" smooth="yes"/>
      <point x="577" y="563"/>
      <point x="521" y="526"/>
      <point x="490" y="462" type="curve"/>
      <point x="485" y="462" type="line"/>
      <point x="457" y="526"/>
      <point x="386" y="563"/>
      <point x="301" y="563" type="curve" smooth="yes"/>
      <point x="147" y="563"/>
      <point x="42" y="461"/>
      <point x="42" y="278" type="curve" smooth="yes"/>
      <point x="42" y="93"/>
      <point x="151" y="-10"/>
    </contour>
    <contour>
      <point x="309" y="132" type="curve" smooth="yes"/>
      <point x="253" y="132"/>
      <point x="236" y="183"/>
      <point x="236" y="278" type="curve" smooth="yes"/>
      <point x="236" y="372"/>
      <point x="255" y="421"/>
      <point x="308" y="421" type="curve" smooth="yes"/>
      <point x="363" y="421"/>
      <point x="380" y="372"/>
      <point x="380" y="278" type="curve" smooth="yes"/>
      <point x="380" y="183"/>
      <point x="363" y="132"/>
    </contour>
  </outline>
</glyph>
<glyph name="in-georgian" format="2">
  <advance width="624"/>
  <unicode hex="10D8"/>
  <note>
uni10D8
</note>
  <anchor x="312" y="553" name="top"/>
  <outline>
    <contour>
      <point x="97" y="0" type="curve"/>
      <point x="278" y="0" type="line"/>
      <point x="249" y="84"/>
      <point x="234" y="182"/>
      <point x="234" y="266" type="curve" smooth="yes"/>
      <point x="234" y="381"/>
      <point x="262" y="421"/>
      <point x="312" y="421" type="curve" smooth="yes"/>
      <point x="362" y="421"/>
      <point x="390" y="377"/>
      <point x="390" y="269" type="curve" smooth="yes"/>
      <point x="390" y="186"/>
      <point x="375" y="84"/>
      <point x="346" y="0" type="curve"/>
      <point x="527" y="0" type="line"/>
      <point x="564" y="88"/>
      <point x="582" y="165"/>
      <point x="582" y="274" type="curve" smooth="yes"/>
      <point x="582" y="445"/>
      <point x="492" y="563"/>
      <point x="312" y="563" type="curve" smooth="yes"/>
      <point x="127" y="563"/>
      <point x="42" y="445"/>
      <point x="42" y="274" type="curve" smooth="yes"/>
      <point x="42" y="165"/>
      <point x="61" y="88"/>
    </contour>
  </outline>
</glyph>
<glyph name="kan-georgian" format="2">
  <advance width="608"/>
  <unicode hex="10D9"/>
  <note>
uni10D9
</note>
  <outline>
    <contour>
      <point x="300" y="-250" type="curve" smooth="yes"/>
      <point x="470" y="-250"/>
      <point x="571" y="-150"/>
      <point x="571" y="-3" type="curve" smooth="yes"/>
      <point x="571" y="118"/>
      <point x="497" y="181"/>
      <point x="410" y="197" type="curve"/>
      <point x="410" y="200" type="line"/>
      <point x="497" y="221"/>
      <point x="552" y="275"/>
      <point x="552" y="371" type="curve" smooth="yes"/>
      <point x="552" y="481"/>
      <point x="457" y="563"/>
      <point x="290" y="563" type="curve"/>
      <point x="290" y="421" type="line"/>
      <point x="338" y="421"/>
      <point x="360" y="386"/>
      <point x="360" y="345" type="curve" smooth="yes"/>
      <point x="360" y="304"/>
      <point x="344" y="264"/>
      <point x="288" y="264" type="curve" smooth="yes"/>
      <point x="252" y="264" type="line"/>
      <point x="252" y="123" type="line"/>
      <point x="293" y="123" type="line" smooth="yes"/>
      <point x="345" y="123"/>
      <point x="377" y="86"/>
      <point x="377" y="10" type="curve" smooth="yes"/>
      <point x="377" y="-58"/>
      <point x="358" y="-108"/>
      <point x="301" y="-108" type="curve" smooth="yes"/>
      <point x="246" y="-108"/>
      <point x="223" y="-56"/>
      <point x="223" y="-5" type="curve" smooth="yes"/>
      <point x="223" y="15"/>
      <point x="226" y="37"/>
      <point x="230" y="58" type="curve"/>
      <point x="46" y="58" type="line"/>
      <point x="38" y="32"/>
      <point x="32" y="5"/>
      <point x="32" y="-30" type="curve" smooth="yes"/>
      <point x="32" y="-151"/>
      <point x="129" y="-250"/>
    </contour>
  </outline>
</glyph>
<glyph name="las-georgian" format="2">
  <advance width="1180"/>
  <unicode hex="10DA"/>
  <note>
uni10DA
</note>
  <outline>
    <contour>
      <point x="673" y="-250" type="curve"/>
      <point x="810" y="-184" type="line"/>
      <point x="764" y="-90"/>
      <point x="668" y="-26"/>
      <point x="504" y="14" type="curve" smooth="yes"/>
      <point x="323" y="58"/>
      <point x="234" y="146"/>
      <point x="234" y="286" type="curve" smooth="yes"/>
      <point x="234" y="383"/>
      <point x="257" y="421"/>
      <point x="294" y="421" type="curve" smooth="yes"/>
      <point x="334" y="421"/>
      <point x="351" y="379"/>
      <point x="351" y="296" type="curve" smooth="yes"/>
      <point x="351" y="162" type="line"/>
      <point x="533" y="162" type="line"/>
      <point x="533" y="311" type="line" smooth="yes"/>
      <point x="533" y="376"/>
      <point x="547" y="421"/>
      <point x="590" y="421" type="curve" smooth="yes"/>
      <point x="633" y="421"/>
      <point x="647" y="376"/>
      <point x="647" y="311" type="curve" smooth="yes"/>
      <point x="647" y="162" type="line"/>
      <point x="829" y="162" type="line"/>
      <point x="829" y="296" type="line" smooth="yes"/>
      <point x="829" y="379"/>
      <point x="846" y="421"/>
      <point x="886" y="421" type="curve" smooth="yes"/>
      <point x="923" y="421"/>
      <point x="946" y="383"/>
      <point x="946" y="278" type="curve" smooth="yes"/>
      <point x="946" y="212"/>
      <point x="934" y="143"/>
      <point x="906" y="77" type="curve"/>
      <point x="1069" y="18" type="line"/>
      <point x="1118" y="108"/>
      <point x="1138" y="182"/>
      <point x="1138" y="284" type="curve" smooth="yes"/>
      <point x="1138" y="445"/>
      <point x="1053" y="563"/>
      <point x="906" y="563" type="curve" smooth="yes"/>
      <point x="822" y="563"/>
      <point x="766" y="517"/>
      <point x="741" y="445" type="curve"/>
      <point x="735" y="445" type="line"/>
      <point x="715" y="519"/>
      <point x="655" y="563"/>
      <point x="590" y="563" type="curve" smooth="yes"/>
      <point x="515" y="563"/>
      <point x="466" y="519"/>
      <point x="445" y="445" type="curve"/>
      <point x="439" y="445" type="line"/>
      <point x="414" y="517"/>
      <point x="358" y="563"/>
      <point x="269" y="563" type="curve" smooth="yes"/>
      <point x="127" y="563"/>
      <point x="42" y="444"/>
      <point x="42" y="293" type="curve" smooth="yes"/>
      <point x="42" y="137"/>
      <point x="132" y="26"/>
      <point x="278" y="-19" type="curve"/>
      <point x="278" y="-23" type="line"/>
      <point x="232" y="-29"/>
      <point x="188" y="-47"/>
      <point x="164" y="-66" type="curve"/>
      <point x="224" y="-181" type="line"/>
      <point x="266" y="-156"/>
      <point x="326" y="-128"/>
      <point x="417" y="-128" type="curve" smooth="yes"/>
      <point x="487" y="-128"/>
      <point x="617" y="-153"/>
    </contour>
  </outline>
</glyph>
<glyph name="man-georgian" format="2">
  <advance width="632"/>
  <unicode hex="10DB"/>
  <note>
uni10DB
</note>
  <outline>
    <contour>
      <point x="316" y="-10" type="curve" smooth="yes"/>
      <point x="482" y="-10"/>
      <point x="577" y="95"/>
      <point x="577" y="261" type="curve" smooth="yes"/>
      <point x="577" y="547" type="line" smooth="yes"/>
      <point x="577" y="677"/>
      <point x="478" y="770"/>
      <point x="323" y="770" type="curve" smooth="yes"/>
      <point x="184" y="770"/>
      <point x="75" y="711"/>
      <point x="75" y="604" type="curve" smooth="yes"/>
      <point x="75" y="593"/>
      <point x="77" y="580"/>
      <point x="81" y="567" type="curve"/>
      <point x="268" y="567" type="line"/>
      <point x="267" y="572"/>
      <point x="266" y="578"/>
      <point x="266" y="584" type="curve" smooth="yes"/>
      <point x="266" y="613"/>
      <point x="285" y="638"/>
      <point x="323" y="638" type="curve" smooth="yes"/>
      <point x="364" y="638"/>
      <point x="385" y="614"/>
      <point x="385" y="565" type="curve" smooth="yes"/>
      <point x="385" y="536" type="line" smooth="yes"/>
      <point x="385" y="499"/>
      <point x="389" y="480"/>
      <point x="394" y="452" type="curve"/>
      <point x="390" y="452" type="line"/>
      <point x="361" y="498"/>
      <point x="319" y="523"/>
      <point x="245" y="523" type="curve" smooth="yes"/>
      <point x="125" y="523"/>
      <point x="42" y="435"/>
      <point x="42" y="261" type="curve" smooth="yes"/>
      <point x="42" y="95"/>
      <point x="142" y="-10"/>
    </contour>
    <contour>
      <point x="317" y="132" type="curve" smooth="yes"/>
      <point x="253" y="132"/>
      <point x="235" y="188"/>
      <point x="235" y="257" type="curve" smooth="yes"/>
      <point x="235" y="336"/>
      <point x="268" y="379"/>
      <point x="314" y="379" type="curve" smooth="yes"/>
      <point x="381" y="379"/>
      <point x="401" y="331"/>
      <point x="401" y="269" type="curve" smooth="yes"/>
      <point x="401" y="247" type="line" smooth="yes"/>
      <point x="401" y="176"/>
      <point x="370" y="132"/>
    </contour>
  </outline>
</glyph>
<glyph name="nar-georgian" format="2">
  <advance width="632"/>
  <unicode hex="10DC"/>
  <note>
uni10DC
</note>
  <outline>
    <contour>
      <point x="316" y="-10" type="curve" smooth="yes"/>
      <point x="490" y="-10"/>
      <point x="590" y="95"/>
      <point x="590" y="276" type="curve" smooth="yes"/>
      <point x="590" y="455"/>
      <point x="507" y="543"/>
      <point x="387" y="543" type="curve" smooth="yes"/>
      <point x="313" y="543"/>
      <point x="271" y="518"/>
      <point x="242" y="472" type="curve"/>
      <point x="238" y="472" type="line"/>
      <point x="243" y="500"/>
      <point x="247" y="535"/>
      <point x="247" y="559" type="curve" smooth="yes"/>
      <point x="247" y="573" type="line" smooth="yes"/>
      <point x="247" y="604"/>
      <point x="264" y="618"/>
      <point x="296" y="618" type="curve" smooth="yes"/>
      <point x="541" y="618" type="line"/>
      <point x="541" y="760" type="line"/>
      <point x="273" y="760" type="line" smooth="yes"/>
      <point x="162" y="760"/>
      <point x="55" y="706"/>
      <point x="55" y="545" type="curve" smooth="yes"/>
      <point x="55" y="272" type="line" smooth="yes"/>
      <point x="55" y="93"/>
      <point x="148" y="-10"/>
    </contour>
    <contour>
      <point x="315" y="132" type="curve" smooth="yes"/>
      <point x="262" y="132"/>
      <point x="231" y="176"/>
      <point x="231" y="262" type="curve" smooth="yes"/>
      <point x="231" y="279" type="line" smooth="yes"/>
      <point x="231" y="351"/>
      <point x="251" y="399"/>
      <point x="318" y="399" type="curve" smooth="yes"/>
      <point x="364" y="399"/>
      <point x="397" y="356"/>
      <point x="397" y="272" type="curve" smooth="yes"/>
      <point x="397" y="188"/>
      <point x="379" y="132"/>
    </contour>
  </outline>
</glyph>
<glyph name="on-georgian" format="2">
  <advance width="894"/>
  <unicode hex="10DD"/>
  <note>
uni10DD
</note>
  <anchor x="447" y="553" name="top"/>
  <outline>
    <contour>
      <point x="110" y="0" type="curve"/>
      <point x="295" y="0" type="line"/>
      <point x="253" y="84"/>
      <point x="234" y="182"/>
      <point x="234" y="276" type="curve" smooth="yes"/>
      <point x="234" y="383"/>
      <point x="257" y="421"/>
      <point x="299" y="421" type="curve" smooth="yes"/>
      <point x="339" y="421"/>
      <point x="356" y="379"/>
      <point x="356" y="296" type="curve" smooth="yes"/>
      <point x="356" y="162" type="line"/>
      <point x="538" y="162" type="line"/>
      <point x="538" y="296" type="line" smooth="yes"/>
      <point x="538" y="376"/>
      <point x="552" y="421"/>
      <point x="595" y="421" type="curve" smooth="yes"/>
      <point x="648" y="421"/>
      <point x="660" y="350"/>
      <point x="660" y="279" type="curve" smooth="yes"/>
      <point x="660" y="186"/>
      <point x="641" y="84"/>
      <point x="599" y="0" type="curve"/>
      <point x="784" y="0" type="line"/>
      <point x="831" y="98"/>
      <point x="852" y="175"/>
      <point x="852" y="284" type="curve" smooth="yes"/>
      <point x="852" y="445"/>
      <point x="767" y="563"/>
      <point x="617" y="563" type="curve" smooth="yes"/>
      <point x="530" y="563"/>
      <point x="476" y="519"/>
      <point x="450" y="445" type="curve"/>
      <point x="444" y="445" type="line"/>
      <point x="419" y="517"/>
      <point x="363" y="563"/>
      <point x="274" y="563" type="curve" smooth="yes"/>
      <point x="127" y="563"/>
      <point x="42" y="445"/>
      <point x="42" y="284" type="curve" smooth="yes"/>
      <point x="42" y="175"/>
      <point x="64" y="98"/>
    </contour>
  </outline>
</glyph>
<glyph name="par-georgian" format="2">
  <advance width="618"/>
  <unicode hex="10DE"/>
  <note>
uni10DE
</note>
  <outline>
    <contour>
      <point x="304" y="-10" type="curve" smooth="yes"/>
      <point x="475" y="-10"/>
      <point x="576" y="90"/>
      <point x="576" y="227" type="curve" smooth="yes"/>
      <point x="576" y="338"/>
      <point x="498" y="401"/>
      <point x="421" y="417" type="curve"/>
      <point x="421" y="420" type="line"/>
      <point x="498" y="434"/>
      <point x="553" y="475"/>
      <point x="553" y="549" type="curve" smooth="yes"/>
      <point x="553" y="629"/>
      <point x="505" y="661"/>
      <point x="463" y="687" type="curve" smooth="yes"/>
      <point x="427" y="709"/>
      <point x="398" y="726"/>
      <point x="394" y="760" type="curve"/>
      <point x="203" y="758" type="line"/>
      <point x="203" y="661"/>
      <point x="249" y="628"/>
      <point x="290" y="603" type="curve" smooth="yes"/>
      <point x="323" y="583"/>
      <point x="354" y="565"/>
      <point x="354" y="530" type="curve" smooth="yes"/>
      <point x="354" y="502"/>
      <point x="339" y="484"/>
      <point x="294" y="484" type="curve"/>
      <point x="257" y="484" type="line"/>
      <point x="257" y="343" type="line"/>
      <point x="294" y="343" type="line" smooth="yes"/>
      <point x="344" y="343"/>
      <point x="382" y="314"/>
      <point x="382" y="240" type="curve" smooth="yes"/>
      <point x="382" y="182"/>
      <point x="363" y="132"/>
      <point x="305" y="132" type="curve" smooth="yes"/>
      <point x="252" y="132"/>
      <point x="228" y="171"/>
      <point x="228" y="226" type="curve" smooth="yes"/>
      <point x="228" y="246"/>
      <point x="231" y="267"/>
      <point x="236" y="289" type="curve"/>
      <point x="54" y="289" type="line"/>
      <point x="44" y="264"/>
      <point x="37" y="242"/>
      <point x="37" y="206" type="curve" smooth="yes"/>
      <point x="37" y="69"/>
      <point x="146" y="-10"/>
    </contour>
  </outline>
</glyph>
<glyph name="zhar-georgian" format="2">
  <advance width="664"/>
  <unicode hex="10DF"/>
  <note>
uni10DF
</note>
  <outline>
    <contour>
      <point x="338" y="-250" type="curve" smooth="yes"/>
      <point x="510" y="-250"/>
      <point x="604" y="-150"/>
      <point x="604" y="16" type="curve" smooth="yes"/>
      <point x="604" y="553" type="line"/>
      <point x="445" y="553" type="line"/>
      <point x="376" y="521"/>
      <point x="284" y="499"/>
      <point x="192" y="494" type="curve"/>
      <point x="192" y="366" type="line"/>
      <point x="220" y="365"/>
      <point x="230" y="342"/>
      <point x="230" y="321" type="curve" smooth="yes"/>
      <point x="230" y="297"/>
      <point x="220" y="278"/>
      <point x="198" y="278" type="curve" smooth="yes"/>
      <point x="177" y="278"/>
      <point x="166" y="293"/>
      <point x="166" y="315" type="curve" smooth="yes"/>
      <point x="166" y="320"/>
      <point x="167" y="325"/>
      <point x="168" y="331" type="curve"/>
      <point x="37" y="331" type="line"/>
      <point x="34" y="320"/>
      <point x="32" y="308"/>
      <point x="32" y="294" type="curve" smooth="yes"/>
      <point x="32" y="214"/>
      <point x="100" y="158"/>
      <point x="200" y="158" type="curve" smooth="yes"/>
      <point x="304" y="158"/>
      <point x="365" y="222"/>
      <point x="365" y="296" type="curve" smooth="yes"/>
      <point x="365" y="337"/>
      <point x="349" y="377"/>
      <point x="319" y="393" type="curve"/>
      <point x="319" y="397" type="line"/>
      <point x="356" y="402"/>
      <point x="386" y="409"/>
      <point x="413" y="420" type="curve"/>
      <point x="413" y="12" type="line" smooth="yes"/>
      <point x="413" y="-63"/>
      <point x="398" y="-108"/>
      <point x="339" y="-108" type="curve" smooth="yes"/>
      <point x="284" y="-108"/>
      <point x="263" y="-56"/>
      <point x="263" y="-9" type="curve"/>
      <point x="263" y="20"/>
      <point x="265" y="33"/>
      <point x="272" y="65" type="curve"/>
      <point x="93" y="65" type="line"/>
      <point x="79" y="37"/>
      <point x="72" y="14"/>
      <point x="72" y="-33" type="curve" smooth="yes"/>
      <point x="72" y="-145"/>
      <point x="170" y="-250"/>
    </contour>
  </outline>
</glyph>
<glyph name="rae-georgian" format="2">
  <advance width="894"/>
  <unicode hex="10E0"/>
  <note>
uni10E0
</note>
  <outline>
    <contour>
      <point x="110" y="0" type="curve"/>
      <point x="295" y="0" type="line"/>
      <point x="253" y="84"/>
      <point x="234" y="172"/>
      <point x="234" y="266" type="curve" smooth="yes"/>
      <point x="234" y="363"/>
      <point x="257" y="401"/>
      <point x="299" y="401" type="curve" smooth="yes"/>
      <point x="339" y="401"/>
      <point x="356" y="359"/>
      <point x="356" y="286" type="curve" smooth="yes"/>
      <point x="356" y="172" type="line"/>
      <point x="538" y="172" type="line"/>
      <point x="538" y="286" type="line" smooth="yes"/>
      <point x="538" y="356"/>
      <point x="552" y="401"/>
      <point x="595" y="401" type="curve" smooth="yes"/>
      <point x="648" y="401"/>
      <point x="660" y="330"/>
      <point x="660" y="269" type="curve" smooth="yes"/>
      <point x="660" y="176"/>
      <point x="641" y="84"/>
      <point x="599" y="0" type="curve"/>
      <point x="784" y="0" type="line"/>
      <point x="831" y="98"/>
      <point x="852" y="165"/>
      <point x="852" y="274" type="curve" smooth="yes"/>
      <point x="852" y="425"/>
      <point x="767" y="543"/>
      <point x="617" y="543" type="curve" smooth="yes"/>
      <point x="530" y="543"/>
      <point x="476" y="499"/>
      <point x="450" y="425" type="curve"/>
      <point x="444" y="425" type="line"/>
      <point x="419" y="497"/>
      <point x="363" y="543"/>
      <point x="293" y="543" type="curve" smooth="yes"/>
      <point x="257" y="543"/>
      <point x="219" y="534"/>
      <point x="194" y="505" type="curve"/>
      <point x="190" y="505" type="line"/>
      <point x="216" y="560"/>
      <point x="315" y="579"/>
      <point x="394" y="589" type="curve" smooth="yes"/>
      <point x="454" y="597"/>
      <point x="541" y="606"/>
      <point x="638" y="618" type="curve"/>
      <point x="620" y="770" type="line"/>
      <point x="528" y="763"/>
      <point x="445" y="752"/>
      <point x="386" y="743" type="curve" smooth="yes"/>
      <point x="124" y="703"/>
      <point x="42" y="569"/>
      <point x="42" y="324" type="curve" smooth="yes"/>
      <point x="42" y="284" type="line" smooth="yes"/>
      <point x="42" y="184"/>
      <point x="64" y="98"/>
    </contour>
  </outline>
</glyph>
<glyph name="san-georgian" format="2">
  <advance width="648"/>
  <unicode hex="10E1"/>
  <note>
uni10E1
</note>
  <outline>
    <contour>
      <point x="331" y="-10" type="curve" smooth="yes"/>
      <point x="505" y="-10"/>
      <point x="606" y="95"/>
      <point x="606" y="256" type="curve" smooth="yes"/>
      <point x="606" y="324"/>
      <point x="594" y="368"/>
      <point x="567" y="413" type="curve" smooth="yes"/>
      <point x="542" y="455"/>
      <point x="521" y="493"/>
      <point x="520" y="553" type="curve"/>
      <point x="329" y="553" type="line"/>
      <point x="329" y="467"/>
      <point x="357" y="410"/>
      <point x="384" y="364" type="curve" smooth="yes"/>
      <point x="401" y="335"/>
      <point x="412" y="302"/>
      <point x="412" y="244" type="curve" smooth="yes"/>
      <point x="412" y="180"/>
      <point x="386" y="132"/>
      <point x="330" y="132" type="curve" smooth="yes"/>
      <point x="277" y="132"/>
      <point x="246" y="176"/>
      <point x="246" y="262" type="curve" smooth="yes"/>
      <point x="246" y="760" type="line"/>
      <point x="55" y="760" type="line"/>
      <point x="55" y="272" type="line" smooth="yes"/>
      <point x="55" y="93"/>
      <point x="148" y="-10"/>
    </contour>
  </outline>
</glyph>
<glyph name="tar-georgian" format="2">
  <advance width="791"/>
  <unicode hex="10E2"/>
  <note>
uni10E2
</note>
  <outline>
    <contour>
      <point x="395" y="-250" type="curve" smooth="yes"/>
      <point x="625" y="-250"/>
      <point x="749" y="-103"/>
      <point x="749" y="168" type="curve" smooth="yes"/>
      <point x="749" y="382"/>
      <point x="658" y="521"/>
      <point x="473" y="556" type="curve"/>
      <point x="478" y="580"/>
      <point x="483" y="605"/>
      <point x="483" y="631" type="curve"/>
      <point x="483" y="679" type="line"/>
      <point x="304" y="679" type="line"/>
      <point x="304" y="631" type="line"/>
      <point x="304" y="606"/>
      <point x="309" y="580"/>
      <point x="314" y="555" type="curve"/>
      <point x="134" y="518"/>
      <point x="42" y="381"/>
      <point x="42" y="169" type="curve" smooth="yes"/>
      <point x="42" y="-104"/>
      <point x="170" y="-250"/>
    </contour>
    <contour>
      <point x="395" y="-108" type="curve" smooth="yes"/>
      <point x="293" y="-108"/>
      <point x="235" y="-30"/>
      <point x="235" y="168" type="curve" smooth="yes"/>
      <point x="235" y="309"/>
      <point x="265" y="392"/>
      <point x="314" y="414" type="curve"/>
      <point x="309" y="389"/>
      <point x="304" y="364"/>
      <point x="304" y="309" type="curve"/>
      <point x="304" y="162" type="line"/>
      <point x="483" y="162" type="line"/>
      <point x="483" y="309" type="line"/>
      <point x="483" y="365"/>
      <point x="478" y="392"/>
      <point x="473" y="418" type="curve"/>
      <point x="524" y="392"/>
      <point x="555" y="313"/>
      <point x="555" y="168" type="curve" smooth="yes"/>
      <point x="555" y="-30"/>
      <point x="499" y="-108"/>
    </contour>
  </outline>
</glyph>
<glyph name="un-georgian" format="2">
  <advance width="661"/>
  <unicode hex="10E3"/>
  <note>
uni10E3
</note>
  <anchor x="317" y="553" name="top"/>
  <outline>
    <contour>
      <point x="330" y="-250" type="curve" smooth="yes"/>
      <point x="512" y="-250"/>
      <point x="606" y="-150"/>
      <point x="606" y="16" type="curve" smooth="yes"/>
      <point x="606" y="347" type="line" smooth="yes"/>
      <point x="606" y="478"/>
      <point x="532" y="563"/>
      <point x="397" y="563" type="curve" smooth="yes"/>
      <point x="324" y="563"/>
      <point x="265" y="525"/>
      <point x="240" y="465" type="curve"/>
      <point x="236" y="465" type="line"/>
      <point x="212" y="525"/>
      <point x="169" y="557"/>
      <point x="96" y="557" type="curve"/>
      <point x="29" y="557" type="line"/>
      <point x="29" y="408" type="line"/>
      <point x="88" y="408" type="line" smooth="yes"/>
      <point x="123" y="408"/>
      <point x="141" y="385"/>
      <point x="141" y="342" type="curve" smooth="yes"/>
      <point x="141" y="236" type="line"/>
      <point x="323" y="236" type="line"/>
      <point x="323" y="337" type="line" smooth="yes"/>
      <point x="323" y="392"/>
      <point x="344" y="413"/>
      <point x="370" y="413" type="curve" smooth="yes"/>
      <point x="396" y="413"/>
      <point x="415" y="392"/>
      <point x="415" y="335" type="curve" smooth="yes"/>
      <point x="415" y="18" type="line" smooth="yes"/>
      <point x="415" y="-56"/>
      <point x="395" y="-108"/>
      <point x="331" y="-108" type="curve" smooth="yes"/>
      <point x="266" y="-108"/>
      <point x="245" y="-56"/>
      <point x="245" y="11" type="curve" smooth="yes"/>
      <point x="245" y="40"/>
      <point x="249" y="73"/>
      <point x="256" y="105" type="curve"/>
      <point x="77" y="105" type="line"/>
      <point x="60" y="68"/>
      <point x="54" y="37"/>
      <point x="54" y="-3" type="curve" smooth="yes"/>
      <point x="54" y="-145"/>
      <point x="152" y="-250"/>
    </contour>
  </outline>
</glyph>
<glyph name="phar-georgian" format="2">
  <advance width="921"/>
  <unicode hex="10E4"/>
  <note>
uni10E4
</note>
  <outline>
    <contour>
      <point x="546" y="-250" type="curve" smooth="yes"/>
      <point x="762" y="-250"/>
      <point x="863" y="-150"/>
      <point x="863" y="-13" type="curve" smooth="yes"/>
      <point x="863" y="58"/>
      <point x="816" y="131"/>
      <point x="737" y="147" type="curve"/>
      <point x="737" y="150" type="line"/>
      <point x="824" y="171"/>
      <point x="879" y="225"/>
      <point x="879" y="350" type="curve" smooth="yes"/>
      <point x="879" y="455"/>
      <point x="794" y="563"/>
      <point x="649" y="563" type="curve" smooth="yes"/>
      <point x="563" y="563"/>
      <point x="507" y="526"/>
      <point x="476" y="462" type="curve"/>
      <point x="471" y="462" type="line"/>
      <point x="443" y="526"/>
      <point x="379" y="563"/>
      <point x="294" y="563" type="curve" smooth="yes"/>
      <point x="147" y="563"/>
      <point x="42" y="461"/>
      <point x="42" y="303" type="curve" smooth="yes"/>
      <point x="42" y="147"/>
      <point x="151" y="44"/>
      <point x="300" y="44" type="curve" smooth="yes"/>
      <point x="460" y="44"/>
      <point x="560" y="147"/>
      <point x="560" y="290" type="curve" smooth="yes"/>
      <point x="560" y="322" type="line" smooth="yes"/>
      <point x="560" y="382"/>
      <point x="576" y="421"/>
      <point x="622" y="421" type="curve" smooth="yes"/>
      <point x="673" y="421"/>
      <point x="687" y="370"/>
      <point x="687" y="315" type="curve" smooth="yes"/>
      <point x="687" y="262"/>
      <point x="675" y="214"/>
      <point x="616" y="214" type="curve" smooth="yes"/>
      <point x="591" y="214" type="line"/>
      <point x="591" y="73" type="line"/>
      <point x="605" y="73" type="line" smooth="yes"/>
      <point x="642" y="73"/>
      <point x="669" y="44"/>
      <point x="669" y="-7" type="curve" smooth="yes"/>
      <point x="669" y="-58"/>
      <point x="634" y="-108"/>
      <point x="547" y="-108" type="curve" smooth="yes"/>
      <point x="467" y="-108"/>
      <point x="411" y="-82"/>
      <point x="411" y="-29" type="curve" smooth="yes"/>
      <point x="411" y="-26"/>
      <point x="411" y="-22"/>
      <point x="412" y="-16" type="curve"/>
      <point x="228" y="-16" type="line"/>
      <point x="226" y="-29"/>
      <point x="224" y="-42"/>
      <point x="224" y="-55" type="curve" smooth="yes"/>
      <point x="224" y="-179"/>
      <point x="342" y="-250"/>
    </contour>
    <contour>
      <point x="302" y="186" type="curve" smooth="yes"/>
      <point x="246" y="186"/>
      <point x="229" y="237"/>
      <point x="229" y="303" type="curve" smooth="yes"/>
      <point x="229" y="372"/>
      <point x="248" y="421"/>
      <point x="301" y="421" type="curve" smooth="yes"/>
      <point x="356" y="421"/>
      <point x="373" y="372"/>
      <point x="373" y="303" type="curve" smooth="yes"/>
      <point x="373" y="237"/>
      <point x="356" y="186"/>
    </contour>
  </outline>
</glyph>
<glyph name="khar-georgian" format="2">
  <advance width="624"/>
  <unicode hex="10E5"/>
  <note>
uni10E5
</note>
  <outline>
    <contour>
      <point x="303" y="-250" type="curve" smooth="yes"/>
      <point x="475" y="-250"/>
      <point x="569" y="-150"/>
      <point x="569" y="16" type="curve" smooth="yes"/>
      <point x="569" y="760" type="line"/>
      <point x="377" y="760" type="line"/>
      <point x="377" y="612" type="line" smooth="yes"/>
      <point x="377" y="565"/>
      <point x="381" y="510"/>
      <point x="386" y="482" type="curve"/>
      <point x="382" y="482" type="line"/>
      <point x="353" y="528"/>
      <point x="316" y="563"/>
      <point x="229" y="563" type="curve" smooth="yes"/>
      <point x="145" y="563"/>
      <point x="58" y="484"/>
      <point x="58" y="357" type="curve" smooth="yes"/>
      <point x="58" y="304"/>
      <point x="64" y="282"/>
      <point x="76" y="250" type="curve"/>
      <point x="260" y="250" type="line"/>
      <point x="250" y="288"/>
      <point x="249" y="311"/>
      <point x="249" y="332" type="curve" smooth="yes"/>
      <point x="249" y="390"/>
      <point x="271" y="421"/>
      <point x="306" y="421" type="curve" smooth="yes"/>
      <point x="353" y="421"/>
      <point x="378" y="371"/>
      <point x="378" y="299" type="curve" smooth="yes"/>
      <point x="378" y="18" type="line" smooth="yes"/>
      <point x="378" y="-63"/>
      <point x="363" y="-108"/>
      <point x="304" y="-108" type="curve" smooth="yes"/>
      <point x="249" y="-108"/>
      <point x="228" y="-56"/>
      <point x="228" y="11" type="curve" smooth="yes"/>
      <point x="228" y="40"/>
      <point x="232" y="73"/>
      <point x="239" y="105" type="curve"/>
      <point x="60" y="105" type="line"/>
      <point x="43" y="68"/>
      <point x="37" y="37"/>
      <point x="37" y="-3" type="curve" smooth="yes"/>
      <point x="37" y="-145"/>
      <point x="135" y="-250"/>
    </contour>
  </outline>
</glyph>
<glyph name="ghan-georgian" format="2">
  <advance width="894"/>
  <unicode hex="10E6"/>
  <note>
uni10E6
</note>
  <outline>
    <contour>
      <point x="533" y="-250" type="curve"/>
      <point x="670" y="-184" type="line"/>
      <point x="632" y="-102"/>
      <point x="560" y="-43"/>
      <point x="427" y="5" type="curve" smooth="yes"/>
      <point x="302" y="50"/>
      <point x="234" y="134"/>
      <point x="234" y="280" type="curve" smooth="yes"/>
      <point x="234" y="384"/>
      <point x="258" y="421"/>
      <point x="299" y="421" type="curve" smooth="yes"/>
      <point x="339" y="421"/>
      <point x="356" y="385"/>
      <point x="356" y="302" type="curve" smooth="yes"/>
      <point x="356" y="162" type="line"/>
      <point x="538" y="162" type="line"/>
      <point x="538" y="302" type="line" smooth="yes"/>
      <point x="538" y="382"/>
      <point x="552" y="421"/>
      <point x="600" y="421" type="curve" smooth="yes"/>
      <point x="648" y="421"/>
      <point x="660" y="350"/>
      <point x="660" y="279" type="curve" smooth="yes"/>
      <point x="660" y="213"/>
      <point x="648" y="143"/>
      <point x="620" y="77" type="curve"/>
      <point x="783" y="18" type="line"/>
      <point x="832" y="108"/>
      <point x="852" y="182"/>
      <point x="852" y="284" type="curve" smooth="yes"/>
      <point x="852" y="445"/>
      <point x="767" y="563"/>
      <point x="622" y="563" type="curve" smooth="yes"/>
      <point x="530" y="563"/>
      <point x="476" y="519"/>
      <point x="450" y="445" type="curve"/>
      <point x="444" y="445" type="line"/>
      <point x="419" y="517"/>
      <point x="363" y="563"/>
      <point x="270" y="563" type="curve" smooth="yes"/>
      <point x="127" y="563"/>
      <point x="42" y="444"/>
      <point x="42" y="283" type="curve" smooth="yes"/>
      <point x="42" y="137"/>
      <point x="109" y="16"/>
      <point x="238" y="-39" type="curve"/>
      <point x="238" y="-43" type="line"/>
      <point x="184" y="-48"/>
      <point x="155" y="-61"/>
      <point x="131" y="-73" type="curve"/>
      <point x="186" y="-192" type="line"/>
      <point x="228" y="-167"/>
      <point x="286" y="-148"/>
      <point x="340" y="-148" type="curve" smooth="yes"/>
      <point x="401" y="-148"/>
      <point x="477" y="-173"/>
    </contour>
  </outline>
</glyph>
<glyph name="qar-georgian" format="2">
  <advance width="635"/>
  <unicode hex="10E7"/>
  <note>
uni10E7
</note>
  <outline>
    <contour>
      <point x="314" y="-250" type="curve" smooth="yes"/>
      <point x="486" y="-250"/>
      <point x="580" y="-150"/>
      <point x="580" y="16" type="curve" smooth="yes"/>
      <point x="580" y="553" type="line"/>
      <point x="389" y="553" type="line"/>
      <point x="389" y="432" type="line" smooth="yes"/>
      <point x="389" y="337"/>
      <point x="359" y="285"/>
      <point x="311" y="285" type="curve" smooth="yes"/>
      <point x="263" y="285"/>
      <point x="236" y="331"/>
      <point x="236" y="400" type="curve" smooth="yes"/>
      <point x="236" y="451"/>
      <point x="247" y="498"/>
      <point x="267" y="553" type="curve"/>
      <point x="83" y="553" type="line"/>
      <point x="58" y="501"/>
      <point x="42" y="435"/>
      <point x="42" y="373" type="curve" smooth="yes"/>
      <point x="42" y="224"/>
      <point x="129" y="134"/>
      <point x="243" y="134" type="curve" smooth="yes"/>
      <point x="320" y="134"/>
      <point x="363" y="172"/>
      <point x="390" y="215" type="curve"/>
      <point x="397" y="215" type="line"/>
      <point x="391" y="157"/>
      <point x="389" y="110"/>
      <point x="389" y="58" type="curve" smooth="yes"/>
      <point x="389" y="12" type="line" smooth="yes"/>
      <point x="389" y="-63"/>
      <point x="374" y="-108"/>
      <point x="315" y="-108" type="curve" smooth="yes"/>
      <point x="260" y="-108"/>
      <point x="239" y="-56"/>
      <point x="239" y="-9" type="curve" smooth="yes"/>
      <point x="239" y="20"/>
      <point x="241" y="33"/>
      <point x="248" y="65" type="curve"/>
      <point x="69" y="65" type="line"/>
      <point x="55" y="37"/>
      <point x="48" y="14"/>
      <point x="48" y="-33" type="curve" smooth="yes"/>
      <point x="48" y="-145"/>
      <point x="136" y="-250"/>
    </contour>
  </outline>
</glyph>
<glyph name="shin-georgian" format="2">
  <advance width="632"/>
  <unicode hex="10E8"/>
  <note>
uni10E8
</note>
  <outline>
    <contour>
      <point x="316" y="-10" type="curve" smooth="yes"/>
      <point x="482" y="-10"/>
      <point x="577" y="95"/>
      <point x="577" y="251" type="curve" smooth="yes"/>
      <point x="577" y="577" type="line" smooth="yes"/>
      <point x="577" y="707"/>
      <point x="488" y="770"/>
      <point x="393" y="770" type="curve" smooth="yes"/>
      <point x="313" y="770"/>
      <point x="263" y="737"/>
      <point x="242" y="687" type="curve"/>
      <point x="238" y="687" type="line"/>
      <point x="221" y="737"/>
      <point x="168" y="770"/>
      <point x="116" y="770" type="curve" smooth="yes"/>
      <point x="84" y="770"/>
      <point x="44" y="764"/>
      <point x="8" y="744" type="curve"/>
      <point x="49" y="615" type="line"/>
      <point x="64" y="621"/>
      <point x="80" y="625"/>
      <point x="94" y="625" type="curve" smooth="yes"/>
      <point x="120" y="625"/>
      <point x="141" y="612"/>
      <point x="141" y="574" type="curve" smooth="yes"/>
      <point x="141" y="553" type="line"/>
      <point x="326" y="553" type="line"/>
      <point x="326" y="591" type="line" smooth="yes"/>
      <point x="326" y="620"/>
      <point x="336" y="638"/>
      <point x="355" y="638" type="curve" smooth="yes"/>
      <point x="374" y="638"/>
      <point x="385" y="620"/>
      <point x="385" y="591" type="curve" smooth="yes"/>
      <point x="385" y="516" type="line" smooth="yes"/>
      <point x="385" y="479"/>
      <point x="389" y="460"/>
      <point x="394" y="432" type="curve"/>
      <point x="390" y="432" type="line"/>
      <point x="361" y="478"/>
      <point x="319" y="503"/>
      <point x="245" y="503" type="curve" smooth="yes"/>
      <point x="125" y="503"/>
      <point x="42" y="415"/>
      <point x="42" y="251" type="curve" smooth="yes"/>
      <point x="42" y="95"/>
      <point x="142" y="-10"/>
    </contour>
    <contour>
      <point x="317" y="132" type="curve" smooth="yes"/>
      <point x="253" y="132"/>
      <point x="235" y="188"/>
      <point x="235" y="247" type="curve" smooth="yes"/>
      <point x="235" y="316"/>
      <point x="268" y="359"/>
      <point x="314" y="359" type="curve" smooth="yes"/>
      <point x="381" y="359"/>
      <point x="401" y="311"/>
      <point x="401" y="259" type="curve" smooth="yes"/>
      <point x="401" y="237" type="line" smooth="yes"/>
      <point x="401" y="176"/>
      <point x="370" y="132"/>
    </contour>
  </outline>
</glyph>
<glyph name="chin-georgian" format="2">
  <advance width="634"/>
  <unicode hex="10E9"/>
  <note>
uni10E9
</note>
  <outline>
    <contour>
      <point x="55" y="0" type="line"/>
      <point x="246" y="0" type="line"/>
      <point x="246" y="239" type="line" smooth="yes"/>
      <point x="246" y="327"/>
      <point x="274" y="380"/>
      <point x="326" y="380" type="curve" smooth="yes"/>
      <point x="377" y="380"/>
      <point x="398" y="340"/>
      <point x="398" y="254" type="curve" smooth="yes"/>
      <point x="398" y="155"/>
      <point x="379" y="46"/>
      <point x="364" y="0" type="curve"/>
      <point x="550" y="0" type="line"/>
      <point x="573" y="74"/>
      <point x="592" y="164"/>
      <point x="592" y="285" type="curve" smooth="yes"/>
      <point x="592" y="397"/>
      <point x="552" y="468"/>
      <point x="474" y="497" type="curve"/>
      <point x="474" y="501" type="line"/>
      <point x="514" y="536"/>
      <point x="518" y="580"/>
      <point x="518" y="606" type="curve" smooth="yes"/>
      <point x="518" y="694"/>
      <point x="441" y="770"/>
      <point x="293" y="770" type="curve" smooth="yes"/>
      <point x="139" y="770"/>
      <point x="55" y="687"/>
      <point x="55" y="546" type="curve" smooth="yes"/>
    </contour>
    <contour>
      <point x="237" y="444" type="line"/>
      <point x="242" y="477"/>
      <point x="244" y="503"/>
      <point x="244" y="515" type="curve" smooth="yes"/>
      <point x="244" y="576" type="line" smooth="yes"/>
      <point x="244" y="620"/>
      <point x="262" y="638"/>
      <point x="292" y="638" type="curve" smooth="yes"/>
      <point x="322" y="638"/>
      <point x="338" y="620"/>
      <point x="338" y="581" type="curve" smooth="yes"/>
      <point x="338" y="543"/>
      <point x="326" y="521"/>
      <point x="295" y="496" type="curve" smooth="yes"/>
      <point x="276" y="481"/>
      <point x="260" y="465"/>
      <point x="245" y="444" type="curve"/>
    </contour>
  </outline>
</glyph>
<glyph name="can-georgian" format="2">
  <advance width="731"/>
  <unicode hex="10EA"/>
  <note>
uni10EA
</note>
  <outline>
    <contour>
      <point x="383" y="-250" type="curve" smooth="yes"/>
      <point x="558" y="-250"/>
      <point x="694" y="-168"/>
      <point x="694" y="-7" type="curve" smooth="yes"/>
      <point x="694" y="111"/>
      <point x="627" y="180"/>
      <point x="550" y="196" type="curve"/>
      <point x="550" y="199" type="line"/>
      <point x="627" y="213"/>
      <point x="682" y="258"/>
      <point x="682" y="332" type="curve" smooth="yes"/>
      <point x="682" y="392"/>
      <point x="660" y="428"/>
      <point x="631" y="457" type="curve" smooth="yes"/>
      <point x="598" y="489"/>
      <point x="576" y="514"/>
      <point x="569" y="553" type="curve"/>
      <point x="378" y="551" type="line"/>
      <point x="378" y="476"/>
      <point x="410" y="435"/>
      <point x="439" y="406" type="curve" smooth="yes"/>
      <point x="464" y="381"/>
      <point x="488" y="352"/>
      <point x="488" y="317" type="curve" smooth="yes"/>
      <point x="488" y="285"/>
      <point x="465" y="267"/>
      <point x="423" y="267" type="curve" smooth="yes"/>
      <point x="376" y="267" type="line"/>
      <point x="376" y="126" type="line"/>
      <point x="403" y="126" type="line" smooth="yes"/>
      <point x="463" y="126"/>
      <point x="500" y="77"/>
      <point x="500" y="14" type="curve" smooth="yes"/>
      <point x="500" y="-62"/>
      <point x="462" y="-108"/>
      <point x="383" y="-108" type="curve" smooth="yes"/>
      <point x="282" y="-108"/>
      <point x="236" y="-24"/>
      <point x="236" y="173" type="curve" smooth="yes"/>
      <point x="236" y="329"/>
      <point x="259" y="426"/>
      <point x="314" y="553" type="curve"/>
      <point x="125" y="553" type="line"/>
      <point x="66" y="436"/>
      <point x="42" y="315"/>
      <point x="42" y="174" type="curve" smooth="yes"/>
      <point x="42" y="-139"/>
      <point x="176" y="-250"/>
    </contour>
  </outline>
</glyph>
<glyph name="jil-georgian" format="2">
  <advance width="632"/>
  <unicode hex="10EB"/>
  <note>
uni10EB
</note>
  <outline>
    <contour>
      <point x="316" y="-10" type="curve" smooth="yes"/>
      <point x="484" y="-10"/>
      <point x="577" y="93"/>
      <point x="577" y="272" type="curve" smooth="yes"/>
      <point x="577" y="760" type="line"/>
      <point x="385" y="760" type="line"/>
      <point x="385" y="612" type="line" smooth="yes"/>
      <point x="385" y="565"/>
      <point x="389" y="510"/>
      <point x="394" y="482" type="curve"/>
      <point x="390" y="482" type="line"/>
      <point x="361" y="528"/>
      <point x="319" y="563"/>
      <point x="245" y="563" type="curve" smooth="yes"/>
      <point x="125" y="563"/>
      <point x="42" y="465"/>
      <point x="42" y="276" type="curve" smooth="yes"/>
      <point x="42" y="95"/>
      <point x="142" y="-10"/>
    </contour>
    <contour>
      <point x="317" y="132" type="curve" smooth="yes"/>
      <point x="253" y="132"/>
      <point x="235" y="188"/>
      <point x="235" y="272" type="curve" smooth="yes"/>
      <point x="235" y="366"/>
      <point x="268" y="409"/>
      <point x="314" y="409" type="curve" smooth="yes"/>
      <point x="381" y="409"/>
      <point x="401" y="361"/>
      <point x="401" y="279" type="curve" smooth="yes"/>
      <point x="401" y="262" type="line" smooth="yes"/>
      <point x="401" y="176"/>
      <point x="370" y="132"/>
    </contour>
  </outline>
</glyph>
<glyph name="cil-georgian" format="2">
  <advance width="632"/>
  <unicode hex="10EC"/>
  <note>
uni10EC
</note>
  <outline>
    <contour>
      <point x="316" y="-10" type="curve" smooth="yes"/>
      <point x="490" y="-10"/>
      <point x="590" y="95"/>
      <point x="590" y="251" type="curve" smooth="yes"/>
      <point x="590" y="415"/>
      <point x="507" y="503"/>
      <point x="387" y="503" type="curve" smooth="yes"/>
      <point x="313" y="503"/>
      <point x="271" y="478"/>
      <point x="242" y="432" type="curve"/>
      <point x="238" y="432" type="line"/>
      <point x="243" y="460"/>
      <point x="247" y="479"/>
      <point x="247" y="516" type="curve" smooth="yes"/>
      <point x="247" y="591" type="line" smooth="yes"/>
      <point x="247" y="620"/>
      <point x="258" y="638"/>
      <point x="277" y="638" type="curve" smooth="yes"/>
      <point x="296" y="638"/>
      <point x="306" y="620"/>
      <point x="306" y="591" type="curve" smooth="yes"/>
      <point x="306" y="553" type="line"/>
      <point x="491" y="553" type="line"/>
      <point x="491" y="574" type="line" smooth="yes"/>
      <point x="491" y="612"/>
      <point x="512" y="625"/>
      <point x="538" y="625" type="curve" smooth="yes"/>
      <point x="552" y="625"/>
      <point x="568" y="621"/>
      <point x="583" y="615" type="curve"/>
      <point x="624" y="744" type="line"/>
      <point x="588" y="764"/>
      <point x="548" y="770"/>
      <point x="516" y="770" type="curve" smooth="yes"/>
      <point x="464" y="770"/>
      <point x="411" y="737"/>
      <point x="394" y="687" type="curve"/>
      <point x="390" y="687" type="line"/>
      <point x="369" y="737"/>
      <point x="319" y="770"/>
      <point x="239" y="770" type="curve" smooth="yes"/>
      <point x="144" y="770"/>
      <point x="55" y="707"/>
      <point x="55" y="577" type="curve" smooth="yes"/>
      <point x="55" y="251" type="line" smooth="yes"/>
      <point x="55" y="95"/>
      <point x="150" y="-10"/>
    </contour>
    <contour>
      <point x="315" y="132" type="curve" smooth="yes"/>
      <point x="262" y="132"/>
      <point x="231" y="176"/>
      <point x="231" y="237" type="curve" smooth="yes"/>
      <point x="231" y="259" type="line" smooth="yes"/>
      <point x="231" y="311"/>
      <point x="251" y="359"/>
      <point x="318" y="359" type="curve" smooth="yes"/>
      <point x="364" y="359"/>
      <point x="397" y="316"/>
      <point x="397" y="247" type="curve" smooth="yes"/>
      <point x="397" y="188"/>
      <point x="379" y="132"/>
    </contour>
  </outline>
</glyph>
<glyph name="char-georgian" format="2">
  <advance width="659"/>
  <unicode hex="10ED"/>
  <note>
uni10ED
</note>
  <outline>
    <contour>
      <point x="340" y="-250" type="curve" smooth="yes"/>
      <point x="508" y="-250"/>
      <point x="617" y="-150"/>
      <point x="617" y="10" type="curve" smooth="yes"/>
      <point x="617" y="87"/>
      <point x="594" y="141"/>
      <point x="567" y="187" type="curve" smooth="yes"/>
      <point x="531" y="248"/>
      <point x="496" y="308"/>
      <point x="496" y="392" type="curve" smooth="yes"/>
      <point x="496" y="411" type="line"/>
      <point x="607" y="411" type="line"/>
      <point x="607" y="553" type="line"/>
      <point x="496" y="553" type="line"/>
      <point x="496" y="760" type="line"/>
      <point x="306" y="760" type="line"/>
      <point x="306" y="553" type="line"/>
      <point x="237" y="553" type="line" smooth="yes"/>
      <point x="98" y="553"/>
      <point x="37" y="464"/>
      <point x="37" y="369" type="curve" smooth="yes"/>
      <point x="37" y="257"/>
      <point x="124" y="188"/>
      <point x="208" y="188" type="curve" smooth="yes"/>
      <point x="274" y="188"/>
      <point x="310" y="209"/>
      <point x="337" y="240" type="curve"/>
      <point x="341" y="240" type="line"/>
      <point x="351" y="202"/>
      <point x="362" y="173"/>
      <point x="388" y="126" type="curve" smooth="yes"/>
      <point x="409" y="89"/>
      <point x="423" y="45"/>
      <point x="423" y="0" type="curve" smooth="yes"/>
      <point x="423" y="-62"/>
      <point x="396" y="-108"/>
      <point x="341" y="-108" type="curve" smooth="yes"/>
      <point x="282" y="-108"/>
      <point x="261" y="-56"/>
      <point x="261" y="1" type="curve" smooth="yes"/>
      <point x="261" y="30"/>
      <point x="265" y="63"/>
      <point x="272" y="95" type="curve"/>
      <point x="93" y="95" type="line"/>
      <point x="76" y="58"/>
      <point x="70" y="27"/>
      <point x="70" y="-13" type="curve" smooth="yes"/>
      <point x="70" y="-145"/>
      <point x="168" y="-250"/>
    </contour>
    <contour>
      <point x="259" y="321" type="curve" smooth="yes"/>
      <point x="228" y="321"/>
      <point x="212" y="341"/>
      <point x="212" y="368" type="curve" smooth="yes"/>
      <point x="212" y="403"/>
      <point x="235" y="417"/>
      <point x="267" y="417" type="curve" smooth="yes"/>
      <point x="311" y="417" type="line"/>
      <point x="311" y="376" type="line" smooth="yes"/>
      <point x="311" y="338"/>
      <point x="285" y="321"/>
    </contour>
  </outline>
</glyph>
<glyph name="xan-georgian" format="2">
  <advance width="632"/>
  <unicode hex="10EE"/>
  <note>
uni10EE
</note>
  <outline>
    <contour>
      <point x="316" y="-10" type="curve" smooth="yes"/>
      <point x="490" y="-10"/>
      <point x="590" y="95"/>
      <point x="590" y="276" type="curve" smooth="yes"/>
      <point x="590" y="465"/>
      <point x="507" y="563"/>
      <point x="387" y="563" type="curve" smooth="yes"/>
      <point x="313" y="563"/>
      <point x="271" y="528"/>
      <point x="242" y="482" type="curve"/>
      <point x="238" y="482" type="line"/>
      <point x="243" y="510"/>
      <point x="247" y="565"/>
      <point x="247" y="612" type="curve" smooth="yes"/>
      <point x="247" y="760" type="line"/>
      <point x="55" y="760" type="line"/>
      <point x="55" y="272" type="line" smooth="yes"/>
      <point x="55" y="93"/>
      <point x="148" y="-10"/>
    </contour>
    <contour>
      <point x="315" y="132" type="curve" smooth="yes"/>
      <point x="262" y="132"/>
      <point x="231" y="176"/>
      <point x="231" y="262" type="curve" smooth="yes"/>
      <point x="231" y="279" type="line" smooth="yes"/>
      <point x="231" y="361"/>
      <point x="251" y="409"/>
      <point x="318" y="409" type="curve" smooth="yes"/>
      <point x="364" y="409"/>
      <point x="397" y="366"/>
      <point x="397" y="272" type="curve" smooth="yes"/>
      <point x="397" y="188"/>
      <point x="379" y="132"/>
    </contour>
  </outline>
</glyph>
<glyph name="jhan-georgian" format="2">
  <advance width="606"/>
  <unicode hex="10EF"/>
  <note>
uni10EF
</note>
  <outline>
    <contour>
      <point x="391" y="297" type="curve" smooth="yes"/>
      <point x="391" y="306" type="line"/>
      <point x="559" y="277" type="line"/>
      <point x="559" y="420" type="line"/>
      <point x="392" y="449" type="line"/>
      <point x="392" y="563" type="line"/>
      <point x="203" y="563" type="line"/>
      <point x="203" y="481" type="line"/>
      <point x="47" y="508" type="line"/>
      <point x="47" y="365" type="line"/>
      <point x="203" y="338" type="line"/>
      <point x="203" y="309" type="line" smooth="yes"/>
      <point x="203" y="220"/>
      <point x="253" y="163"/>
      <point x="299" y="116" type="curve" smooth="yes"/>
      <point x="339" y="75"/>
      <point x="377" y="35"/>
      <point x="377" y="-18" type="curve" smooth="yes"/>
      <point x="377" y="-63"/>
      <point x="363" y="-108"/>
      <point x="304" y="-108" type="curve" smooth="yes"/>
      <point x="249" y="-108"/>
      <point x="228" y="-56"/>
      <point x="228" y="-9" type="curve" smooth="yes"/>
      <point x="228" y="20"/>
      <point x="230" y="33"/>
      <point x="237" y="65" type="curve"/>
      <point x="58" y="65" type="line"/>
      <point x="44" y="37"/>
      <point x="37" y="14"/>
      <point x="37" y="-33" type="curve" smooth="yes"/>
      <point x="37" y="-145"/>
      <point x="135" y="-250"/>
      <point x="303" y="-250" type="curve" smooth="yes"/>
      <point x="475" y="-250"/>
      <point x="569" y="-150"/>
      <point x="569" y="-14" type="curve" smooth="yes"/>
      <point x="569" y="75"/>
      <point x="531" y="138"/>
      <point x="482" y="179" type="curve" smooth="yes"/>
      <point x="427" y="225"/>
      <point x="391" y="259"/>
    </contour>
  </outline>
</glyph>
<glyph name="hae-georgian" format="2">
  <advance width="605"/>
  <unicode hex="10F0"/>
  <note>
uni10F0
</note>
  <outline>
    <contour>
      <point x="291" y="-10" type="curve" smooth="yes"/>
      <point x="448" y="-10"/>
      <point x="563" y="36"/>
      <point x="563" y="158" type="curve" smooth="yes"/>
      <point x="563" y="228"/>
      <point x="505" y="271"/>
      <point x="438" y="287" type="curve"/>
      <point x="438" y="290" type="line"/>
      <point x="505" y="304"/>
      <point x="553" y="327"/>
      <point x="553" y="392" type="curve" smooth="yes"/>
      <point x="553" y="449"/>
      <point x="501" y="490"/>
      <point x="434" y="496" type="curve"/>
      <point x="434" y="499" type="line"/>
      <point x="501" y="513"/>
      <point x="540" y="539"/>
      <point x="540" y="588" type="curve" smooth="yes"/>
      <point x="540" y="644"/>
      <point x="504" y="677"/>
      <point x="455" y="699" type="curve" smooth="yes"/>
      <point x="417" y="716"/>
      <point x="386" y="730"/>
      <point x="381" y="760" type="curve"/>
      <point x="190" y="760" type="line"/>
      <point x="190" y="679"/>
      <point x="242" y="643"/>
      <point x="291" y="625" type="curve" smooth="yes"/>
      <point x="330" y="611"/>
      <point x="341" y="605"/>
      <point x="341" y="589" type="curve" smooth="yes"/>
      <point x="341" y="571"/>
      <point x="326" y="563"/>
      <point x="301" y="563" type="curve" smooth="yes"/>
      <point x="264" y="563" type="line"/>
      <point x="264" y="426" type="line"/>
      <point x="305" y="426" type="line" smooth="yes"/>
      <point x="340" y="426"/>
      <point x="359" y="415"/>
      <point x="359" y="392" type="curve" smooth="yes"/>
      <point x="359" y="367"/>
      <point x="340" y="360"/>
      <point x="305" y="360" type="curve" smooth="yes"/>
      <point x="264" y="360" type="line"/>
      <point x="264" y="223" type="line"/>
      <point x="294" y="223" type="line" smooth="yes"/>
      <point x="348" y="223"/>
      <point x="369" y="204"/>
      <point x="369" y="177" type="curve"/>
      <point x="369" y="151"/>
      <point x="347" y="132"/>
      <point x="294" y="132" type="curve" smooth="yes"/>
      <point x="241" y="132"/>
      <point x="221" y="163"/>
      <point x="221" y="193" type="curve" smooth="yes"/>
      <point x="221" y="198"/>
      <point x="222" y="204"/>
      <point x="223" y="209" type="curve"/>
      <point x="41" y="209" type="line"/>
      <point x="37" y="195"/>
      <point x="35" y="182"/>
      <point x="35" y="168" type="curve" smooth="yes"/>
      <point x="35" y="75"/>
      <point x="129" y="-10"/>
    </contour>
  </outline>
</glyph>
<glyph name="he-georgian" format="2">
  <advance width="736"/>
  <unicode hex="10F1"/>
  <note>
uni10F1
</note>
  <outline>
    <contour>
      <point x="409" y="-10" type="curve" smooth="yes"/>
      <point x="578" y="-10"/>
      <point x="694" y="62"/>
      <point x="694" y="158" type="curve" smooth="yes"/>
      <point x="694" y="238"/>
      <point x="636" y="276"/>
      <point x="569" y="287" type="curve"/>
      <point x="569" y="290" type="line"/>
      <point x="636" y="304"/>
      <point x="684" y="327"/>
      <point x="684" y="392" type="curve" smooth="yes"/>
      <point x="684" y="449"/>
      <point x="632" y="490"/>
      <point x="565" y="496" type="curve"/>
      <point x="565" y="499" type="line"/>
      <point x="632" y="513"/>
      <point x="671" y="539"/>
      <point x="671" y="595" type="curve" smooth="yes"/>
      <point x="671" y="640"/>
      <point x="650" y="669"/>
      <point x="628" y="692" type="curve" smooth="yes"/>
      <point x="608" y="713"/>
      <point x="591" y="733"/>
      <point x="589" y="760" type="curve"/>
      <point x="398" y="760" type="line"/>
      <point x="398" y="695"/>
      <point x="423" y="668"/>
      <point x="445" y="646" type="curve" smooth="yes"/>
      <point x="461" y="630"/>
      <point x="472" y="616"/>
      <point x="472" y="592" type="curve" smooth="yes"/>
      <point x="472" y="573"/>
      <point x="457" y="563"/>
      <point x="432" y="563" type="curve" smooth="yes"/>
      <point x="395" y="563" type="line"/>
      <point x="395" y="426" type="line"/>
      <point x="436" y="426" type="line" smooth="yes"/>
      <point x="471" y="426"/>
      <point x="490" y="415"/>
      <point x="490" y="392" type="curve" smooth="yes"/>
      <point x="490" y="367"/>
      <point x="471" y="360"/>
      <point x="436" y="360" type="curve" smooth="yes"/>
      <point x="395" y="360" type="line"/>
      <point x="395" y="223" type="line"/>
      <point x="429" y="223" type="line" smooth="yes"/>
      <point x="479" y="223"/>
      <point x="500" y="204"/>
      <point x="500" y="178" type="curve" smooth="yes"/>
      <point x="500" y="148"/>
      <point x="472" y="132"/>
      <point x="409" y="132" type="curve" smooth="yes"/>
      <point x="312" y="132"/>
      <point x="236" y="213"/>
      <point x="236" y="403" type="curve" smooth="yes"/>
      <point x="236" y="536"/>
      <point x="259" y="633"/>
      <point x="314" y="760" type="curve"/>
      <point x="125" y="760" type="line"/>
      <point x="66" y="643"/>
      <point x="42" y="522"/>
      <point x="42" y="404" type="curve" smooth="yes"/>
      <point x="42" y="101"/>
      <point x="196" y="-10"/>
    </contour>
  </outline>
</glyph>
<glyph name="hie-georgian" format="2">
  <advance width="634"/>
  <unicode hex="10F2"/>
  <note>
uni10F2
</note>
  <outline>
    <contour>
      <point x="52" y="0" type="line"/>
      <point x="156" y="0"/>
      <point x="242" y="26"/>
      <point x="315" y="53" type="curve"/>
      <point x="388" y="26"/>
      <point x="475" y="0"/>
      <point x="582" y="0" type="curve"/>
      <point x="582" y="142" type="line"/>
      <point x="546" y="142"/>
      <point x="512" y="144"/>
      <point x="461" y="151" type="curve"/>
      <point x="461" y="155" type="line"/>
      <point x="553" y="205"/>
      <point x="592" y="278"/>
      <point x="592" y="344" type="curve" smooth="yes"/>
      <point x="592" y="445"/>
      <point x="507" y="563"/>
      <point x="317" y="563" type="curve" smooth="yes"/>
      <point x="127" y="563"/>
      <point x="42" y="445"/>
      <point x="42" y="344" type="curve" smooth="yes"/>
      <point x="42" y="278"/>
      <point x="80" y="205"/>
      <point x="171" y="155" type="curve"/>
      <point x="171" y="151" type="line"/>
      <point x="120" y="144"/>
      <point x="87" y="142"/>
      <point x="52" y="142" type="curve"/>
    </contour>
    <contour>
      <point x="317" y="195" type="curve"/>
      <point x="265" y="225"/>
      <point x="234" y="274"/>
      <point x="234" y="326" type="curve" smooth="yes"/>
      <point x="234" y="381"/>
      <point x="262" y="421"/>
      <point x="317" y="421" type="curve" smooth="yes"/>
      <point x="372" y="421"/>
      <point x="400" y="381"/>
      <point x="400" y="326" type="curve" smooth="yes"/>
      <point x="400" y="274"/>
      <point x="369" y="225"/>
    </contour>
  </outline>
</glyph>
<glyph name="we-georgian" format="2">
  <advance width="623"/>
  <unicode hex="10F3"/>
  <note>
uni10F3
</note>
  <outline>
    <contour>
      <point x="311" y="-250" type="curve" smooth="yes"/>
      <point x="485" y="-250"/>
      <point x="586" y="-150"/>
      <point x="586" y="7" type="curve" smooth="yes"/>
      <point x="586" y="155"/>
      <point x="497" y="239"/>
      <point x="401" y="256" type="curve"/>
      <point x="561" y="435" type="line"/>
      <point x="561" y="553" type="line"/>
      <point x="77" y="553" type="line"/>
      <point x="77" y="407" type="line"/>
      <point x="325" y="407" type="line"/>
      <point x="194" y="252" type="line"/>
      <point x="194" y="130" type="line"/>
      <point x="280" y="130" type="line" smooth="yes"/>
      <point x="366" y="130"/>
      <point x="392" y="79"/>
      <point x="392" y="0" type="curve" smooth="yes"/>
      <point x="392" y="-58"/>
      <point x="373" y="-108"/>
      <point x="312" y="-108" type="curve" smooth="yes"/>
      <point x="251" y="-108"/>
      <point x="228" y="-56"/>
      <point x="228" y="-5" type="curve" smooth="yes"/>
      <point x="228" y="15"/>
      <point x="231" y="37"/>
      <point x="235" y="58" type="curve"/>
      <point x="51" y="58" type="line"/>
      <point x="43" y="32"/>
      <point x="37" y="5"/>
      <point x="37" y="-30" type="curve" smooth="yes"/>
      <point x="37" y="-151"/>
      <point x="134" y="-250"/>
    </contour>
  </outline>
</glyph>
<glyph name="har-georgian" format="2">
  <advance width="613"/>
  <unicode hex="10F4"/>
  <note>
uni10F4
</note>
  <outline>
    <contour>
      <point x="304" y="-250" type="curve" smooth="yes"/>
      <point x="475" y="-250"/>
      <point x="576" y="-150"/>
      <point x="576" y="-13" type="curve" smooth="yes"/>
      <point x="576" y="98"/>
      <point x="498" y="161"/>
      <point x="421" y="177" type="curve"/>
      <point x="421" y="180" type="line"/>
      <point x="498" y="194"/>
      <point x="553" y="235"/>
      <point x="553" y="322" type="curve" smooth="yes"/>
      <point x="553" y="421"/>
      <point x="469" y="471"/>
      <point x="393" y="505" type="curve" smooth="yes"/>
      <point x="315" y="540"/>
      <point x="281" y="554"/>
      <point x="281" y="592" type="curve" smooth="yes"/>
      <point x="281" y="614"/>
      <point x="300" y="628"/>
      <point x="342" y="628" type="curve" smooth="yes"/>
      <point x="382" y="628"/>
      <point x="423" y="613"/>
      <point x="456" y="593" type="curve"/>
      <point x="516" y="715" type="line"/>
      <point x="463" y="752"/>
      <point x="395" y="770"/>
      <point x="326" y="770" type="curve" smooth="yes"/>
      <point x="176" y="770"/>
      <point x="87" y="699"/>
      <point x="87" y="592" type="curve" smooth="yes"/>
      <point x="87" y="481"/>
      <point x="150" y="430"/>
      <point x="245" y="383" type="curve" smooth="yes"/>
      <point x="320" y="346"/>
      <point x="354" y="327"/>
      <point x="354" y="291" type="curve" smooth="yes"/>
      <point x="354" y="262"/>
      <point x="339" y="244"/>
      <point x="294" y="244" type="curve" smooth="yes"/>
      <point x="257" y="244" type="line"/>
      <point x="257" y="103" type="line"/>
      <point x="294" y="103" type="line" smooth="yes"/>
      <point x="344" y="103"/>
      <point x="382" y="74"/>
      <point x="382" y="0" type="curve" smooth="yes"/>
      <point x="382" y="-58"/>
      <point x="363" y="-108"/>
      <point x="305" y="-108" type="curve" smooth="yes"/>
      <point x="252" y="-108"/>
      <point x="228" y="-69"/>
      <point x="228" y="-14" type="curve" smooth="yes"/>
      <point x="228" y="6"/>
      <point x="231" y="27"/>
      <point x="236" y="49" type="curve"/>
      <point x="54" y="49" type="line"/>
      <point x="44" y="24"/>
      <point x="37" y="2"/>
      <point x="37" y="-34" type="curve" smooth="yes"/>
      <point x="37" y="-171"/>
      <point x="146" y="-250"/>
    </contour>
  </outline>
</glyph>
<glyph name="hoe-georgian" format="2">
  <advance width="653"/>
  <unicode hex="10F5"/>
  <note>
uni10F5
</note>
  <outline>
    <contour>
      <point x="296" y="-10" type="curve" smooth="yes"/>
      <point x="459" y="-10"/>
      <point x="550" y="61"/>
      <point x="550" y="190" type="curve" smooth="yes"/>
      <point x="550" y="212" type="line"/>
      <point x="645" y="212" type="line"/>
      <point x="645" y="342" type="line"/>
      <point x="550" y="342" type="line"/>
      <point x="550" y="424" type="line"/>
      <point x="645" y="424" type="line"/>
      <point x="645" y="554" type="line"/>
      <point x="550" y="554" type="line"/>
      <point x="550" y="587" type="line" smooth="yes"/>
      <point x="550" y="707"/>
      <point x="449" y="770"/>
      <point x="296" y="770" type="curve" smooth="yes"/>
      <point x="128" y="770"/>
      <point x="42" y="709"/>
      <point x="42" y="593" type="curve" smooth="yes"/>
      <point x="42" y="481"/>
      <point x="128" y="424"/>
      <point x="265" y="424" type="curve" smooth="yes"/>
      <point x="372" y="424" type="line"/>
      <point x="372" y="342" type="line"/>
      <point x="265" y="342" type="line" smooth="yes"/>
      <point x="130" y="342"/>
      <point x="42" y="281"/>
      <point x="42" y="166" type="curve" smooth="yes"/>
      <point x="42" y="53"/>
      <point x="128" y="-10"/>
    </contour>
    <contour>
      <point x="294" y="120" type="curve" smooth="yes"/>
      <point x="257" y="120"/>
      <point x="224" y="133"/>
      <point x="224" y="166" type="curve" smooth="yes"/>
      <point x="224" y="202"/>
      <point x="252" y="212"/>
      <point x="293" y="212" type="curve" smooth="yes"/>
      <point x="372" y="212" type="line"/>
      <point x="372" y="184" type="line" smooth="yes"/>
      <point x="372" y="147"/>
      <point x="346" y="120"/>
    </contour>
    <contour>
      <point x="285" y="554" type="line" smooth="yes"/>
      <point x="247" y="554"/>
      <point x="224" y="564"/>
      <point x="224" y="594" type="curve" smooth="yes"/>
      <point x="224" y="625"/>
      <point x="246" y="640"/>
      <point x="295" y="640" type="curve" smooth="yes"/>
      <point x="339" y="640"/>
      <point x="372" y="619"/>
      <point x="372" y="577" type="curve" smooth="yes"/>
      <point x="372" y="554" type="line"/>
    </contour>
  </outline>
</glyph>
<glyph name="fi-georgian" format="2">
  <advance width="941"/>
  <unicode hex="10F6"/>
  <note>
uni10F6
</note>
  <outline>
    <contour>
      <point x="378" y="-250" type="curve" smooth="yes"/>
      <point x="526" y="-250"/>
      <point x="566" y="-159"/>
      <point x="566" y="-58" type="curve" smooth="yes"/>
      <point x="566" y="-28" type="line" smooth="yes"/>
      <point x="566" y="6"/>
      <point x="561" y="48"/>
      <point x="557" y="71" type="curve"/>
      <point x="561" y="71" type="line"/>
      <point x="590" y="25"/>
      <point x="625" y="-10"/>
      <point x="696" y="-10" type="curve" smooth="yes"/>
      <point x="816" y="-10"/>
      <point x="899" y="88"/>
      <point x="899" y="277" type="curve" smooth="yes"/>
      <point x="899" y="464"/>
      <point x="817" y="563"/>
      <point x="703" y="563" type="curve" smooth="yes"/>
      <point x="627" y="563"/>
      <point x="593" y="527"/>
      <point x="566" y="483" type="curve"/>
      <point x="559" y="483" type="line"/>
      <point x="564" y="506"/>
      <point x="566" y="530"/>
      <point x="566" y="553" type="curve" smooth="yes"/>
      <point x="566" y="578" type="line" smooth="yes"/>
      <point x="566" y="601"/>
      <point x="587" y="617"/>
      <point x="609" y="617" type="curve" smooth="yes"/>
      <point x="636" y="617"/>
      <point x="659" y="610"/>
      <point x="668" y="606" type="curve"/>
      <point x="668" y="751" type="line"/>
      <point x="654" y="758"/>
      <point x="614" y="770"/>
      <point x="566" y="770" type="curve" smooth="yes"/>
      <point x="439" y="770"/>
      <point x="375" y="718"/>
      <point x="375" y="586" type="curve" smooth="yes"/>
      <point x="375" y="553" type="line" smooth="yes"/>
      <point x="375" y="530"/>
      <point x="378" y="508"/>
      <point x="382" y="483" type="curve"/>
      <point x="375" y="483" type="line"/>
      <point x="348" y="527"/>
      <point x="314" y="563"/>
      <point x="238" y="563" type="curve" smooth="yes"/>
      <point x="124" y="563"/>
      <point x="42" y="464"/>
      <point x="42" y="277" type="curve" smooth="yes"/>
      <point x="42" y="88"/>
      <point x="125" y="-10"/>
      <point x="245" y="-10" type="curve" smooth="yes"/>
      <point x="316" y="-10"/>
      <point x="351" y="25"/>
      <point x="380" y="71" type="curve"/>
      <point x="384" y="71" type="line"/>
      <point x="380" y="48"/>
      <point x="375" y="7"/>
      <point x="375" y="-27" type="curve" smooth="yes"/>
      <point x="375" y="-59" type="line" smooth="yes"/>
      <point x="375" y="-80"/>
      <point x="358" y="-97"/>
      <point x="333" y="-97" type="curve" smooth="yes"/>
      <point x="312" y="-97"/>
      <point x="300" y="-93"/>
      <point x="280" y="-87" type="curve"/>
      <point x="280" y="-232" type="line"/>
      <point x="304" y="-246"/>
      <point x="343" y="-250"/>
    </contour>
    <contour>
      <point x="314" y="144" type="curve" smooth="yes"/>
      <point x="268" y="144"/>
      <point x="235" y="187"/>
      <point x="235" y="280" type="curve" smooth="yes"/>
      <point x="235" y="372"/>
      <point x="268" y="412"/>
      <point x="316" y="412" type="curve" smooth="yes"/>
      <point x="367" y="412"/>
      <point x="391" y="374"/>
      <point x="391" y="294" type="curve" smooth="yes"/>
      <point x="391" y="269" type="line" smooth="yes"/>
      <point x="391" y="192"/>
      <point x="371" y="144"/>
    </contour>
    <contour>
      <point x="627" y="144" type="curve" smooth="yes"/>
      <point x="570" y="144"/>
      <point x="550" y="192"/>
      <point x="550" y="269" type="curve" smooth="yes"/>
      <point x="550" y="294" type="line" smooth="yes"/>
      <point x="550" y="374"/>
      <point x="574" y="412"/>
      <point x="625" y="412" type="curve" smooth="yes"/>
      <point x="673" y="412"/>
      <point x="706" y="372"/>
      <point x="706" y="280" type="curve" smooth="yes"/>
      <point x="706" y="187"/>
      <point x="673" y="144"/>
    </contour>
  </outline>
</glyph>
<glyph name="yn-georgian" format="2">
  <advance width="615"/>
  <unicode hex="10F7"/>
  <note>
uni10F7
</note>
  <anchor x="308" y="553" name="top"/>
  <outline>
    <contour>
      <point x="307" y="-250" type="curve" smooth="yes"/>
      <point x="478" y="-250"/>
      <point x="578" y="-187"/>
      <point x="578" y="-45" type="curve" smooth="yes"/>
      <point x="578" y="-18"/>
      <point x="573" y="7"/>
      <point x="566" y="32" type="curve"/>
      <point x="380" y="32" type="line"/>
      <point x="385" y="12"/>
      <point x="388" y="-8"/>
      <point x="388" y="-25" type="curve" smooth="yes"/>
      <point x="388" y="-73"/>
      <point x="368" y="-108"/>
      <point x="309" y="-108" type="curve" smooth="yes"/>
      <point x="264" y="-108"/>
      <point x="231" y="-83"/>
      <point x="231" y="-33" type="curve" smooth="yes"/>
      <point x="231" y="40"/>
      <point x="271" y="70"/>
      <point x="363" y="117" type="curve" smooth="yes"/>
      <point x="507" y="191"/>
      <point x="562" y="252"/>
      <point x="562" y="361" type="curve" smooth="yes"/>
      <point x="562" y="484"/>
      <point x="477" y="563"/>
      <point x="307" y="563" type="curve" smooth="yes"/>
      <point x="148" y="563"/>
      <point x="57" y="486"/>
      <point x="57" y="382" type="curve" smooth="yes"/>
      <point x="57" y="366"/>
      <point x="59" y="350"/>
      <point x="63" y="334" type="curve"/>
      <point x="250" y="334" type="line"/>
      <point x="248" y="344"/>
      <point x="247" y="355"/>
      <point x="247" y="365" type="curve" smooth="yes"/>
      <point x="247" y="395"/>
      <point x="261" y="421"/>
      <point x="310" y="421" type="curve" smooth="yes"/>
      <point x="353" y="421"/>
      <point x="372" y="400"/>
      <point x="372" y="369" type="curve" smooth="yes"/>
      <point x="372" y="332"/>
      <point x="352" y="299"/>
      <point x="242" y="248" type="curve" smooth="yes"/>
      <point x="133" y="198"/>
      <point x="37" y="132"/>
      <point x="37" y="-22" type="curve" smooth="yes"/>
      <point x="37" y="-168"/>
      <point x="138" y="-250"/>
    </contour>
  </outline>
</glyph>
<glyph name="elifi-georgian" format="2">
  <advance width="635"/>
  <unicode hex="10F8"/>
  <note>
uni10F8
</note>
  <outline>
    <contour>
      <point x="321" y="-250" type="curve" smooth="yes"/>
      <point x="499" y="-250"/>
      <point x="587" y="-145"/>
      <point x="587" y="-33" type="curve" smooth="yes"/>
      <point x="587" y="14"/>
      <point x="580" y="37"/>
      <point x="566" y="65" type="curve"/>
      <point x="387" y="65" type="line"/>
      <point x="394" y="33"/>
      <point x="396" y="20"/>
      <point x="396" y="-9" type="curve" smooth="yes"/>
      <point x="396" y="-56"/>
      <point x="375" y="-108"/>
      <point x="320" y="-108" type="curve" smooth="yes"/>
      <point x="261" y="-108"/>
      <point x="246" y="-63"/>
      <point x="246" y="12" type="curve" smooth="yes"/>
      <point x="246" y="58" type="line" smooth="yes"/>
      <point x="246" y="110"/>
      <point x="244" y="157"/>
      <point x="238" y="215" type="curve"/>
      <point x="245" y="215" type="line"/>
      <point x="272" y="172"/>
      <point x="315" y="134"/>
      <point x="392" y="134" type="curve" smooth="yes"/>
      <point x="506" y="134"/>
      <point x="593" y="224"/>
      <point x="593" y="373" type="curve" smooth="yes"/>
      <point x="593" y="435"/>
      <point x="577" y="501"/>
      <point x="552" y="553" type="curve"/>
      <point x="368" y="553" type="line"/>
      <point x="388" y="498"/>
      <point x="399" y="451"/>
      <point x="399" y="400" type="curve" smooth="yes"/>
      <point x="399" y="331"/>
      <point x="372" y="285"/>
      <point x="324" y="285" type="curve" smooth="yes"/>
      <point x="276" y="285"/>
      <point x="246" y="337"/>
      <point x="246" y="432" type="curve" smooth="yes"/>
      <point x="246" y="553" type="line"/>
      <point x="55" y="553" type="line"/>
      <point x="55" y="16" type="line" smooth="yes"/>
      <point x="55" y="-150"/>
      <point x="149" y="-250"/>
    </contour>
  </outline>
</glyph>
<glyph name="turnedgan-georgian" format="2">
  <advance width="636"/>
  <unicode hex="10F9"/>
  <note>
uni10F9
</note>
  <outline>
    <contour>
      <point x="319" y="563" type="curve" smooth="yes"/>
      <point x="147" y="563"/>
      <point x="42" y="460"/>
      <point x="42" y="285" type="curve" smooth="yes"/>
      <point x="42" y="173"/>
      <point x="89" y="95"/>
      <point x="184" y="54" type="curve"/>
      <point x="184" y="50" type="line"/>
      <point x="108" y="22"/>
      <point x="87" y="-29"/>
      <point x="87" y="-83" type="curve" smooth="yes"/>
      <point x="87" y="-170"/>
      <point x="169" y="-250"/>
      <point x="318" y="-250" type="curve" smooth="yes"/>
      <point x="458" y="-250"/>
      <point x="548" y="-186"/>
      <point x="548" y="-85" type="curve" smooth="yes"/>
      <point x="548" y="-69"/>
      <point x="546" y="-54"/>
      <point x="541" y="-35" type="curve"/>
      <point x="366" y="-35" type="line"/>
      <point x="368" y="-45"/>
      <point x="369" y="-55"/>
      <point x="369" y="-64" type="curve" smooth="yes"/>
      <point x="369" y="-100"/>
      <point x="350" y="-124"/>
      <point x="318" y="-124" type="curve" smooth="yes"/>
      <point x="285" y="-124"/>
      <point x="267" y="-98"/>
      <point x="267" y="-65" type="curve" smooth="yes"/>
      <point x="267" y="-19"/>
      <point x="293" y="2"/>
      <point x="364" y="15" type="curve" smooth="yes"/>
      <point x="497" y="39"/>
      <point x="594" y="129"/>
      <point x="594" y="285" type="curve" smooth="yes"/>
      <point x="594" y="460"/>
      <point x="479" y="563"/>
    </contour>
    <contour>
      <point x="317" y="421" type="curve" smooth="yes"/>
      <point x="377" y="421"/>
      <point x="400" y="370"/>
      <point x="400" y="285" type="curve" smooth="yes"/>
      <point x="400" y="201"/>
      <point x="376" y="152"/>
      <point x="318" y="152" type="curve" smooth="yes"/>
      <point x="258" y="152"/>
      <point x="236" y="201"/>
      <point x="236" y="285" type="curve" smooth="yes"/>
      <point x="236" y="370"/>
      <point x="258" y="421"/>
    </contour>
  </outline>
</glyph>
<glyph name="ain-georgian" format="2">
  <advance width="522"/>
  <unicode hex="10FA"/>
  <note>
uni10FA
</note>
  <outline>
    <contour>
      <point x="89" y="-133" type="line"/>
      <point x="495" y="18" type="line"/>
      <point x="495" y="191" type="line"/>
      <point x="446" y="160"/>
      <point x="389" y="142"/>
      <point x="334" y="142" type="curve" smooth="yes"/>
      <point x="276" y="142"/>
      <point x="236" y="179"/>
      <point x="236" y="275" type="curve" smooth="yes"/>
      <point x="236" y="368"/>
      <point x="275" y="413"/>
      <point x="333" y="413" type="curve" smooth="yes"/>
      <point x="375" y="413"/>
      <point x="412" y="400"/>
      <point x="458" y="380" type="curve"/>
      <point x="514" y="521" type="line"/>
      <point x="462" y="547"/>
      <point x="401" y="563"/>
      <point x="333" y="563" type="curve" smooth="yes"/>
      <point x="166" y="563"/>
      <point x="42" y="475"/>
      <point x="42" y="284" type="curve" smooth="yes"/>
      <point x="42" y="174"/>
      <point x="97" y="90"/>
      <point x="154" y="62" type="curve"/>
      <point x="154" y="58" type="line"/>
      <point x="89" y="34" type="line"/>
    </contour>
  </outline>
</glyph>
<glyph name="paragraph-georgian" format="2">
  <advance width="574"/>
  <unicode hex="10FB"/>
  <note>
uni10FB
</note>
  <outline>
    <contour>
      <point x="431" y="181" type="curve" smooth="yes"/>
      <point x="485" y="181"/>
      <point x="531" y="208"/>
      <point x="531" y="274" type="curve" smooth="yes"/>
      <point x="531" y="343"/>
      <point x="485" y="368"/>
      <point x="431" y="368" type="curve" smooth="yes"/>
      <point x="374" y="368"/>
      <point x="327" y="343"/>
      <point x="327" y="274" type="curve" smooth="yes"/>
      <point x="327" y="208"/>
      <point x="374" y="181"/>
    </contour>
    <contour>
      <point x="146" y="-12" type="curve" smooth="yes"/>
      <point x="200" y="-12"/>
      <point x="246" y="15"/>
      <point x="246" y="81" type="curve" smooth="yes"/>
      <point x="246" y="150"/>
      <point x="200" y="175"/>
      <point x="146" y="175" type="curve" smooth="yes"/>
      <point x="89" y="175"/>
      <point x="42" y="150"/>
      <point x="42" y="81" type="curve" smooth="yes"/>
      <point x="42" y="15"/>
      <point x="89" y="-12"/>
    </contour>
    <contour>
      <point x="146" y="373" type="curve" smooth="yes"/>
      <point x="200" y="373"/>
      <point x="246" y="400"/>
      <point x="246" y="467" type="curve" smooth="yes"/>
      <point x="246" y="535"/>
      <point x="200" y="560"/>
      <point x="146" y="560" type="curve" smooth="yes"/>
      <point x="89" y="560"/>
      <point x="42" y="535"/>
      <point x="42" y="467" type="curve"/>
      <point x="42" y="400"/>
      <point x="89" y="373"/>
    </contour>
  </outline>
</glyph>
<glyph name="narMod-georgian" format="2">
  <advance width="384"/>
  <unicode hex="10FC"/>
  <note>
uni10FC
</note>
  <outline>
    <contour>
      <point x="198" y="411" type="curve" smooth="yes"/>
      <point x="307" y="411"/>
      <point x="364" y="470"/>
      <point x="364" y="568" type="curve" smooth="yes"/>
      <point x="364" y="665"/>
      <point x="316" y="715"/>
      <point x="238" y="715" type="curve" smooth="yes"/>
      <point x="196" y="715"/>
      <point x="173" y="701"/>
      <point x="156" y="674" type="curve"/>
      <point x="154" y="674" type="line"/>
      <point x="157" y="691"/>
      <point x="159" y="709"/>
      <point x="159" y="718" type="curve" smooth="yes"/>
      <point x="159" y="729" type="line" smooth="yes"/>
      <point x="159" y="746"/>
      <point x="168" y="752"/>
      <point x="186" y="752" type="curve" smooth="yes"/>
      <point x="336" y="752" type="line"/>
      <point x="336" y="848" type="line"/>
      <point x="174" y="848" type="line" smooth="yes"/>
      <point x="91" y="848"/>
      <point x="30" y="817"/>
      <point x="30" y="716" type="curve" smooth="yes"/>
      <point x="30" y="571" type="line" smooth="yes"/>
      <point x="30" y="468"/>
      <point x="83" y="411"/>
    </contour>
    <contour>
      <point x="197" y="501" type="curve" smooth="yes"/>
      <point x="170" y="501"/>
      <point x="160" y="526"/>
      <point x="160" y="559" type="curve" smooth="yes"/>
      <point x="160" y="570" type="line" smooth="yes"/>
      <point x="160" y="599"/>
      <point x="170" y="623"/>
      <point x="197" y="623" type="curve" smooth="yes"/>
      <point x="224" y="623"/>
      <point x="234" y="599"/>
      <point x="234" y="566" type="curve" smooth="yes"/>
      <point x="234" y="526"/>
      <point x="224" y="501"/>
    </contour>
  </outline>
</glyph>
<glyph name="aen-georgian" format="2">
  <advance width="615"/>
  <unicode hex="10FD"/>
  <outline>
    <contour>
      <point x="308" y="-10" type="curve" smooth="yes"/>
      <point x="477" y="-10"/>
      <point x="578" y="72"/>
      <point x="578" y="218" type="curve" smooth="yes"/>
      <point x="578" y="352"/>
      <point x="481" y="408"/>
      <point x="368" y="462" type="curve" smooth="yes"/>
      <point x="263" y="512"/>
      <point x="240" y="539"/>
      <point x="240" y="576" type="curve" smooth="yes"/>
      <point x="240" y="607"/>
      <point x="259" y="628"/>
      <point x="302" y="628" type="curve" smooth="yes"/>
      <point x="351" y="628"/>
      <point x="365" y="602"/>
      <point x="365" y="572" type="curve" smooth="yes"/>
      <point x="365" y="562"/>
      <point x="364" y="551"/>
      <point x="362" y="541" type="curve"/>
      <point x="549" y="541" type="line"/>
      <point x="553" y="557"/>
      <point x="555" y="573"/>
      <point x="555" y="589" type="curve" smooth="yes"/>
      <point x="555" y="693"/>
      <point x="464" y="770"/>
      <point x="305" y="770" type="curve" smooth="yes"/>
      <point x="135" y="770"/>
      <point x="50" y="691"/>
      <point x="50" y="568" type="curve" smooth="yes"/>
      <point x="50" y="459"/>
      <point x="108" y="401"/>
      <point x="252" y="327" type="curve" smooth="yes"/>
      <point x="344" y="280"/>
      <point x="384" y="260"/>
      <point x="384" y="207" type="curve" smooth="yes"/>
      <point x="384" y="157"/>
      <point x="351" y="132"/>
      <point x="306" y="132" type="curve" smooth="yes"/>
      <point x="247" y="132"/>
      <point x="227" y="167"/>
      <point x="227" y="215" type="curve" smooth="yes"/>
      <point x="227" y="232"/>
      <point x="230" y="252"/>
      <point x="235" y="272" type="curve"/>
      <point x="49" y="272" type="line"/>
      <point x="42" y="247"/>
      <point x="37" y="222"/>
      <point x="37" y="195" type="curve" smooth="yes"/>
      <point x="37" y="53"/>
      <point x="137" y="-10"/>
    </contour>
  </outline>
</glyph>
<glyph name="hardsign-georgian" format="2">
  <advance width="634"/>
  <unicode hex="10FE"/>
  <outline>
    <contour>
      <point x="52" y="553" type="curve"/>
      <point x="52" y="411" type="line"/>
      <point x="87" y="411"/>
      <point x="120" y="409"/>
      <point x="171" y="402" type="curve"/>
      <point x="171" y="398" type="line"/>
      <point x="80" y="348"/>
      <point x="42" y="275"/>
      <point x="42" y="209" type="curve" smooth="yes"/>
      <point x="42" y="108"/>
      <point x="127" y="-10"/>
      <point x="317" y="-10" type="curve" smooth="yes"/>
      <point x="507" y="-10"/>
      <point x="592" y="108"/>
      <point x="592" y="209" type="curve" smooth="yes"/>
      <point x="592" y="275"/>
      <point x="553" y="348"/>
      <point x="461" y="398" type="curve"/>
      <point x="461" y="402" type="line"/>
      <point x="512" y="409"/>
      <point x="546" y="411"/>
      <point x="582" y="411" type="curve"/>
      <point x="582" y="553" type="line"/>
      <point x="475" y="553"/>
      <point x="388" y="527"/>
      <point x="315" y="500" type="curve"/>
      <point x="242" y="527"/>
      <point x="156" y="553"/>
    </contour>
    <contour>
      <point x="317" y="358" type="curve"/>
      <point x="369" y="328"/>
      <point x="400" y="279"/>
      <point x="400" y="227" type="curve" smooth="yes"/>
      <point x="400" y="172"/>
      <point x="372" y="132"/>
      <point x="317" y="132" type="curve" smooth="yes"/>
      <point x="262" y="132"/>
      <point x="234" y="172"/>
      <point x="234" y="227" type="curve" smooth="yes"/>
      <point x="234" y="279"/>
      <point x="265" y="328"/>
    </contour>
  </outline>
</glyph>
<glyph name="An-georgian" format="2">
  <advance width="640"/>
  <unicode hex="1C90"/>
  <anchor x="318" y="714" name="top"/>
  <outline>
    <contour>
      <point x="317" y="-10" type="curve" smooth="yes"/>
      <point x="491" y="-10"/>
      <point x="594" y="93"/>
      <point x="594" y="255" type="curve" smooth="yes"/>
      <point x="594" y="377"/>
      <point x="540" y="455"/>
      <point x="490" y="523" type="curve" smooth="yes"/>
      <point x="442" y="587"/>
      <point x="397" y="642"/>
      <point x="407" y="714" type="curve"/>
      <point x="212" y="714" type="line"/>
      <point x="192" y="583"/>
      <point x="256" y="510"/>
      <point x="314" y="435" type="curve" smooth="yes"/>
      <point x="356" y="380"/>
      <point x="395" y="325"/>
      <point x="395" y="246" type="curve" smooth="yes"/>
      <point x="395" y="185"/>
      <point x="374" y="145"/>
      <point x="317" y="145" type="curve" smooth="yes"/>
      <point x="264" y="145"/>
      <point x="240" y="186"/>
      <point x="240" y="246" type="curve" smooth="yes"/>
      <point x="240" y="276"/>
      <point x="243" y="320"/>
      <point x="262" y="373" type="curve"/>
      <point x="334" y="352" type="line"/>
      <point x="-33" y="352" type="line"/>
      <point x="71" y="378" type="line"/>
      <point x="45" y="314"/>
      <point x="41" y="274"/>
      <point x="41" y="237" type="curve" smooth="yes"/>
      <point x="41" y="79"/>
      <point x="153" y="-10"/>
    </contour>
  </outline>
</glyph>
<glyph name="Ban-georgian" format="2">
  <advance width="654"/>
  <unicode hex="1C91"/>
  <outline>
    <contour>
      <point x="326" y="-9" type="curve" smooth="yes"/>
      <point x="499" y="-9"/>
      <point x="608" y="88"/>
      <point x="608" y="264" type="curve" smooth="yes"/>
      <point x="608" y="438"/>
      <point x="489" y="535"/>
      <point x="329" y="535" type="curve" smooth="yes"/>
      <point x="155" y="535"/>
      <point x="46" y="438"/>
      <point x="46" y="264" type="curve" smooth="yes"/>
      <point x="46" y="88"/>
      <point x="165" y="-9"/>
    </contour>
    <contour>
      <point x="328" y="146" type="curve" smooth="yes"/>
      <point x="273" y="146"/>
      <point x="248" y="190"/>
      <point x="248" y="264" type="curve" smooth="yes"/>
      <point x="248" y="337"/>
      <point x="274" y="380"/>
      <point x="327" y="380" type="curve" smooth="yes"/>
      <point x="382" y="380"/>
      <point x="406" y="337"/>
      <point x="406" y="264" type="curve" smooth="yes"/>
      <point x="406" y="191"/>
      <point x="382" y="146"/>
    </contour>
    <contour>
      <point x="421" y="494" type="line"/>
      <point x="443" y="523"/>
      <point x="450" y="544"/>
      <point x="450" y="569" type="curve" smooth="yes"/>
      <point x="450" y="609"/>
      <point x="428" y="639"/>
      <point x="399" y="658" type="curve" smooth="yes"/>
      <point x="370" y="677"/>
      <point x="354" y="691"/>
      <point x="353" y="714" type="curve"/>
      <point x="173" y="714" type="line"/>
      <point x="164" y="656"/>
      <point x="195" y="611"/>
      <point x="227" y="592" type="curve" smooth="yes"/>
      <point x="247" y="580"/>
      <point x="263" y="567"/>
      <point x="263" y="547" type="curve" smooth="yes"/>
      <point x="263" y="532"/>
      <point x="254" y="514"/>
      <point x="242" y="499" type="curve"/>
    </contour>
  </outline>
</glyph>
<glyph name="Gan-georgian" format="2">
  <advance width="644"/>
  <unicode hex="1C92"/>
  <outline>
    <contour>
      <point x="321" y="-9" type="curve" smooth="yes"/>
      <point x="494" y="-9"/>
      <point x="603" y="82"/>
      <point x="603" y="242" type="curve" smooth="yes"/>
      <point x="603" y="341"/>
      <point x="553" y="406"/>
      <point x="475" y="438" type="curve"/>
      <point x="475" y="442" type="line"/>
      <point x="544" y="469"/>
      <point x="567" y="516"/>
      <point x="567" y="562" type="curve" smooth="yes"/>
      <point x="567" y="655"/>
      <point x="481" y="724"/>
      <point x="322" y="724" type="curve" smooth="yes"/>
      <point x="172" y="724"/>
      <point x="78" y="656"/>
      <point x="78" y="563" type="curve" smooth="yes"/>
      <point x="78" y="548"/>
      <point x="79" y="537"/>
      <point x="84" y="517" type="curve"/>
      <point x="268" y="517" type="line"/>
      <point x="267" y="523"/>
      <point x="266" y="532"/>
      <point x="266" y="538" type="curve" smooth="yes"/>
      <point x="266" y="567"/>
      <point x="287" y="586"/>
      <point x="322" y="586" type="curve" smooth="yes"/>
      <point x="358" y="586"/>
      <point x="378" y="567"/>
      <point x="378" y="541" type="curve" smooth="yes"/>
      <point x="378" y="507"/>
      <point x="357" y="491"/>
      <point x="297" y="484" type="curve" smooth="yes"/>
      <point x="140" y="466"/>
      <point x="41" y="390"/>
      <point x="41" y="242" type="curve" smooth="yes"/>
      <point x="41" y="82"/>
      <point x="160" y="-9"/>
    </contour>
    <contour>
      <point x="323" y="146" type="curve" smooth="yes"/>
      <point x="273" y="146"/>
      <point x="243" y="187"/>
      <point x="243" y="242" type="curve" smooth="yes"/>
      <point x="243" y="295"/>
      <point x="274" y="335"/>
      <point x="322" y="335" type="curve" smooth="yes"/>
      <point x="372" y="335"/>
      <point x="401" y="295"/>
      <point x="401" y="242" type="curve" smooth="yes"/>
      <point x="401" y="188"/>
      <point x="372" y="146"/>
    </contour>
  </outline>
</glyph>
<glyph name="Don-georgian" format="2">
  <advance width="979"/>
  <unicode hex="1C93"/>
  <outline>
    <contour>
      <point x="566" y="0" type="curve"/>
      <point x="756" y="0" type="line"/>
      <point x="744" y="155"/>
      <point x="616" y="194"/>
      <point x="496" y="221" type="curve" smooth="yes"/>
      <point x="365" y="250"/>
      <point x="242" y="309"/>
      <point x="242" y="470" type="curve" smooth="yes"/>
      <point x="242" y="523"/>
      <point x="260" y="581"/>
      <point x="318" y="581" type="curve" smooth="yes"/>
      <point x="367" y="581"/>
      <point x="383" y="535"/>
      <point x="383" y="488" type="curve" smooth="yes"/>
      <point x="383" y="470" type="line" smooth="yes"/>
      <point x="383" y="334"/>
      <point x="487" y="240"/>
      <point x="659" y="240" type="curve" smooth="yes"/>
      <point x="819" y="240"/>
      <point x="933" y="334"/>
      <point x="933" y="479" type="curve" smooth="yes"/>
      <point x="933" y="630"/>
      <point x="826" y="724"/>
      <point x="667" y="724" type="curve" smooth="yes"/>
      <point x="579" y="724"/>
      <point x="507" y="690"/>
      <point x="478" y="634" type="curve"/>
      <point x="473" y="634" type="line"/>
      <point x="441" y="690"/>
      <point x="375" y="724"/>
      <point x="292" y="724" type="curve" smooth="yes"/>
      <point x="132" y="724"/>
      <point x="46" y="615"/>
      <point x="46" y="471" type="curve" smooth="yes"/>
      <point x="46" y="339"/>
      <point x="127" y="233"/>
      <point x="237" y="187" type="curve"/>
      <point x="237" y="183" type="line"/>
      <point x="211" y="179"/>
      <point x="176" y="164"/>
      <point x="152" y="147" type="curve"/>
      <point x="217" y="30" type="line"/>
      <point x="271" y="58"/>
      <point x="342" y="75"/>
      <point x="407" y="75" type="curve" smooth="yes"/>
      <point x="482" y="75"/>
      <point x="559" y="54"/>
    </contour>
    <contour>
      <point x="657" y="382" type="curve" smooth="yes"/>
      <point x="604" y="382"/>
      <point x="580" y="424"/>
      <point x="580" y="482" type="curve" smooth="yes"/>
      <point x="580" y="542"/>
      <point x="604" y="581"/>
      <point x="658" y="581" type="curve" smooth="yes"/>
      <point x="710" y="581"/>
      <point x="735" y="541"/>
      <point x="735" y="482" type="curve" smooth="yes"/>
      <point x="735" y="423"/>
      <point x="711" y="382"/>
    </contour>
  </outline>
</glyph>
<glyph name="En-georgian" format="2">
  <advance width="650"/>
  <unicode hex="1C94"/>
  <anchor x="324" y="714" name="top"/>
  <outline>
    <contour>
      <point x="315" y="-10" type="curve" smooth="yes"/>
      <point x="491" y="-10"/>
      <point x="589" y="83"/>
      <point x="589" y="235" type="curve" smooth="yes"/>
      <point x="589" y="500" type="line" smooth="yes"/>
      <point x="589" y="637"/>
      <point x="488" y="724"/>
      <point x="324" y="724" type="curve" smooth="yes"/>
      <point x="176" y="724"/>
      <point x="63" y="650"/>
      <point x="63" y="525" type="curve" smooth="yes"/>
      <point x="63" y="489"/>
      <point x="67" y="469"/>
      <point x="74" y="443" type="curve"/>
      <point x="268" y="443" type="line"/>
      <point x="265" y="464"/>
      <point x="263" y="483"/>
      <point x="263" y="497" type="curve" smooth="yes"/>
      <point x="263" y="543"/>
      <point x="287" y="569"/>
      <point x="329" y="569" type="curve" smooth="yes"/>
      <point x="366" y="569"/>
      <point x="395" y="547"/>
      <point x="395" y="494" type="curve" smooth="yes"/>
      <point x="395" y="236" type="line" smooth="yes"/>
      <point x="395" y="182"/>
      <point x="377" y="145"/>
      <point x="318" y="145" type="curve" smooth="yes"/>
      <point x="264" y="145"/>
      <point x="240" y="186"/>
      <point x="240" y="235" type="curve" smooth="yes"/>
      <point x="240" y="258"/>
      <point x="242" y="282"/>
      <point x="248" y="308" type="curve"/>
      <point x="53" y="308" type="line"/>
      <point x="44" y="276"/>
      <point x="41" y="250"/>
      <point x="41" y="217" type="curve" smooth="yes"/>
      <point x="41" y="89"/>
      <point x="143" y="-10"/>
    </contour>
  </outline>
</glyph>
<glyph name="Vin-georgian" format="2">
  <advance width="649"/>
  <unicode hex="1C95"/>
  <outline>
    <contour>
      <point x="324" y="-10" type="curve" smooth="yes"/>
      <point x="503" y="-10"/>
      <point x="608" y="86"/>
      <point x="608" y="206" type="curve" smooth="yes"/>
      <point x="608" y="308"/>
      <point x="541" y="360"/>
      <point x="471" y="375" type="curve"/>
      <point x="471" y="378" type="line"/>
      <point x="541" y="397"/>
      <point x="589" y="443"/>
      <point x="589" y="528" type="curve" smooth="yes"/>
      <point x="589" y="640"/>
      <point x="489" y="724"/>
      <point x="328" y="724" type="curve" smooth="yes"/>
      <point x="177" y="724"/>
      <point x="63" y="654"/>
      <point x="63" y="535" type="curve" smooth="yes"/>
      <point x="63" y="509"/>
      <point x="66" y="495"/>
      <point x="73" y="476" type="curve"/>
      <point x="262" y="476" type="line"/>
      <point x="259" y="491"/>
      <point x="258" y="500"/>
      <point x="258" y="512" type="curve" smooth="yes"/>
      <point x="258" y="553"/>
      <point x="283" y="576"/>
      <point x="326" y="576" type="curve" smooth="yes"/>
      <point x="367" y="576"/>
      <point x="393" y="553"/>
      <point x="393" y="512" type="curve" smooth="yes"/>
      <point x="393" y="474"/>
      <point x="375" y="443"/>
      <point x="318" y="443" type="curve" smooth="yes"/>
      <point x="288" y="443" type="line"/>
      <point x="288" y="298" type="line"/>
      <point x="317" y="298" type="line" smooth="yes"/>
      <point x="365" y="298"/>
      <point x="411" y="286"/>
      <point x="411" y="216" type="curve" smooth="yes"/>
      <point x="411" y="176"/>
      <point x="389" y="136"/>
      <point x="325" y="136" type="curve" smooth="yes"/>
      <point x="261" y="136"/>
      <point x="236" y="176"/>
      <point x="236" y="216" type="curve" smooth="yes"/>
      <point x="236" y="231"/>
      <point x="237" y="245"/>
      <point x="241" y="264" type="curve"/>
      <point x="53" y="264" type="line"/>
      <point x="44" y="240"/>
      <point x="41" y="222"/>
      <point x="41" y="195" type="curve" smooth="yes"/>
      <point x="41" y="88"/>
      <point x="141" y="-10"/>
    </contour>
  </outline>
</glyph>
<glyph name="Zen-georgian" format="2">
  <advance width="699"/>
  <unicode hex="1C96"/>
  <outline>
    <contour>
      <point x="377" y="-10" type="curve" smooth="yes"/>
      <point x="549" y="-10"/>
      <point x="653" y="87"/>
      <point x="653" y="245" type="curve" smooth="yes"/>
      <point x="653" y="351"/>
      <point x="581" y="441"/>
      <point x="482" y="464" type="curve" smooth="yes"/>
      <point x="472" y="466"/>
      <point x="467" y="467"/>
      <point x="459" y="467" type="curve"/>
      <point x="459" y="471" type="line"/>
      <point x="473" y="492"/>
      <point x="484" y="523"/>
      <point x="484" y="552" type="curve" smooth="yes"/>
      <point x="484" y="638"/>
      <point x="399" y="724"/>
      <point x="251" y="724" type="curve" smooth="yes"/>
      <point x="94" y="724"/>
      <point x="17" y="630"/>
      <point x="17" y="540" type="curve" smooth="yes"/>
      <point x="17" y="459"/>
      <point x="61" y="399"/>
      <point x="152" y="373" type="curve"/>
      <point x="152" y="369" type="line"/>
      <point x="118" y="337"/>
      <point x="102" y="281"/>
      <point x="102" y="235" type="curve" smooth="yes"/>
      <point x="102" y="87"/>
      <point x="217" y="-10"/>
    </contour>
    <contour>
      <point x="379" y="144" type="curve" smooth="yes"/>
      <point x="320" y="144"/>
      <point x="300" y="187"/>
      <point x="300" y="245" type="curve" smooth="yes"/>
      <point x="300" y="302"/>
      <point x="321" y="343"/>
      <point x="378" y="343" type="curve" smooth="yes"/>
      <point x="437" y="343"/>
      <point x="456" y="302"/>
      <point x="456" y="245" type="curve" smooth="yes"/>
      <point x="456" y="187"/>
      <point x="437" y="144"/>
    </contour>
    <contour>
      <point x="251" y="471" type="curve" smooth="yes"/>
      <point x="209" y="471"/>
      <point x="192" y="501"/>
      <point x="192" y="531" type="curve" smooth="yes"/>
      <point x="192" y="565"/>
      <point x="209" y="592"/>
      <point x="250" y="592" type="curve" smooth="yes"/>
      <point x="293" y="592"/>
      <point x="307" y="565"/>
      <point x="307" y="531" type="curve" smooth="yes"/>
      <point x="307" y="503"/>
      <point x="293" y="471"/>
    </contour>
  </outline>
</glyph>
<glyph name="Tan-georgian" format="2">
  <advance width="992"/>
  <unicode hex="1C97"/>
  <outline>
    <contour>
      <point x="690" y="724" type="curve" smooth="yes"/>
      <point x="632" y="724"/>
      <point x="547" y="705"/>
      <point x="514" y="635" type="curve"/>
      <point x="511" y="635" type="line"/>
      <point x="478" y="705"/>
      <point x="401" y="724"/>
      <point x="326" y="724" type="curve" smooth="yes"/>
      <point x="142" y="724"/>
      <point x="50" y="603"/>
      <point x="50" y="357" type="curve" smooth="yes"/>
      <point x="50" y="111"/>
      <point x="137" y="-10"/>
      <point x="332" y="-10" type="curve" smooth="yes"/>
      <point x="526" y="-10"/>
      <point x="614" y="111"/>
      <point x="614" y="346" type="curve" smooth="yes"/>
      <point x="614" y="406"/>
      <point x="607" y="439"/>
      <point x="607" y="482" type="curve" smooth="yes"/>
      <point x="607" y="526"/>
      <point x="622" y="566"/>
      <point x="668" y="566" type="curve" smooth="yes"/>
      <point x="721" y="566"/>
      <point x="739" y="522"/>
      <point x="739" y="398" type="curve" smooth="yes"/>
      <point x="739" y="235"/>
      <point x="709" y="104"/>
      <point x="677" y="0" type="curve"/>
      <point x="874" y="0" type="line"/>
      <point x="912" y="107"/>
      <point x="942" y="215"/>
      <point x="942" y="391" type="curve" smooth="yes"/>
      <point x="942" y="626"/>
      <point x="835" y="724"/>
    </contour>
    <contour>
      <point x="332" y="148" type="curve" smooth="yes"/>
      <point x="269" y="148"/>
      <point x="253" y="201"/>
      <point x="253" y="357" type="curve" smooth="yes"/>
      <point x="253" y="510"/>
      <point x="269" y="566"/>
      <point x="332" y="566" type="curve" smooth="yes"/>
      <point x="395" y="566"/>
      <point x="411" y="513"/>
      <point x="411" y="358" type="curve" smooth="yes"/>
      <point x="411" y="205"/>
      <point x="395" y="148"/>
    </contour>
  </outline>
</glyph>
<glyph name="In-georgian" format="2">
  <advance width="664"/>
  <unicode hex="1C98"/>
  <guideline x="253" y="661" angle="90"/>
  <anchor x="332" y="714" name="top"/>
  <outline>
    <contour>
      <point x="96" y="0" type="curve"/>
      <point x="294" y="0" type="line"/>
      <point x="275" y="84"/>
      <point x="253" y="212"/>
      <point x="253" y="398" type="curve" smooth="yes"/>
      <point x="253" y="522"/>
      <point x="278" y="566"/>
      <point x="332" y="566" type="curve" smooth="yes"/>
      <point x="386" y="566"/>
      <point x="411" y="522"/>
      <point x="411" y="398" type="curve" smooth="yes"/>
      <point x="411" y="212"/>
      <point x="389" y="84"/>
      <point x="370" y="0" type="curve"/>
      <point x="568" y="0" type="line"/>
      <point x="594" y="88"/>
      <point x="614" y="195"/>
      <point x="614" y="391" type="curve" smooth="yes"/>
      <point x="614" y="627"/>
      <point x="494" y="724"/>
      <point x="332" y="724" type="curve" smooth="yes"/>
      <point x="170" y="724"/>
      <point x="50" y="627"/>
      <point x="50" y="391" type="curve" smooth="yes"/>
      <point x="50" y="195"/>
      <point x="70" y="88"/>
    </contour>
  </outline>
</glyph>
<glyph name="Kan-georgian" format="2">
  <advance width="635"/>
  <unicode hex="1C99"/>
  <outline>
    <contour>
      <point x="311" y="-10" type="curve"/>
      <point x="486" y="-10"/>
      <point x="594" y="83"/>
      <point x="594" y="216" type="curve" smooth="yes"/>
      <point x="594" y="324"/>
      <point x="526" y="378"/>
      <point x="469" y="392" type="curve"/>
      <point x="469" y="395" type="line"/>
      <point x="530" y="415"/>
      <point x="574" y="462"/>
      <point x="574" y="548" type="curve" smooth="yes"/>
      <point x="574" y="652"/>
      <point x="482" y="726"/>
      <point x="312" y="726" type="curve"/>
      <point x="312" y="579" type="line"/>
      <point x="353" y="579"/>
      <point x="379" y="551"/>
      <point x="379" y="518" type="curve" smooth="yes"/>
      <point x="379" y="487"/>
      <point x="360" y="458"/>
      <point x="309" y="458" type="curve" smooth="yes"/>
      <point x="271" y="458" type="line"/>
      <point x="271" y="318" type="line"/>
      <point x="313" y="318" type="line" smooth="yes"/>
      <point x="361" y="318"/>
      <point x="397" y="293"/>
      <point x="397" y="229" type="curve" smooth="yes"/>
      <point x="397" y="172"/>
      <point x="374" y="136"/>
      <point x="312" y="136" type="curve" smooth="yes"/>
      <point x="255" y="136"/>
      <point x="230" y="176"/>
      <point x="230" y="216" type="curve" smooth="yes"/>
      <point x="230" y="231"/>
      <point x="231" y="245"/>
      <point x="235" y="264" type="curve"/>
      <point x="47" y="264" type="line"/>
      <point x="38" y="240"/>
      <point x="35" y="222"/>
      <point x="35" y="195" type="curve" smooth="yes"/>
      <point x="35" y="88"/>
      <point x="135" y="-10"/>
    </contour>
  </outline>
</glyph>
<glyph name="Las-georgian" format="2">
  <advance width="1226"/>
  <unicode hex="1C9A"/>
  <outline>
    <contour>
      <point x="696" y="0" type="curve"/>
      <point x="886" y="0" type="line"/>
      <point x="870" y="165"/>
      <point x="742" y="243"/>
      <point x="508" y="263" type="curve" smooth="yes"/>
      <point x="332" y="278"/>
      <point x="240" y="344"/>
      <point x="240" y="466" type="curve" smooth="yes"/>
      <point x="240" y="541"/>
      <point x="265" y="571"/>
      <point x="304" y="571" type="curve" smooth="yes"/>
      <point x="352" y="571"/>
      <point x="362" y="524"/>
      <point x="362" y="466" type="curve" smooth="yes"/>
      <point x="362" y="363" type="line"/>
      <point x="554" y="363" type="line"/>
      <point x="554" y="479" type="line" smooth="yes"/>
      <point x="554" y="527"/>
      <point x="566" y="571"/>
      <point x="612" y="571" type="curve" smooth="yes"/>
      <point x="658" y="571"/>
      <point x="670" y="527"/>
      <point x="670" y="479" type="curve" smooth="yes"/>
      <point x="670" y="363" type="line"/>
      <point x="863" y="363" type="line"/>
      <point x="863" y="466" type="line" smooth="yes"/>
      <point x="863" y="524"/>
      <point x="876" y="571"/>
      <point x="923" y="571" type="curve" smooth="yes"/>
      <point x="959" y="571"/>
      <point x="984" y="542"/>
      <point x="984" y="466" type="curve" smooth="yes"/>
      <point x="984" y="406"/>
      <point x="970" y="342"/>
      <point x="940" y="281" type="curve"/>
      <point x="1118" y="221" type="line"/>
      <point x="1161" y="305"/>
      <point x="1180" y="376"/>
      <point x="1180" y="466" type="curve" smooth="yes"/>
      <point x="1180" y="614"/>
      <point x="1091" y="724"/>
      <point x="940" y="724" type="curve" smooth="yes"/>
      <point x="852" y="724"/>
      <point x="795" y="685"/>
      <point x="769" y="616" type="curve"/>
      <point x="763" y="616" type="line"/>
      <point x="743" y="684"/>
      <point x="683" y="724"/>
      <point x="612" y="724" type="curve" smooth="yes"/>
      <point x="533" y="724"/>
      <point x="483" y="687"/>
      <point x="461" y="616" type="curve"/>
      <point x="455" y="616" type="line"/>
      <point x="429" y="685"/>
      <point x="361" y="724"/>
      <point x="274" y="724" type="curve" smooth="yes"/>
      <point x="122" y="724"/>
      <point x="46" y="611"/>
      <point x="46" y="483" type="curve" smooth="yes"/>
      <point x="46" y="359"/>
      <point x="108" y="249"/>
      <point x="262" y="199" type="curve"/>
      <point x="262" y="196" type="line"/>
      <point x="232" y="187"/>
      <point x="201" y="172"/>
      <point x="180" y="156" type="curve"/>
      <point x="253" y="45" type="line"/>
      <point x="305" y="74"/>
      <point x="379" y="105"/>
      <point x="482" y="105" type="curve" smooth="yes"/>
      <point x="590" y="105"/>
      <point x="691" y="65"/>
    </contour>
  </outline>
</glyph>
<glyph name="Man-georgian" format="2">
  <advance width="659"/>
  <unicode hex="1C9B"/>
  <outline>
    <contour>
      <point x="330" y="-10" type="curve" smooth="yes"/>
      <point x="503" y="-10"/>
      <point x="598" y="89"/>
      <point x="598" y="247" type="curve" smooth="yes"/>
      <point x="598" y="512" type="line" smooth="yes"/>
      <point x="598" y="635"/>
      <point x="495" y="724"/>
      <point x="335" y="724" type="curve" smooth="yes"/>
      <point x="196" y="724"/>
      <point x="74" y="659"/>
      <point x="74" y="548" type="curve" smooth="yes"/>
      <point x="74" y="541"/>
      <point x="74" y="538"/>
      <point x="75" y="525" type="curve"/>
      <point x="273" y="525" type="line"/>
      <point x="273" y="527"/>
      <point x="273" y="530"/>
      <point x="273" y="533" type="curve" smooth="yes"/>
      <point x="273" y="565"/>
      <point x="299" y="582"/>
      <point x="338" y="582" type="curve" smooth="yes"/>
      <point x="375" y="582"/>
      <point x="404" y="563"/>
      <point x="404" y="525" type="curve" smooth="yes"/>
      <point x="404" y="501" type="line" smooth="yes"/>
      <point x="404" y="477"/>
      <point x="406" y="456"/>
      <point x="411" y="428" type="curve"/>
      <point x="407" y="428" type="line"/>
      <point x="378" y="463"/>
      <point x="333" y="489"/>
      <point x="258" y="489" type="curve" smooth="yes"/>
      <point x="132" y="489"/>
      <point x="46" y="404"/>
      <point x="46" y="242" type="curve" smooth="yes"/>
      <point x="46" y="92"/>
      <point x="150" y="-10"/>
    </contour>
    <contour>
      <point x="330" y="143" type="curve" smooth="yes"/>
      <point x="270" y="143"/>
      <point x="243" y="189"/>
      <point x="243" y="240" type="curve" smooth="yes"/>
      <point x="243" y="302"/>
      <point x="278" y="337"/>
      <point x="327" y="337" type="curve" smooth="yes"/>
      <point x="407" y="337"/>
      <point x="420" y="284"/>
      <point x="420" y="248" type="curve" smooth="yes"/>
      <point x="420" y="231" type="line" smooth="yes"/>
      <point x="420" y="182"/>
      <point x="388" y="143"/>
    </contour>
  </outline>
</glyph>
<glyph name="On-georgian" format="2">
  <advance width="958"/>
  <unicode hex="1C9D"/>
  <anchor x="479" y="714" name="top"/>
  <outline>
    <contour>
      <point x="118" y="0" type="curve"/>
      <point x="315" y="0" type="line"/>
      <point x="284" y="104"/>
      <point x="253" y="228"/>
      <point x="253" y="398" type="curve" smooth="yes"/>
      <point x="253" y="522"/>
      <point x="270" y="566"/>
      <point x="317" y="566" type="curve" smooth="yes"/>
      <point x="373" y="566"/>
      <point x="378" y="508"/>
      <point x="378" y="448" type="curve" smooth="yes"/>
      <point x="378" y="209" type="line"/>
      <point x="580" y="209" type="line"/>
      <point x="580" y="448" type="line" smooth="yes"/>
      <point x="580" y="512"/>
      <point x="586" y="566"/>
      <point x="641" y="566" type="curve" smooth="yes"/>
      <point x="688" y="566"/>
      <point x="705" y="522"/>
      <point x="705" y="398" type="curve" smooth="yes"/>
      <point x="705" y="235"/>
      <point x="675" y="104"/>
      <point x="643" y="0" type="curve"/>
      <point x="840" y="0" type="line"/>
      <point x="878" y="107"/>
      <point x="908" y="215"/>
      <point x="908" y="391" type="curve" smooth="yes"/>
      <point x="908" y="626"/>
      <point x="797" y="724"/>
      <point x="662" y="724" type="curve" smooth="yes"/>
      <point x="591" y="724"/>
      <point x="518" y="699"/>
      <point x="481" y="620" type="curve"/>
      <point x="477" y="620" type="line"/>
      <point x="443" y="698"/>
      <point x="370" y="724"/>
      <point x="305" y="724" type="curve" smooth="yes"/>
      <point x="161" y="724"/>
      <point x="50" y="627"/>
      <point x="50" y="391" type="curve" smooth="yes"/>
      <point x="50" y="218"/>
      <point x="79" y="107"/>
    </contour>
  </outline>
</glyph>
<glyph name="Par-georgian" format="2">
  <advance width="646"/>
  <unicode hex="1C9E"/>
  <outline>
    <contour>
      <point x="320" y="-10" type="curve" smooth="yes"/>
      <point x="495" y="-10"/>
      <point x="600" y="86"/>
      <point x="600" y="215" type="curve" smooth="yes"/>
      <point x="600" y="306"/>
      <point x="538" y="366"/>
      <point x="478" y="382" type="curve"/>
      <point x="478" y="384" type="line"/>
      <point x="538" y="399"/>
      <point x="581" y="442"/>
      <point x="581" y="501" type="curve" smooth="yes"/>
      <point x="581" y="587"/>
      <point x="527" y="624"/>
      <point x="482" y="646" type="curve" smooth="yes"/>
      <point x="443" y="665"/>
      <point x="420" y="681"/>
      <point x="416" y="714" type="curve"/>
      <point x="215" y="714" type="line"/>
      <point x="205" y="616"/>
      <point x="262" y="565"/>
      <point x="322" y="544" type="curve" smooth="yes"/>
      <point x="355" y="533"/>
      <point x="378" y="518"/>
      <point x="378" y="495" type="curve" smooth="yes"/>
      <point x="378" y="473"/>
      <point x="361" y="459"/>
      <point x="313" y="459" type="curve" smooth="yes"/>
      <point x="268" y="459" type="line"/>
      <point x="268" y="315" type="line"/>
      <point x="307" y="315" type="line" smooth="yes"/>
      <point x="356" y="315"/>
      <point x="401" y="299"/>
      <point x="401" y="228" type="curve" smooth="yes"/>
      <point x="401" y="179"/>
      <point x="380" y="136"/>
      <point x="320" y="136" type="curve" smooth="yes"/>
      <point x="261" y="136"/>
      <point x="236" y="176"/>
      <point x="236" y="216" type="curve" smooth="yes"/>
      <point x="236" y="231"/>
      <point x="237" y="245"/>
      <point x="241" y="264" type="curve"/>
      <point x="53" y="264" type="line"/>
      <point x="44" y="240"/>
      <point x="41" y="222"/>
      <point x="41" y="195" type="curve" smooth="yes"/>
      <point x="41" y="88"/>
      <point x="141" y="-10"/>
    </contour>
  </outline>
</glyph>
<glyph name="Zhar-georgian" format="2">
  <advance width="692"/>
  <unicode hex="1C9F"/>
  <outline>
    <contour>
      <point x="352" y="-10" type="curve" smooth="yes"/>
      <point x="528" y="-10"/>
      <point x="626" y="88"/>
      <point x="626" y="233" type="curve" smooth="yes"/>
      <point x="626" y="714" type="line"/>
      <point x="465" y="714" type="line"/>
      <point x="394" y="686"/>
      <point x="296" y="666"/>
      <point x="201" y="663" type="curve"/>
      <point x="201" y="524" type="line"/>
      <point x="231" y="524"/>
      <point x="239" y="506"/>
      <point x="239" y="489" type="curve" smooth="yes"/>
      <point x="239" y="472"/>
      <point x="230" y="454"/>
      <point x="208" y="454" type="curve" smooth="yes"/>
      <point x="189" y="454"/>
      <point x="177" y="468"/>
      <point x="177" y="487" type="curve" smooth="yes"/>
      <point x="177" y="489"/>
      <point x="177" y="491"/>
      <point x="177" y="494" type="curve"/>
      <point x="39" y="494" type="line"/>
      <point x="37" y="485"/>
      <point x="35" y="473"/>
      <point x="35" y="461" type="curve" smooth="yes"/>
      <point x="35" y="388"/>
      <point x="105" y="333"/>
      <point x="209" y="333" type="curve" smooth="yes"/>
      <point x="319" y="333"/>
      <point x="382" y="397"/>
      <point x="382" y="468" type="curve" smooth="yes"/>
      <point x="382" y="504"/>
      <point x="368" y="541"/>
      <point x="338" y="556" type="curve"/>
      <point x="338" y="558" type="line"/>
      <point x="372" y="561"/>
      <point x="400" y="566"/>
      <point x="432" y="575" type="curve"/>
      <point x="432" y="227" type="line" smooth="yes"/>
      <point x="432" y="174"/>
      <point x="413" y="136"/>
      <point x="352" y="136" type="curve" smooth="yes"/>
      <point x="296" y="136"/>
      <point x="272" y="176"/>
      <point x="272" y="216" type="curve" smooth="yes"/>
      <point x="272" y="231"/>
      <point x="273" y="245"/>
      <point x="277" y="264" type="curve"/>
      <point x="89" y="264" type="line"/>
      <point x="80" y="240"/>
      <point x="77" y="222"/>
      <point x="77" y="195" type="curve" smooth="yes"/>
      <point x="77" y="88"/>
      <point x="176" y="-10"/>
    </contour>
  </outline>
</glyph>
<glyph name="Rae-georgian" format="2">
  <advance width="924"/>
  <unicode hex="1CA0"/>
  <outline>
    <contour>
      <point x="100" y="0" type="curve"/>
      <point x="295" y="0" type="line"/>
      <point x="260" y="80"/>
      <point x="242" y="165"/>
      <point x="242" y="248" type="curve" smooth="yes"/>
      <point x="242" y="335"/>
      <point x="266" y="367"/>
      <point x="310" y="367" type="curve" smooth="yes"/>
      <point x="351" y="367"/>
      <point x="369" y="330"/>
      <point x="369" y="261" type="curve" smooth="yes"/>
      <point x="369" y="150" type="line"/>
      <point x="555" y="150" type="line"/>
      <point x="555" y="261" type="line" smooth="yes"/>
      <point x="555" y="312"/>
      <point x="564" y="367"/>
      <point x="615" y="367" type="curve" smooth="yes"/>
      <point x="669" y="367"/>
      <point x="682" y="299"/>
      <point x="682" y="252" type="curve" smooth="yes"/>
      <point x="682" y="157"/>
      <point x="661" y="75"/>
      <point x="629" y="0" type="curve"/>
      <point x="823" y="0" type="line"/>
      <point x="860" y="86"/>
      <point x="878" y="165"/>
      <point x="878" y="257" type="curve" smooth="yes"/>
      <point x="878" y="397"/>
      <point x="791" y="510"/>
      <point x="647" y="510" type="curve" smooth="yes"/>
      <point x="547" y="510"/>
      <point x="491" y="467"/>
      <point x="464" y="395" type="curve"/>
      <point x="460" y="395" type="line"/>
      <point x="434" y="467"/>
      <point x="376" y="510"/>
      <point x="304" y="510" type="curve" smooth="yes"/>
      <point x="263" y="510"/>
      <point x="225" y="500"/>
      <point x="201" y="479" type="curve"/>
      <point x="197" y="479" type="line"/>
      <point x="228" y="523"/>
      <point x="330" y="535"/>
      <point x="406" y="543" type="curve" smooth="yes"/>
      <point x="465" y="549"/>
      <point x="547" y="557"/>
      <point x="658" y="569" type="curve"/>
      <point x="640" y="725" type="line"/>
      <point x="548" y="718"/>
      <point x="463" y="709"/>
      <point x="397" y="700" type="curve" smooth="yes"/>
      <point x="114" y="661"/>
      <point x="46" y="518"/>
      <point x="46" y="286" type="curve" smooth="yes"/>
      <point x="46" y="179"/>
      <point x="59" y="110"/>
    </contour>
  </outline>
</glyph>
<glyph name="San-georgian" format="2">
  <advance width="663"/>
  <unicode hex="1CA1"/>
  <outline>
    <contour>
      <point x="342" y="-10" type="curve" smooth="yes"/>
      <point x="512" y="-10"/>
      <point x="617" y="93"/>
      <point x="617" y="245" type="curve" smooth="yes"/>
      <point x="617" y="327"/>
      <point x="590" y="372"/>
      <point x="564" y="414" type="curve" smooth="yes"/>
      <point x="540" y="453"/>
      <point x="527" y="479"/>
      <point x="529" y="525" type="curve"/>
      <point x="335" y="525" type="line"/>
      <point x="327" y="452"/>
      <point x="345" y="408"/>
      <point x="369" y="371" type="curve" smooth="yes"/>
      <point x="395" y="331"/>
      <point x="420" y="295"/>
      <point x="420" y="231" type="curve" smooth="yes"/>
      <point x="420" y="185"/>
      <point x="392" y="143"/>
      <point x="341" y="143" type="curve" smooth="yes"/>
      <point x="289" y="143"/>
      <point x="256" y="180"/>
      <point x="256" y="248" type="curve" smooth="yes"/>
      <point x="256" y="714" type="line"/>
      <point x="61" y="714" type="line"/>
      <point x="61" y="258" type="line" smooth="yes"/>
      <point x="61" y="91"/>
      <point x="161" y="-10"/>
    </contour>
  </outline>
</glyph>
<glyph name="Tar-georgian" format="2">
  <advance width="837"/>
  <unicode hex="1CA2"/>
  <outline>
    <contour>
      <point x="418" y="-10" type="curve" smooth="yes"/>
      <point x="653" y="-10"/>
      <point x="791" y="132"/>
      <point x="791" y="358" type="curve" smooth="yes"/>
      <point x="791" y="552"/>
      <point x="693" y="678"/>
      <point x="511" y="707" type="curve"/>
      <point x="514" y="722"/>
      <point x="515" y="732"/>
      <point x="515" y="747" type="curve"/>
      <point x="515" y="757" type="line"/>
      <point x="321" y="757" type="line"/>
      <point x="321" y="747" type="line"/>
      <point x="321" y="732"/>
      <point x="322" y="722"/>
      <point x="325" y="706" type="curve"/>
      <point x="143" y="677"/>
      <point x="46" y="548"/>
      <point x="46" y="359" type="curve" smooth="yes"/>
      <point x="46" y="134"/>
      <point x="183" y="-10"/>
    </contour>
    <contour>
      <point x="418" y="149" type="curve" smooth="yes"/>
      <point x="310" y="149"/>
      <point x="249" y="208"/>
      <point x="249" y="359" type="curve" smooth="yes"/>
      <point x="249" y="473"/>
      <point x="277" y="539"/>
      <point x="333" y="561" type="curve"/>
      <point x="329" y="538"/>
      <point x="325" y="514"/>
      <point x="325" y="462" type="curve"/>
      <point x="325" y="344" type="line"/>
      <point x="509" y="344" type="line"/>
      <point x="509" y="463" type="line"/>
      <point x="509" y="517"/>
      <point x="504" y="541"/>
      <point x="500" y="561" type="curve"/>
      <point x="555" y="540"/>
      <point x="588" y="483"/>
      <point x="588" y="359" type="curve" smooth="yes"/>
      <point x="588" y="208"/>
      <point x="529" y="149"/>
    </contour>
  </outline>
</glyph>
<glyph name="Un-georgian" format="2">
  <advance width="676"/>
  <unicode hex="1CA3"/>
  <anchor x="334" y="714" name="top"/>
  <outline>
    <contour>
      <point x="341" y="-10" type="curve" smooth="yes"/>
      <point x="516" y="-10"/>
      <point x="615" y="82"/>
      <point x="615" y="233" type="curve" smooth="yes"/>
      <point x="615" y="518" type="line" smooth="yes"/>
      <point x="615" y="644"/>
      <point x="538" y="724"/>
      <point x="400" y="724" type="curve" smooth="yes"/>
      <point x="326" y="724"/>
      <point x="264" y="688"/>
      <point x="238" y="633" type="curve"/>
      <point x="234" y="633" type="line"/>
      <point x="209" y="688"/>
      <point x="164" y="718"/>
      <point x="92" y="718" type="curve" smooth="yes"/>
      <point x="32" y="718" type="line"/>
      <point x="32" y="562" type="line"/>
      <point x="84" y="562" type="line" smooth="yes"/>
      <point x="118" y="562"/>
      <point x="137" y="544"/>
      <point x="137" y="512" type="curve" smooth="yes"/>
      <point x="137" y="425" type="line"/>
      <point x="323" y="425" type="line"/>
      <point x="323" y="510" type="line" smooth="yes"/>
      <point x="323" y="556"/>
      <point x="345" y="570"/>
      <point x="373" y="570" type="curve" smooth="yes"/>
      <point x="405" y="570"/>
      <point x="421" y="551"/>
      <point x="421" y="508" type="curve" smooth="yes"/>
      <point x="421" y="236" type="line" smooth="yes"/>
      <point x="421" y="182"/>
      <point x="403" y="145"/>
      <point x="344" y="145" type="curve" smooth="yes"/>
      <point x="290" y="145"/>
      <point x="266" y="186"/>
      <point x="266" y="235" type="curve" smooth="yes"/>
      <point x="266" y="258"/>
      <point x="268" y="282"/>
      <point x="274" y="308" type="curve"/>
      <point x="79" y="308" type="line"/>
      <point x="70" y="276"/>
      <point x="67" y="250"/>
      <point x="67" y="217" type="curve" smooth="yes"/>
      <point x="67" y="89"/>
      <point x="169" y="-10"/>
    </contour>
  </outline>
</glyph>
<glyph name="Phar-georgian" format="2">
  <advance width="971"/>
  <unicode hex="1CA4"/>
  <outline>
    <contour>
      <point x="568" y="-10" type="curve" smooth="yes"/>
      <point x="800" y="-10"/>
      <point x="908" y="88"/>
      <point x="908" y="214" type="curve" smooth="yes"/>
      <point x="908" y="275"/>
      <point x="871" y="332"/>
      <point x="807" y="351" type="curve"/>
      <point x="807" y="354" type="line"/>
      <point x="876" y="376"/>
      <point x="925" y="424"/>
      <point x="925" y="525" type="curve" smooth="yes"/>
      <point x="925" y="638"/>
      <point x="839" y="724"/>
      <point x="687" y="724" type="curve" smooth="yes"/>
      <point x="604" y="724"/>
      <point x="536" y="694"/>
      <point x="504" y="638" type="curve"/>
      <point x="501" y="638" type="line"/>
      <point x="472" y="694"/>
      <point x="400" y="724"/>
      <point x="315" y="724" type="curve" smooth="yes"/>
      <point x="153" y="724"/>
      <point x="46" y="630"/>
      <point x="46" y="483" type="curve" smooth="yes"/>
      <point x="46" y="342"/>
      <point x="160" y="248"/>
      <point x="320" y="248" type="curve" smooth="yes"/>
      <point x="492" y="248"/>
      <point x="596" y="342"/>
      <point x="596" y="474" type="curve" smooth="yes"/>
      <point x="596" y="500" type="line" smooth="yes"/>
      <point x="596" y="543"/>
      <point x="612" y="581"/>
      <point x="661" y="581" type="curve" smooth="yes"/>
      <point x="710" y="581"/>
      <point x="726" y="540"/>
      <point x="726" y="497" type="curve" smooth="yes"/>
      <point x="726" y="460"/>
      <point x="712" y="418"/>
      <point x="650" y="418" type="curve" smooth="yes"/>
      <point x="628" y="418" type="line"/>
      <point x="628" y="277" type="line"/>
      <point x="639" y="277" type="line" smooth="yes"/>
      <point x="678" y="277"/>
      <point x="706" y="258"/>
      <point x="706" y="218" type="curve" smooth="yes"/>
      <point x="706" y="175"/>
      <point x="665" y="136"/>
      <point x="576" y="136" type="curve" smooth="yes"/>
      <point x="494" y="136"/>
      <point x="435" y="154"/>
      <point x="435" y="196" type="curve" smooth="yes"/>
      <point x="435" y="198"/>
      <point x="435" y="201"/>
      <point x="435" y="204" type="curve"/>
      <point x="242" y="204" type="line"/>
      <point x="240" y="196"/>
      <point x="238" y="183"/>
      <point x="238" y="169" type="curve" smooth="yes"/>
      <point x="238" y="56"/>
      <point x="366" y="-10"/>
    </contour>
    <contour>
      <point x="322" y="390" type="curve" smooth="yes"/>
      <point x="268" y="390"/>
      <point x="244" y="431"/>
      <point x="244" y="486" type="curve" smooth="yes"/>
      <point x="244" y="541"/>
      <point x="269" y="581"/>
      <point x="321" y="581" type="curve" smooth="yes"/>
      <point x="375" y="581"/>
      <point x="399" y="542"/>
      <point x="399" y="486" type="curve" smooth="yes"/>
      <point x="399" y="432"/>
      <point x="375" y="390"/>
    </contour>
  </outline>
</glyph>
<glyph name="Khar-georgian" format="2">
  <advance width="651"/>
  <unicode hex="1CA5"/>
  <outline>
    <contour>
      <point x="316" y="-10" type="curve" smooth="yes"/>
      <point x="491" y="-10"/>
      <point x="590" y="85"/>
      <point x="590" y="242" type="curve" smooth="yes"/>
      <point x="590" y="714" type="line"/>
      <point x="396" y="714" type="line"/>
      <point x="396" y="647" type="line" smooth="yes"/>
      <point x="396" y="609"/>
      <point x="398" y="575"/>
      <point x="403" y="546" type="curve"/>
      <point x="399" y="546" type="line"/>
      <point x="369" y="590"/>
      <point x="331" y="617"/>
      <point x="251" y="617" type="curve" smooth="yes"/>
      <point x="156" y="617"/>
      <point x="65" y="541"/>
      <point x="65" y="433" type="curve" smooth="yes"/>
      <point x="65" y="404"/>
      <point x="68" y="384"/>
      <point x="72" y="366" type="curve"/>
      <point x="261" y="366" type="line"/>
      <point x="259" y="378"/>
      <point x="258" y="391"/>
      <point x="258" y="402" type="curve" smooth="yes"/>
      <point x="258" y="446"/>
      <point x="280" y="474"/>
      <point x="325" y="474" type="curve" smooth="yes"/>
      <point x="375" y="474"/>
      <point x="397" y="433"/>
      <point x="397" y="376" type="curve" smooth="yes"/>
      <point x="397" y="243" type="line" smooth="yes"/>
      <point x="397" y="184"/>
      <point x="378" y="136"/>
      <point x="316" y="136" type="curve" smooth="yes"/>
      <point x="261" y="136"/>
      <point x="236" y="176"/>
      <point x="236" y="216" type="curve" smooth="yes"/>
      <point x="236" y="231"/>
      <point x="237" y="245"/>
      <point x="241" y="264" type="curve"/>
      <point x="53" y="264" type="line"/>
      <point x="44" y="240"/>
      <point x="41" y="222"/>
      <point x="41" y="195" type="curve" smooth="yes"/>
      <point x="41" y="88"/>
      <point x="141" y="-10"/>
    </contour>
  </outline>
</glyph>
<glyph name="Ghan-georgian" format="2">
  <advance width="930"/>
  <unicode hex="1CA6"/>
  <outline>
    <contour>
      <point x="516" y="0" type="curve"/>
      <point x="706" y="0" type="line"/>
      <point x="697" y="125"/>
      <point x="606" y="202"/>
      <point x="476" y="231" type="curve" smooth="yes"/>
      <point x="345" y="260"/>
      <point x="242" y="319"/>
      <point x="242" y="466" type="curve" smooth="yes"/>
      <point x="242" y="555"/>
      <point x="268" y="582"/>
      <point x="312" y="582" type="curve" smooth="yes"/>
      <point x="358" y="582"/>
      <point x="372" y="545"/>
      <point x="372" y="475" type="curve" smooth="yes"/>
      <point x="372" y="354" type="line"/>
      <point x="557" y="354" type="line"/>
      <point x="557" y="475" type="line" smooth="yes"/>
      <point x="557" y="540"/>
      <point x="569" y="582"/>
      <point x="619" y="582" type="curve" smooth="yes"/>
      <point x="674" y="582"/>
      <point x="688" y="516"/>
      <point x="688" y="464" type="curve" smooth="yes"/>
      <point x="688" y="411"/>
      <point x="677" y="344"/>
      <point x="647" y="282" type="curve"/>
      <point x="812" y="221" type="line"/>
      <point x="863" y="307"/>
      <point x="884" y="376"/>
      <point x="884" y="470" type="curve" smooth="yes"/>
      <point x="884" y="615"/>
      <point x="795" y="724"/>
      <point x="646" y="724" type="curve" smooth="yes"/>
      <point x="551" y="724"/>
      <point x="495" y="686"/>
      <point x="468" y="616" type="curve"/>
      <point x="462" y="616" type="line"/>
      <point x="436" y="684"/>
      <point x="371" y="724"/>
      <point x="276" y="724" type="curve" smooth="yes"/>
      <point x="128" y="724"/>
      <point x="46" y="614"/>
      <point x="46" y="471" type="curve" smooth="yes"/>
      <point x="46" y="349"/>
      <point x="112" y="243"/>
      <point x="222" y="197" type="curve"/>
      <point x="222" y="193" type="line"/>
      <point x="194" y="189"/>
      <point x="156" y="174"/>
      <point x="132" y="157" type="curve"/>
      <point x="197" y="40" type="line"/>
      <point x="251" y="68"/>
      <point x="302" y="85"/>
      <point x="367" y="85" type="curve" smooth="yes"/>
      <point x="432" y="85"/>
      <point x="509" y="54"/>
    </contour>
  </outline>
</glyph>
<glyph name="Qar-georgian" format="2">
  <advance width="656"/>
  <unicode hex="1CA7"/>
  <outline>
    <contour>
      <point x="321" y="-10" type="curve" smooth="yes"/>
      <point x="495" y="-10"/>
      <point x="595" y="81"/>
      <point x="595" y="233" type="curve" smooth="yes"/>
      <point x="595" y="714" type="line"/>
      <point x="404" y="714" type="line"/>
      <point x="404" y="596" type="line" smooth="yes"/>
      <point x="404" y="511"/>
      <point x="372" y="474"/>
      <point x="320" y="474" type="curve" smooth="yes"/>
      <point x="273" y="474"/>
      <point x="244" y="515"/>
      <point x="244" y="570" type="curve" smooth="yes"/>
      <point x="244" y="622"/>
      <point x="252" y="665"/>
      <point x="267" y="714" type="curve"/>
      <point x="74" y="714" type="line"/>
      <point x="58" y="674"/>
      <point x="46" y="624"/>
      <point x="46" y="559" type="curve" smooth="yes"/>
      <point x="46" y="407"/>
      <point x="136" y="321"/>
      <point x="255" y="321" type="curve" smooth="yes"/>
      <point x="330" y="321"/>
      <point x="378" y="353"/>
      <point x="406" y="389" type="curve"/>
      <point x="409" y="389" type="line"/>
      <point x="405" y="351"/>
      <point x="404" y="325"/>
      <point x="404" y="297" type="curve" smooth="yes"/>
      <point x="404" y="227" type="line" smooth="yes"/>
      <point x="404" y="179"/>
      <point x="385" y="136"/>
      <point x="321" y="136" type="curve" smooth="yes"/>
      <point x="266" y="136"/>
      <point x="241" y="176"/>
      <point x="241" y="216" type="curve" smooth="yes"/>
      <point x="241" y="231"/>
      <point x="242" y="245"/>
      <point x="246" y="264" type="curve"/>
      <point x="58" y="264" type="line"/>
      <point x="49" y="240"/>
      <point x="46" y="222"/>
      <point x="46" y="195" type="curve" smooth="yes"/>
      <point x="46" y="88"/>
      <point x="146" y="-10"/>
    </contour>
  </outline>
</glyph>
